<?xml version="1.0" encoding="utf-8"?>
<!-- Generator: Adobe Illustrator 19.0.0, SVG Export Plug-In . SVG Version: 6.00 Build 0)  -->
<svg version="1.1" id="Слой_2" xmlns="http://www.w3.org/2000/svg" xmlns:xlink="http://www.w3.org/1999/xlink" x="0px" y="0px"
	 viewBox="13 371.9 622 99" style="enable-background:new 13 371.9 622 99;" xml:space="preserve">
<style type="text/css">
	.st0{fill:#922939;}
	.st1{fill:#A52F4A;}
	.st2{fill:none;}
	.st3{fill:#81CFF4;}
	.st4{fill:#231F20;}
</style>
<g>
	<path class="st0" d="M53.1,393.9c-1.2,1.3-5.4,2.2-6.3-1.5c-0.4-1.5,0.4-3,1.3-4.4c3.3-4.9,8.2-1.2,8.9-0.3c0.7,1,1.6,2.4,2.1,4.1
		c0.4,1.7,0.7,6.1,0.6,9.6c-0.1,3.4-0.7,4.9-1,6.4c-0.3,1.6-1.6,3.7-3.3,6c-1.6,2.3-5.2,5.4-8.8,7.2c-0.7,0.4,0.3,11.7,0.7,13.5
		c0.4,1.8,2.7,6.8,5,6.8c0.4,0-0.2,2.2,0.7,3.4c0.6,0.9,1.4,1.4,2.1,1.5c0.5,0.1,1.9-0.3,1.9-0.3s-0.9,0.3-0.6-0.9
		c0.3-1.2,0.8-1.2,0.8-1.2s-1.3,0.1-1.4-0.7c-0.1-0.9,0-1,1.6-1.2c1.6-0.1,0.3,0.1-0.1-0.7c-0.4-0.8-0.6-0.7,0.7-0.6
		c1.3,0.1-1.6-1.3-2.4-1.4c-1.9-0.2-2,0.7-2.5,1c-0.5,0.2,0.1-1,0.5-1.3c0.9-0.9,4.1-0.1,4.1-0.1l1.2,0.5c0,0,0.4,0.4,0-0.4
		c-0.4-0.9-1.8-1.1-1.3-1.6c0.4-0.4,1.1-0.4,1.1-0.4s0.5,0.4,0.9,0.6c0.4,0.2,0.1,0.4,0.9,0.1c0.7-0.3,1.4-0.3,1.4-0.3l0,29
		c0,0-3.9-4.8-4.9-8.2c-0.3-1-2.5,2.1-4.8-1.3c-1.5-2.2-1.3-3.1-1.3-3.1s-5-1.1-7-3.8c-2-2.7-1.5-0.5-4.6-5.2
		c-3.1-4.7-0.3-8.1-1-9.5c-0.7-1.4-2.9-2.5-2.7-3.4c0.1-0.9,0.9-1.3,1.7-1.5c0.8-0.2,1,0.5,1-0.7c0-1.3,0.2-13.8,1.9-14.4
		c1.7-0.5,1.7,0.1,3.9-0.2c2.2-0.3,8.9-2.3,10.8-8.4c2-6.2,1.5-7.4,1.4-10.3c0-1.3-1.2-4.1-1.7-4.7"/>
	<g>
		<path class="st1" d="M53,389.7c0,2.3-2.2,1.9-2.6,1.7c-0.8-0.4-1.4-1.1-1.4-2c0-1.5,0.6-1.7,1.8-1.7C51.7,387.8,53,388.9,53,389.7
			z"/>
		<path class="st1" d="M55,388.5c-0.3-1.1,0.8,0.4,1.9,2c1.3,1.8,2,6.2,2,7.3c0,1.9-0.2,4.3-0.7,6.6c-0.6,2.8-1.6,4.7-3.1,7
			c-0.7,1.1-5.4,6.5-11.6,7.6c-0.8,0.1-1-0.2-1-0.2s-0.2,2.3-0.2,4.6c0,2.2-0.7,9.7,0.3,13.3c1,3.6,1.5,5.2,2.1,6.1
			c0.5,0.9,1.4,2.1-0.1,0.7c-1.5-1.4-1-0.7-2.2-2.8c-1.2-2.1-1.7-3.1-1.9-4.1c-0.2-1-0.6-2.9-0.7-0.5c-0.2,2.4-0.4,3.2-0.5,3.1
			c-0.6-0.8-0.4-2.4-0.1-4c0.3-1.5-0.5-2-1.1-2.2c-0.6-0.2-1.4-0.7-1.4-0.9c0-0.2-0.1-0.3,0.7-0.4c0.7-0.1,1.5,0,1.8-0.6
			c0.3-0.6,0.3-1.4,0.3-3.6c0-2.2,0.3-5.8,0.7-7.6c0.4-1.8-0.4-3.1,0.5-3.5c0.9-0.4,1.7-0.1,3.3-0.3c1.6-0.2,2.9-1.4,5.3-2
			c3.6-0.9,8.1-7.8,8.2-12.8c0-2.2,0.2-6.1-0.1-7.5C56.8,391.5,55.2,389,55,388.5z"/>
		<path class="st1" d="M43.8,424c0.3,0-0.1,2.8,0.5,4c0.4,0.8-0.2,1.9,0.2,0.9c0.4-1,0.9-2.6,1.2-2.1c0.1,0.1-0.1,1.5,0,2.8
			c0.1,1.3-0.1,2.4,0.6,4.6c0.7,2.2,1,4.3,1.9,5.4c0.9,1.1,1.4,2.4,2.1,3c0.7,0.6,0.6,1.6,0.6,1.6s-0.7,0.3-0.7,1.2
			c0,0.9,2.5,3.4,0.3,1.9c-1.6-1-2-2.8-3.2-4.6c-1.3-1.8-1.8-2.3-2.5-3.4c-1.8-3-1.6-4.9-1.6-6.5c0-1.6-0.5-1.9-0.3-3.7
			C43.2,427.3,43.2,424.1,43.8,424z"/>
		<path class="st1" d="M40.1,439.3c-0.1,0.7-0.2,2.1,0.5,4.2c0.9,2.7-0.1,2.2,1.8,3.9c1.9,1.7,2.6,2.6,1.7,0.8
			c-0.9-1.8-1.5-2.5-1.8-3.6C42.1,443.5,40.3,437.9,40.1,439.3z"/>
		<path class="st1" d="M48.4,391.8c0.4,1.2,2.1,1.4,2.9,1.1c0.8-0.2,2.6-1.1,2.2-0.5c-0.5,0.6-0.6,1.1-2.2,1.7c-1.5,0.6-2.9,0-3.4-1
			c-0.5-0.9-0.5-1.7-0.6-2.3C47.2,389.6,47.8,390.1,48.4,391.8z"/>
		<path class="st1" d="M45.4,446.8c1,2.4,0.8,1.7,2.2,3.1c1.4,1.3,1.8,2.1,3.7,2.9c1.9,0.8,5,2.5,3.3,0.8c-1.6-1.6-2.3-1-3.5-2.3
			c-1.2-1.3-1.3-0.6-2.7-2.4c-1.3-1.8-1.8-2.4-2.8-3.2C44.7,444.9,45.4,446.8,45.4,446.8z"/>
	</g>
	<path class="st0" d="M58.1,454.9c-0.3-0.5,0.1-0.1-0.4,0.4c-0.6,0.6-3.3,5.8-3.2,2.8c0-1.8-3.1,3.8-4.3,3.7
		c-1.2-0.1-0.8-2.9-1.3-3.7c-0.7-1-4-1.9-3.8-2.8c0.1-0.5,1-1.4,2-1.2c0.6,0.2,1.1-0.9,1.2-2.2c0-1.3-2-2-2-2.9
		c0-0.9-1.5,2.3-1.1,3.6c0.2,0.7-1.2,0.3-1.4,0c-0.2-0.3-1.4-2.2-1.6-2.5c-0.2-0.3-0.4-0.6-1.3-0.6c-1,0-1.3,1-1.3,1
		s-0.9-0.9-1.8-2.5c-0.9-1.6-3-3.4-5.6-3.3c-1.3,0-1.8-0.2-1.8-0.7c0-0.4,0.4-0.5-0.1-1.6c-0.5-1,0.3-1.1,0.9-0.5
		c0.5,0.5,1.3,0,2-0.9c0.7-0.9,0.5-0.4,1.1-0.3c1.1,0.1,0.6-1.3,1.3-1.8c0.7-0.5-0.1-1.1-0.2-1.7c-0.1-0.6-0.8-2.1,0.3-2.7
		c1.1-0.6,1.1-1.3,1.1-2.4c0-1-0.5-0.1-1.3,0.1c-0.7,0.1-1.3,0.2-1.7-0.3c-2-2.1-1.2-3.3-1.7-4.8c-0.6-2-3.4-3.6-6.6-2
		c-0.9,0.5-2.2,1.6-2.6,3.4c-0.4,1.9-0.9,2.9-0.9,2.9s-1.2-2.9-0.5-4.8c0.4-1.1,0.9-1.1,1.4-1.3c1.6-0.4,0.2-1,1.6-1.9
		c0.9-0.5,0.8-0.8,1.1-1.5c0.3-0.7,2.2-0.1,2.2,0.2c0,0.2,0.4,0.4,0.7,0.5c0.3,0.1,0.5,0.2,0.5,0.5c0,0.3,0.4,1,1,1
		c0.6,0.1,0.5-0.1,1,0.3c0.6,0.4,0.7,0.1,1.5-0.1c0.7-0.2,0.5,0.3,1.2,0.2c0.7-0.1,0-0.5,0.7-1.2c0.2-0.2,0.7-0.3,0.7-0.8
		c0.1-0.5-0.4-1.2-0.1-1.6c0.5-0.7-0.1-1,0-1.5c0.1-0.4-0.6-0.3-1.1-0.5c-0.5-0.2-0.1-0.9-0.6-1.2c-0.4-0.2-1.6,0.1-1.8-0.1
		c-0.5-0.6-4.2,1.3,0.2-1c3.1-1.7,3.7-2.2,4.3-3.9c0.4-1.2-0.4-2.9-0.6-3.4c-0.2-0.5-0.5-1.2-0.5-1.2s0.4-0.1,0.7-0.2
		c0.3-0.1,0.7-0.1,1.6-0.1c1,0,1.6,0.5,2.4,1.8c0.7,1.3,0.1,1.9,0.1,1.9s1,0.1,2.2-0.8c0.3-0.2,0.5-0.7,0.6-1.6c0-0.4-0.1-1-0.1-1.1
		c-0.2-0.3,0.6,0.5,1.3,0.5c0.4,0,1.7-0.2,1.7-0.2s-0.4-1-1-1.7c-0.6-0.7-0.5-0.4,0.2-0.8c0.7-0.4,1.2-0.8,1.6-1.6
		c0.1-0.2,0.2-0.5,0.2-0.5s-0.2-0.2-0.9-0.5c-0.9-0.5-0.7-0.5-1.7-0.8c-1-0.3-1.3-0.1-1.3-0.1s0.1-0.7-0.4-1.5c-0.4-0.8-2-2.3-2-2.3
		s-0.2,0.6-0.3,1.9c-0.1,1.3-0.4,1.3-0.7,2.3c-0.4,1-5.7,3.3-5.7,3.3l-1.7-1c0,0-3.7-1.4-5.8-2.3c-2.1-1-2-1.7-1.6-3.3
		c0.3-1.1,1-1.9,1.5-3c0.3-0.5,0.4-1.2,0.6-2.5c0.1-1,0.4-2.4,0.4-2.4s-4.7,4.9-5.4,7.7c-0.7,2.8-0.4,3.3,0.2,4.6
		c0.7,1.3,3.5,2.5,3.5,2.5s4.7,1.7,3.8,2.1c-2.2,1-4.6,4.7-4.6,4.7s-0.6-0.7-1.1-0.5c-0.5,0.3-0.3,2.4-1,2.8
		c-0.4,0.2-1.6-0.5-1.9-0.5c-0.2,0-1-0.2-0.7,0.7c0.3,0.9,1.3,2,1,3.4c-1.1,4.9-1.9,3.8-1.7,6.2c0.1,1-0.4,2-1.3,2.3
		c-0.5,0.1-1.9-1.1-1.9,0.7c0,1.7-0.3,2.6,2.5,5.5c1.3,1.3,2.1,3.7,1.8,3.7c-1.5,0.2-3.6,1.6-3.6,2.1c0,0.4,1.6,1.9,1.6,1.9
		s-1,0.8-1.1,1.4c0,1.3,0.5,1.4,1.1,1.8c0.9,0.6,0.5,0.7,0.7,0.1c0.2-0.6,0.4-0.9,0.7-1c1.4-0.5,2.8,0.8,3.3,2
		c0.5,1.2-1.9,2.1-2.5,2.6c-0.6,0.5-1,1.5-1.2,3.1c-0.2,1.6-0.3,3.4-0.4,4.4c-0.1,1-0.6,0.5-1-0.4c-0.4-0.9,0-1.6,0.2-2.9
		c0.2-1.3,0.2-1.3,0.2-1.9c0-0.7-0.3-1.2-1.3-2.3c-1-1.1-1.4-1.9-1.8-2.5c-0.3-0.4-1.4-2.1-1.4-2.1s-0.2,1.6-0.2,2.7
		c0,1.2,1.1,2.1,1.9,2.9c0.8,0.8,0.5,1.7,0.6,2.3c0.1,0.6-1.1,3.2-1.1,4.5c0,1.3-0.3,2.2,1.9,4c2.2,1.7,2.8,0.4,3.1,0.2
		c0.3-0.1,1-1,1.9-4.8c1-4.2,1.6-4.3,1.9-4.9c0.3-0.5,0.9,0,0.9,0s1.2,3,1.4,3.7c1.1,3.2,4.9,4.8,3.5,5.1c-1.4,0.3-2.5,0.4-3.3,0.9
		c-0.7,0.5-2.7,1.5-1.4,4.6c0.6,1.2,1.5,1.9,2.6,2.3c1.2,0.5,3.4,0.8,3.4,0.8s-1.9-1.3-2.6-1.9c-0.5-0.4-1.1-1.3-1.3-1.9
		c-0.2-0.9,1.1-1.8,2.7-1.7c1.7,0.2,0.4,0.5,2.4,1.5c2.4,1.2,3.3-0.4,2.9,0.7c-0.4,1.1-0.5,1.2-0.4,1.8c0.1,0.6,2.5,0,3.1,0
		c0.6,0,1.6,0.3,2.1,0.8c0.6,0.6,2.9,0,2.9,0c2,1.4,4.2-2.2,4.1-0.4c-0.1,1.7-1.2,2.8-1.2,2.8s0.3,0.7,1.3,0.7
		c0.9,0,3.6-1.9,3.6-1.9l2.8,1.3c0,0-0.2-1-0.1-1.3c0.4-1.8-1.9-4.7,1.2-5.8C55.2,462.6,59.4,457.2,58.1,454.9z M33.9,420.1
		c0.3,0,0.6,0.3,0.6,0.6c0,0.3-0.3,0.6-0.6,0.6c-0.3,0-0.6-0.3-0.6-0.6C33.3,420.3,33.6,420.1,33.9,420.1z M33.8,421.8
		c0.3,0,0.6,0.3,0.6,0.6c0,0.3-0.3,0.6-0.6,0.6c-0.3,0-0.6-0.3-0.6-0.6C33.2,422.1,33.5,421.8,33.8,421.8z M30.4,423.4
		c-0.3,0-0.6-0.3-0.6-0.6c0-0.3,0.3-0.6,0.6-0.6c0.3,0,0.6,0.3,0.6,0.6C31,423.1,30.7,423.4,30.4,423.4z M32.2,424
		c-0.3,0-0.6-0.3-0.6-0.6c0-0.3,0.3-0.6,0.6-0.6c0.3,0,0.6,0.3,0.6,0.6C32.8,423.8,32.5,424,32.2,424z M32.6,418.9
		c0.3,0,0.6,0.3,0.6,0.6c0,0.3-0.3,0.6-0.6,0.6c-0.3,0-0.6-0.3-0.6-0.6C32,419.1,32.3,418.9,32.6,418.9z M31.9,420.6
		c0.4,0,0.8,0.4,0.8,0.8c0,0.4-0.4,0.8-0.8,0.8c-0.4,0-0.8-0.4-0.8-0.8C31.1,421,31.4,420.6,31.9,420.6z M31,418.8
		c0.3,0,0.6,0.3,0.6,0.6c0,0.3-0.3,0.6-0.6,0.6c-0.3,0-0.6-0.3-0.6-0.6C30.4,419.1,30.7,418.8,31,418.8z M30,420.3
		c0.3,0,0.6,0.3,0.6,0.6c0,0.3-0.3,0.6-0.6,0.6c-0.3,0-0.6-0.3-0.6-0.6C29.4,420.5,29.7,420.3,30,420.3z M39.8,402.7
		c0.5-0.6,0.4-0.3,0.4-0.7c0,0-0.1-1.1,0.4-1.1c0.5-0.1,0.5,0.8,0.6,1.1c0.2,0.3,0.1,0.7-0.5,1.1c-0.6,0.4-1.9,0.6-1.9,0.6
		S39.3,403.3,39.8,402.7z M36,406c0.9-0.5,0.7-0.6,1.8-0.7c1.1-0.2,0.7-0.4,1.6-0.6c0.9-0.2,1.1-0.7,1.6-0.9
		c0.5-0.2,0.5,0.2,1.1,0.2c0.7,0,1.8,0.5,1.8,0.5l-0.5,0.2l-1.1,0.2c0,0-1.9,0.3-3.4,0.8l0.9,0.3l1,0.2c0,0-0.8,0.3-1.1,0.5
		c-0.3,0.2-1.2-0.3-1.5-0.3c-0.3,0-0.9,0-1.3,0c-0.5,0-1-0.1-1,0.6c-0.1,0.6-0.2,0.7-0.2,0.7l-0.3-0.1l-0.9-0.4l-0.6,0
		C34.1,407.1,35.1,406.4,36,406z M26.8,411.9c0.7-1.2,2.7-2.8,2.7-2.8c0.1,1.7,0.8,2.7,0.7,3.7c-0.1,1.2-1.1,2.6-2,3.6
		c-0.9,1-1.1,1.1-1.5,1.5c-0.5,0.3-1.9,1.8-1.9,1.8s0.7-0.8,0.6-2.1c-0.1-1.2-0.1-1.4-0.4-2.1C24,413.4,25.6,413.9,26.8,411.9z
		 M26.8,419.7c1-0.1,0.8-1.8,2-2.6c1.2-0.7,1.3-1.4,1.7-2.5c0.4-1,0.4-1,0.6-2.4c0.2-1.3-0.2-2.4-0.6-3.4c-0.4-1-2.3-2.2-2.6-2.4
		c-0.4-0.3-3.4-0.9-4.3-1.4c-0.9-0.5-1.6-0.4-2-2.5c-0.2-1.5,0-2.3,0.6-3.4c0.9-1.6,2.4-3.4,2.9-4.3c0,0-2.1,3.8-2.1,5.2
		c0,1.3,0.3,2.3,0.8,2.7c0.5,0.4,0.9,1,2.4,1.5c1.5,0.5,1.6,0.7,1.9,0.8c0.3,0.1,2,0.5,2.1,0.7c0.4,0.3,1.3,0.7,2.5,2.1
		c1.2,1.4,0.6,2.8,0.2,4.4c-0.4,1.7-0.8,2.4-1.8,3.7c-0.9,1.3-1.1,1.2-2.2,1.8c-1.1,0.6-0.4,1.7-0.9,2.4c-0.5,0.7-0.5,0.8-1.5,0.9
		c-1,0.1-2-0.7-2-0.7S25.7,419.7,26.8,419.7z M31.4,441c-0.6,0-1.1-0.3-1.1-0.7c0-0.4,0.5-0.7,1.1-0.7c0.6,0,1.1,0.3,1.1,0.7
		C32.5,440.7,32,441,31.4,441z M25.3,426.6c1-0.6,0.7-0.5,2.3-0.9c0.7-0.2,1.6-0.2,2.1,0.4c0.5,0.6,0.4,0.6,0.8,1.3
		c0.4,0.7,0.6,1,0.8,2.1c0.2,1.1,0.1,1.4,0.7,2.5c0.7,1,1.1,0.9,1.9,1.2c0.7,0.2,1.6,0.1,1.6,0.1s0.7-0.4-0.2,0.4
		c-1,0.7-1.2,1.1-2,0.9c-0.9-0.2-1-0.3-1.5-1.3c-0.5-0.9-0.6-1.2-1.3-2.4c-0.7-1.2-0.8-2-1.6-2.6c-0.8-0.6-1.2-0.7-2.2-0.7
		c-1,0.1-1.5,0.2-2,0.6c-0.5,0.3-0.7,0.7-0.7,0.7S24.5,427.1,25.3,426.6z M24.3,431.9c0.1-0.7,1.3-2.6,2.2-3c1-0.5,2.4,0.8,3.1,1.7
		c0.6,0.9,1.5,2.8,1.8,3.2c0.3,0.3-1.1,0.6-2-0.1c-0.9-0.7-1.4,0-2-0.2c-0.6-0.2-0.2-0.2-1.1-0.2c-0.9,0-2,0.6-2.2,0.2
		C24,432.9,24.2,432.6,24.3,431.9z M27.2,443.3c0.6,0.9,1.2,1.3,0.8,1.8c-0.3,0.5-0.6,0.4-1.2-0.2c-0.7-0.6-1.2-1.7-1.2-2.1
		c-0.1-0.5-0.3-1.7-0.3-1.7C26.4,442.4,26.6,442.4,27.2,443.3z M25.6,434.2c0.3-0.3,1.1-0.1,1.7,0.5c0.6,0.6,0.8,1.4,0.5,1.7
		c-0.3,0.3-1.1,0.1-1.7-0.5C25.5,435.2,25.3,434.5,25.6,434.2z M22.3,419.8c0.2-0.6,0.6-0.1,0.2-1.1c-0.3-1-0.1-1.5-0.1-1.5l0.5-0.9
		c0,0,0.6,1.6,1,1.6c0.2,0,0.5-0.2,0.5-0.2s0,0.2-0.1,0.6c-0.3,1.1-0.3,1.1-0.6,1.8c-0.3,0.7-0.7,0.5-1,0.5
		C22.3,420.6,22.1,420.4,22.3,419.8z M19.2,433.4c-0.4-0.6,0.1-0.4-0.6-0.7c-0.7-0.3-0.5,0.1-1.1-0.7c-0.6-0.9-0.4-0.3-0.7-1.5
		c-0.3-1.1,0-1.6,0-1.8c0-0.2-0.3-0.7,0.7,0.1c1.1,0.8,0.5,0.3,1.2,1.3c0.7,0.8,0.3,1.6,0.4,1.9c0.1,0.3,1,1.1,1.1,1.3
		c0.1,0.2,1,0.9,1,0.9l-1.1-2.5c0,0-0.8-3.8-0.7-5.1c0-0.6,0.5-1.9,0.7-2.2c0.2-0.3,0-1.3,0.6-2.2c0.6-0.9,1.1-1.3,1.1-1.3
		s-0.2,0.2,0.7,0.5c1,0.2,1.3,0.1,1.4-0.1c0.3-0.6,0,0.1-0.5,1c-0.5,0.9-0.1,0.7-0.7,1.3c-0.9,0.8-1.3,1.1-1.7,1.1
		c-0.3,0-0.6-0.7-0.7,0.6c-0.1,1.3,0.1,0.9,0.1,2.1c0,1.2-0.3,1.4,0.1,2.5c0.4,1.1,0.1,0.8,0.5,1.8c0.5,1,0.5,1.1,0.6,1.6
		c0.1,0.5-0.3,0.5,0.8,0.9c1.1,0.4,1.8-0.1,1.4,0.6c-0.5,0.7,0.4,1.4-0.9,1c-1.3-0.3-1.7-0.5-2.6-1
		C19.4,434.3,19.6,433.9,19.2,433.4z M30.2,455.3c-1.3-0.9-1.4-1.1-1.6-2.1c-0.2-1,0.3-2.6,0.3-4c0,0,1,4.3,1.7,5.2
		C31.6,455.6,31.8,456.4,30.2,455.3z M32.7,458.7c-0.2-0.7-0.6-2.8-0.7-3.3c-0.1-0.5-0.6-0.7-0.7-1.6c-0.1-0.9-0.6-1.3-0.6-2.1
		c-0.1-0.8-0.8,0-0.9-1.1c-0.1-1.1-0.3-0.6-0.3-2.3c0-1.7-0.1-2.1-0.1-2.1s-0.5-1.3,0.4,0.3c0.9,1.7,0.7,1.6,0.8,2.5
		c0.2,1-0.2,2.2,0.4,1.1c0.6-1,0.9-0.2,0.7-1.5c-0.1-1.3-0.3-1.3-0.4-1.9c-0.1-0.6-0.3-2,0.1-0.7c0.4,1.3,0.5,1,0.7,2
		c0.2,0.9,0.2,0.7,0.2,1.7c-0.1,1-0.3,4.1-0.3,4.1c0.5-1.3-0.1-1.3,0.7-2.2c0.8-0.9,0.6-2.5,0.7-0.3c0.1,2.2-0.1,0.8-0.1,3.5
		c0,2.7-1.1,1.2,0.1,3.4C34.6,460.4,32.9,459.4,32.7,458.7z M35.4,458.2c0.2-1.4,0.4-1.2,0.2-3c-0.2-1.9-0.6-3.4-1.3-5
		c0,0-0.6-1.4-0.2-1c0.3,0.4,1.8,0.9,2.9,2.2c1.1,1.3,1,1.9,0.2,3.3c-0.8,1.4-0.7,1.4-1.5,4.4C35,462.2,35.2,459.6,35.4,458.2z
		 M40.8,463.1c-0.8,0.2-1.6-0.2-2.3-1.6c-0.7-1.4-0.8-2.4-0.5-3.4c0.2-1,0.9-2.4,0.9-2.4s-0.4,3.3,0.5,4.5c1,1.3,1.9,1.1,2.4,1.4
		C42.3,461.8,41.6,462.9,40.8,463.1z M45.1,462.2c1.2,2.3-0.7,1-1.1,0.5c-0.4-0.5-1.7-1.5-3.2-4.5c-1.5-3,0.3-5.3,0.7-5.3
		c0.5,0,0.8,2.4,1.1,2.8c0.3,0.5,1.7,1.4,2.4,2.1C45.7,458.7,44.4,460.8,45.1,462.2z"/>
	<path class="st2" d="M24.6,433.4c0,0,0.8-0.3,1.6-0.3c0.9,0,0.5,0,1.1,0.2c0.6,0.2,0.4,0,1.1,0c0.7,0,0-0.5,0.9,0.2
		c0.9,0.7,1.4,0.7,1.4,0.7s0.9-0.3,0.6-0.6c-0.3-0.3-1-0.9-1.1-1.5c-0.2-0.6-0.1-0.7-0.7-1.7c-0.6-0.9-0.5-1.5-1.4-1.7
		c-1-0.2-0.7-0.5-1.6-0.1c-1,0.5-0.7,0-1.3,1.1c-0.6,1.1-0.9,1.1-0.9,1.9c-0.1,0.7-0.3,1-0.1,1.4C24.3,433.7,24.6,433.4,24.6,433.4z
		"/>
	<path class="st2" d="M45.1,457.9c-0.7-0.7-0.5-0.1-1.4-0.9c-1-0.9-0.9-0.7-1-1.2c-0.1-0.5-0.5-1.6-0.7-1.8
		c-0.2-0.2-0.7-0.5-1.2-0.5c-0.5,0-0.3,0.8-0.3,0.8c-0.1,1.3-1-0.3,0.5,2.7c1.5,3-0.1,1.8,1.2,3.4c1.2,1.7,1.5,2.5,2.2,2.7
		c0.6,0.2,1.4,0.6,0.9-0.9c-0.5-1.5-0.2-0.3-0.1-2.2C45.1,458.1,45.7,458.6,45.1,457.9z"/>
	<ellipse class="st0" cx="43.6" cy="401.6" rx="0.9" ry="0.9"/>
	<ellipse class="st0" cx="46.5" cy="402.4" rx="1.1" ry="1.1"/>
	<ellipse class="st0" cx="43.6" cy="410.1" rx="0.8" ry="0.8"/>
	<g>
		<path class="st1" d="M26.6,421.2c1-0.1,1.4-0.3,1.9-1c0.5-0.7-0.2-1.7,0.9-2.3c1.1-0.6,4.5-2.9,5.1-5.1c0.4-1.6-0.5-3.7-1.6-5.2
			c-1.5-2-5.1-3.1-6.6-3.5c-1.4-0.5-3.1-1-2.9-3.7c0.1-1.7,1.4-3.1,1.9-4.3c0.6-1.5,0.7-2.8,0.7-2.8c-0.6,0.9-3.3,3.6-3.9,5.7
			c-0.3,1.2-0.8,2-0.6,3.5c0.4,2.1,1.1,2.1,2,2.6c1.5,0.8,6,1.5,6.9,3.7c0.4,1,0.8,2,0.7,3.3c-0.2,1.3-0.2,1.3-0.6,2.4
			c-0.4,1-0.5,1.7-1.7,2.5c-1.2,0.7-1,2.5-2,2.6c-1,0.1-2.2,0.9-2.2,0.9S25.7,421.3,26.6,421.2z"/>
		<path class="st1" d="M39.8,407.4c-1.3-0.3-2.3,0.2-2.3,0.2c0.9,0.5,1.9,0.2,2.3,1.1c0.5,1.2,0.6,2.6,0.6,2.6s1.8-0.7,0.6-2.8
			C40.8,407.8,40.3,407.5,39.8,407.4z"/>
		<path class="st1" d="M41.6,401.9c0-1.2-1.3-2.2-1.3-2.2l-0.3,1.8c-0.2,1.5-2.1,2.9-2.1,2.9s2.1-0.6,2.7-1
			C41.1,403,41.6,402.3,41.6,401.9z"/>
		<path class="st1" d="M36.5,407.7c0.2-0.1,0.5-0.2,0.6-0.8c0.1-0.6,1.9-0.2,2.2-0.2c0.5,0.2,0.9-0.3,1.3-0.3c1.7,0,3.9,2,3.9,2
			s-0.8-1.8-1.8-2.4c-0.5-0.3-2.4-0.5-2.4-0.5c1.5-0.2,2.3,0.1,3,0.1c1.2-0.1,1-0.8,1.4-1c0.2-0.1,0.9-0.2,0.9-0.2s-1.2-0.9-1.9-0.9
			c-0.7,0-1.1,0.5-1.5,0.2c-0.6-0.5-1.4,0-2.8,0.7c-1.2,0.7-2.1,0.2-2.7,1c-0.7,0.9-3.5,1.5-3.5,1.5s0.1,1.1,1.8,0.6
			C36.3,407.2,35.7,408.1,36.5,407.7z"/>
		<path class="st1" d="M31.1,421.3c0,0.4,0.3,1,0.8,1c0.4,0,0.8-0.5,0.8-1c0-0.4-0.4-0.8-0.8-0.8C31.4,420.5,31.1,420.9,31.1,421.3z
			"/>
		<path class="st1" d="M32.6,420.3c0.3,0,0.5-0.5,0.5-0.9c0-0.3-0.3-0.6-0.6-0.6c-0.3,0-0.6,0.3-0.6,0.6
			C32,419.7,32.3,420.3,32.6,420.3z"/>
		<path class="st1" d="M34,421.5c0.3,0,0.5-0.6,0.5-0.9c0-0.3-0.3-0.6-0.6-0.6c-0.3,0-0.8,0.3-0.8,0.6C33.1,421,33.6,421.5,34,421.5
			z"/>
		<path class="st1" d="M33.8,423.2c0.3,0,0.6-0.6,0.6-0.9c0-0.3-0.3-0.6-0.6-0.6c-0.3,0-0.8,0.4-0.8,0.7
			C33,422.8,33.5,423.2,33.8,423.2z"/>
		<path class="st1" d="M32.2,422.7c-1,0-0.9,0.6-0.4,1.4c0.2,0.3,0.1,0.1,0.4,0.2c0.3,0,0.7-0.4,0.7-0.7
			C33,423.3,32.5,422.7,32.2,422.7z"/>
		<path class="st1" d="M30.4,422.2c-0.3,0-0.6,0.3-0.6,0.6c0,0.3,0.2,0.6,0.5,0.6c0.3,0,0.9-0.4,0.9-0.7
			C31.2,422.4,30.7,422.2,30.4,422.2z"/>
		<path class="st1" d="M29.4,420.8c0,0.3,0.2,0.9,0.6,0.9c0.3,0,0.7-0.5,0.7-0.9c0-0.3-0.4-0.6-0.7-0.6
			C29.7,420.2,29.4,420.5,29.4,420.8z"/>
		<path class="st1" d="M28.1,421.8c0,0.3,0.2,0.9,0.6,0.9c0.3,0,0.7-0.5,0.7-0.9c0-0.3-0.4-0.6-0.7-0.6
			C28.3,421.2,28.1,421.5,28.1,421.8z"/>
		<path class="st1" d="M31,420.2c0.3,0,0.9-0.6,0.9-0.9c0-0.3-0.6-0.6-0.9-0.6c-0.3,0-0.6,0.3-0.6,0.6
			C30.4,419.7,30.6,420.2,31,420.2z"/>
		<path class="st1" d="M24.3,436.7c1.3,0.3-0.9-1.2-0.5-1.9c0.5-0.7-0.2-0.2-1.4-0.6c-1.1-0.4,0.6-0.8-0.8-2.1
			c-0.8-0.8-0.5-1.2-0.9-2.2c-0.4-1.1,0.3-1.4-0.3-3.7c-0.3-1.3,0.3-1.3,0.6-1.1c0.3,0.1,0.5,0.4,1.8,0.1c0.8-0.2-0.1-2,1.1-2.2
			c1-0.1,0.5-2,0-1.6c-0.1,0.1-0.5,0.3-1.4,0.1c-0.5-0.2-0.6-0.3-0.7-0.5c-0.3-0.3-0.5,0.4-1.1,1.3c-0.6,0.9-0.4,2.2-1.1,2.6
			c-0.4,0.2-0.1,2-0.4,2.5c-0.7,1.1,0.1,3.5,0.7,4.4c0.4,0.6,1.3,2.5,1.3,2.5s-0.9-0.7-1-0.9c-0.1-0.2-1-1-1.1-1.3
			c-0.1-0.3,0.6-2-1.5-3.3c-1.3-0.8-1.3-0.8-1.4-0.2c0,0.2-0.3,0.9,0,2c0.2,0.7,0.4,1,1.1,1.6c0.8,0.7,1.6,0.7,2,1.3
			c0.4,0.6,0.2,1.1,1.1,1.6C21.1,435.5,23,436.3,24.3,436.7z"/>
		<path class="st1" d="M22.6,420.7c0.3,0,0.8,0.2,1.1-0.6c0.3-0.7,0.5-0.4,0.8-1.5c0.1-0.4,0-1.4,0-1.6c0.2-1-0.4-0.3-0.7-0.3
			c-0.4,0,0-2.6-0.5-2.7c-0.3,0-0.5,2-1.1,2.4c-0.2,0.1-1.9-1-2.1-0.7c-0.1,0.2,1.4,2.2,1.6,2.7c0.3,1-0.1,0.8-0.3,1.4
			C21.2,420.4,22.4,420.7,22.6,420.7z"/>
		<path class="st1" d="M26.7,427.6c1,0,1.6,0.3,2.4,0.9c0.8,0.6,0.7,1,1.4,2.2c0.7,1.2,1.3,3.2,2.3,3.8c0.9,0.6,2.5,0,3.1-0.9
			c0.5-0.7,0.3-1.2,0.3-1.2s-1,1-2.1,0.7c-0.7-0.2-1.5-0.6-1.9-1.8c-0.5-1.2-1.1-3.4-1.5-4c-0.4-0.7-1.2-1.9-3.2-1.8
			c-3.6,0.2-4.2,4.9-4.2,4.9S25.1,427.7,26.7,427.6z"/>
		<path class="st1" d="M27.4,436.8c0.4-0.2,1.1-1.5-0.1-2.2c-0.7-0.4-1.3-0.8-1.7-0.5c-0.3,0.3-0.3,1.2,0.3,1.8
			C26.5,436.5,27,437,27.4,436.8z"/>
		<path class="st1" d="M25.2,442.7c0.3,1.5-0.1,2.3,1.4,2.8c0.8,0.3,1.1,0.3,1.4-0.3c0.3-0.5,0.1-1.4-0.4-2.3
			c-0.6-0.9-1.6-2.2-2.8-3.4C24.8,439.6,25.1,442.3,25.2,442.7z"/>
		<path class="st1" d="M31.4,439.5c-0.6,0-1.1,0.3-1.1,0.7c0,0.4,0.5,1,1.1,1c0.6,0,1.1-0.6,1.1-1C32.5,439.8,32,439.5,31.4,439.5z"
			/>
		<path class="st1" d="M29.3,435.9c-0.6,0-1.1,0.3-1.1,0.7c0,0.4,0.5,1,1.1,1c0.6,0,1.1-0.6,1.1-1C30.4,436.3,29.9,435.9,29.3,435.9
			z"/>
		<path class="st1" d="M33.7,438.2c-0.6,0-0.7,0.6-0.7,1.1c0,0.4,0.1,0.8,0.7,0.8c0.6,0,0.7-0.6,1-1.1
			C34.9,438.6,34.4,438.3,33.7,438.2z"/>
		<path class="st1" d="M31.2,434.8c-0.6,0-0.7,0.6-0.7,1.1c0,0.4,0.1,0.8,0.7,0.8c0.6,0,0.7-0.6,1-1.1
			C32.4,435.1,31.8,434.8,31.2,434.8z"/>
		<path class="st1" d="M33.6,435.8c-0.6,0-1,0.6-1,1c0,0.4,0.5,1,1.1,1c0.6,0,0.9-0.9,0.9-1.3C34.5,436,34.2,435.8,33.6,435.8z"/>
		<path class="st1" d="M31.6,437.1c-0.6,0-1,0.6-1,1c0,0.4,0.5,1,1.1,1c0.6,0,0.9-0.9,0.9-1.3C32.5,437.4,32.2,437.1,31.6,437.1z"/>
		<path class="st1" d="M29,438.1c-0.6,0-1,0.6-1,1c0,0.4,0.5,1,1.1,1c0.6,0,0.9-0.9,0.9-1.3C30,438.3,29.6,438.1,29,438.1z"/>
		<path class="st1" d="M29.2,456.3c-0.6-0.8-1.3-2.4-1.3-3.9c0-1.5,0.6-5.4,0.6-5.4l0.7-3.1c0,0-1,2.4-1.3,3.2c-0.8,2-1,2.4-1,3.3
			c-0.1,1.5,0,0.9,0.3,2.9c0.2,2-1.8-3.3-1.8-4.9c0-1.6-2.9-6-2.6-7.1c0.6-2.3-0.6-4.1-3.8-2.8c-1,0.4-1.9,1-1.9,1
			c1.1,0,2.8,0.9,2,1.6c-3,2.7-0.7,3.2-0.7,3.2s0.9-2.5,2.5-1.6c1.9,1.1,2.3,2.4,2.8,3.6c0.5,1.3,0.5,1.6,0.5,1.6s-0.5-0.7-1.2-0.4
			c-1.2,0.5-0.9,2.2-2.2,2.5c-0.3,0.1-1.1,1.1-1.1,2.6c0,1.5,0,2-0.2,3c-0.2,1-0.3,1.8-0.9,1.9c-0.7,0.1-1.4-0.8-1.4-1.8
			c-0.1-1.2,1.1-4.3,0.2-5.5c-0.7-0.9-1.4-1.6-1.9-2.3c-1.1-1.6-1.6-2.7-1.6-2.7s-0.1,1.8,0.3,2.4c0.5,0.6,1.7,1.8,1.9,2.2
			c0.7,1.4,0.3,2.3,0.1,2.7c-0.7,1.6-0.9,3.6-0.4,4.9c0.4,1.1,2.1,3,3.1,2.6c1-0.4,1.6-3.1,1.7-4.7c0.2-2.6,1.3-4.3,2.3-5
			c1-0.7,1.2-1.6,1.8-1c0.2,0.2,0,0,0.4,1.2c0.4,1.2,1.4,4.2,2.1,5.2c0.9,1.3,5.9,6.2,5.9,6.2S29.8,457.1,29.2,456.3z"/>
		<path class="st1" d="M33.6,454.6c-0.5-2.1-0.1-0.7,0.1-3.4c0.1-1.6-0.3-4-0.3-4s-0.2,2.8-0.5,3.5c-0.2,0.4-0.8,1.3-0.8,1.3
			s0.7-3.2,0.6-4.1c-0.2-0.9-0.9-0.9-1.3-2.2c-0.4-1.3,0,1.4,0.1,2c0.1,0.6-0.1,1.3-0.5,2.4c-0.6,1.5,0.3-2-0.6-3.7
			c-0.9-1.7-0.8-2.7-0.8-2.7s-0.9,2.3-0.5,4.2c0.4,1.6,0.5,1.7,0.7,2.9c0.2,1.1,2.1,4.1,2.1,4.6c0,1.5,0.7,2.5,0.9,3.2
			c0.3,1.5,1.9,1.8,0.7-0.6C32.4,456.2,34.3,457.2,33.6,454.6z"/>
		<path class="st1" d="M37.6,460.8c-0.1-0.5-0.4-1.6-0.3-2.2c0.3-2.5,2.1-5.4,2.2-6c0.1-0.6-2.4,2.7-2.8,5c-0.4,2.3-0.2,3.1-0.1,3.5
			c0.1,0.5,0.5,1.8,1.1,2.1c0.4,0.2,0.5,0.3-0.2,0.5c-0.3,0.1-2.7,2.3-2.5,2.6c0.2,0.4,3.1-1.1,3.3-0.9c2.9,3,5.7,0.2,6-0.1
			c0.3-0.3-2-0.6-2.6-0.8c-0.8-0.2-2.1-0.6-3-1.5C38.1,462.6,37.8,461.8,37.6,460.8z"/>
		<path class="st1" d="M53.4,459.8c-0.6,0.9-1.7,3.4-3.1,4.1c-0.6,0.3-1.1,0.1-2.4,1.8c-1.3,1.7,0.2,2.2-1.1,3.2
			c-2.4,1.8,2,1.3,3.2-1.4c0.1-0.3,2.8,2.5,2.6,1.3c-0.3-1.3-2.3-4,1-6.2c3-2,3.9-4.4,4.3-5.6c0.4-1.1-2.2,3.1-3.6,3.5
			C54,460.4,54.6,458.2,53.4,459.8z"/>
		<ellipse class="st1" cx="43.7" cy="401.7" rx="0.3" ry="0.4"/>
		<ellipse class="st1" cx="47.1" cy="402.7" rx="0.3" ry="0.5"/>
		<ellipse class="st1" cx="43.9" cy="410.3" rx="0.3" ry="0.3"/>
	</g>
	
		<rect x="58.8" y="389.3" transform="matrix(1 1.843049e-003 -1.843049e-003 1 0.7611 -0.1141)" class="st2" width="6.9" height="47.2"/>
	
		<rect x="58.9" y="389.1" transform="matrix(1 1.816668e-003 -1.816668e-003 1 0.75 -0.1089)" class="st0" width="2.8" height="47.3"/>
	<rect x="59.6" y="390" class="st3" width="2.1" height="2.4"/>
	<path class="st0" d="M59.9,389.2c0,0-0.4-3.9-1.7-4.9c-1.4-1.1-3.2-1.6-4.7-1.1c-0.6,0.2-0.4,0.1-0.3-1.4c0.1-1.6,1.1-2.2,1.7-2.8
		c0.6-0.5,2.3-2.1,2.7-1.9c0.4,0.1,1,0.8,1,0.8s0.4-0.1,0.1-0.9c-0.4-0.8-0.4-1,0.4-1.9c0.9-1,2.8-3,2.8-3l-0.1,17.2L59.9,389.2z"/>
	<path class="st1" d="M59.7,378.1c0.8,1.1,0.2,1.4,0.6,2.1c0.5,0.8,0.5,3.8,0.8,3.6c0.4-0.4-0.1-3.4-0.2-5c0-0.3-0.7-1-0.7-1
		S58.9,377.1,59.7,378.1z"/>
	<path class="st0" d="M70.8,393.9c1.2,1.3,5.4,2.2,6.3-1.5c0.4-1.5-0.4-3-1.3-4.4c-3.3-4.9-8.2-1.2-8.9-0.3c-0.7,1-1.6,2.4-2.1,4.1
		c-0.4,1.7-0.7,6.1-0.6,9.6c0.1,3.4,0.7,4.9,1,6.4c0.3,1.6,1.6,3.7,3.3,6c1.6,2.3,5.2,5.4,8.7,7.2c0.7,0.4-0.3,11.7-0.7,13.5
		c-0.4,1.8-2.7,6.8-5,6.8c-0.4,0,0.2,2.2-0.7,3.4c-0.6,0.9-1.4,1.4-2.1,1.5c-0.5,0.1-1.9-0.3-1.9-0.3s0.9,0.3,0.6-0.9
		c-0.3-1.2-0.8-1.2-0.8-1.2s1.3,0.1,1.4-0.7c0.1-0.9,0-1-1.6-1.2c-1.6-0.1-0.3,0.1,0.1-0.7c0.4-0.8,0.6-0.7-0.7-0.6
		c-1.3,0.1,1.6-1.3,2.4-1.4c1.9-0.2,2,0.7,2.5,1c0.5,0.2-0.1-1-0.5-1.3c-0.9-0.9-4.1-0.1-4.1-0.1l-1.2,0.5c0,0-0.4,0.4,0-0.4
		c0.4-0.9,1.8-1.1,1.3-1.6c-0.4-0.4-1.1-0.4-1.1-0.4s-0.5,0.4-0.9,0.6c-0.4,0.2-0.1,0.4-0.9,0.1c-0.7-0.3-1.5-0.3-1.5-0.3l0,29
		c0,0,3.9-4.8,4.9-8.2c0.3-1,2.5,2.1,4.8-1.3c1.5-2.2,1.3-3.1,1.3-3.1s5-1,7-3.7c2-2.7,1.5-0.4,4.6-5.2c3.1-4.7,0.3-8.1,1-9.5
		c0.7-1.4,2.9-2.5,2.7-3.4c-0.1-0.9-0.9-1.3-1.7-1.5c-0.8-0.2-1,0.5-1-0.7c0-1.3-0.1-13.8-1.9-14.4c-1.7-0.5-1.7,0.1-3.9-0.2
		c-2.2-0.3-8.9-2.3-10.8-8.4c-2-6.2-1.5-7.4-1.4-10.3c0-1.3,1.2-4.1,1.7-4.7"/>
	<g>
		<path class="st1" d="M61.9,457.7l0-1.7l-1-0.4c-1.1-1-1.3-0.7-1.9-2.2c-0.6-1.5-1-2.5-0.9-1.1c0.1,1.4,0,1.9,0.7,3
			c0.8,1,1,1.6,1.8,2"/>
		<path class="st1" d="M61.8,449.7c-0.7,0.1-1.3,0.6-1.3,0.9c0,0.3-0.2,0.7,0.2,1c0.4,0.3,1.1,0.5,1.1,0.5L61.8,449.7z"/>
		<path class="st1" d="M61.9,440.3c-0.7,0.1-1.5,0.6-1.5,0.9c0,0.3-0.2,0.7,0.2,1c0.4,0.3,1.2,0.4,1.2,0.4L61.9,440.3z"/>
		<path class="st1" d="M62.8,455.6c1.1-1,1.3-0.7,1.9-2.2c0.6-1.5,1-2.5,0.9-1.1c-0.1,1.4,0,1.9-0.7,3c-0.8,1-1,1.6-1.8,2
			c-0.8,0.4-1.2,0.5-1.2,0.5V456L62.8,455.6z"/>
		<path class="st1" d="M61.8,449.7c0.7,0.1,1.3,0.6,1.3,0.9c0,0.3,0.2,0.7-0.2,1c-0.4,0.3-1.1,0.4-1.1,0.4V449.7z"/>
		<path class="st1" d="M61.8,440.3c0.7,0,1.5,0.6,1.5,0.9c0,0.3,0.2,0.7-0.2,1c-0.4,0.3-1.3,0.5-1.3,0.5L61.8,440.3z"/>
	</g>
	<g>
		<path class="st1" d="M70.8,389.7c0,2.3,2.2,1.9,2.6,1.7c0.8-0.4,1.4-1.1,1.4-2c0-1.5-0.6-1.7-1.8-1.7
			C72.1,387.8,70.8,388.8,70.8,389.7z"/>
		<path class="st1" d="M75.4,391.8c-0.4,1.1-2.1,1.3-2.9,1.1c-0.8-0.2-2.6-1.1-2.2-0.5c0.5,0.6,0.6,1.1,2.2,1.7c1.5,0.6,2.9,0,3.4-1
			c0.5-0.9,0.5-1.7,0.6-2.3C76.7,389.5,76,390.1,75.4,391.8z"/>
		<g>
			<path class="st1" d="M68.8,388.5c0.3-1.1-0.8,0.4-1.9,2c-1.3,1.8-2,6.2-2,7.3c0,1.9,0.2,4.3,0.7,6.6c0.6,2.8,1.6,4.7,3,7
				c0.7,1.1,5.4,6.5,11.6,7.6c0.8,0.1,1-0.1,1-0.1s0.2,2.3,0.2,4.6c0,2.2,0.7,9.7-0.4,13.3c-1,3.6-1.6,5.2-2.1,6.1
				c-0.5,0.9-1.4,2.1,0.1,0.7c1.5-1.4,1-0.7,2.2-2.8c1.2-2.1,1.7-3.1,1.9-4.1c0.2-1,0.6-2.9,0.7-0.5c0.1,2.4,0.4,3.2,0.5,3.1
				c0.6-0.8,0.4-2.4,0.1-4c-0.3-1.5,0.5-2,1.1-2.2c0.6-0.2,1.4-0.7,1.4-0.9c0-0.2,0.1-0.3-0.7-0.4c-0.7-0.1-1.5,0-1.8-0.6
				c-0.3-0.6-0.3-1.4-0.3-3.6c0-2.2-0.3-5.8-0.7-7.6c-0.4-1.8,0.4-3.1-0.4-3.5c-0.9-0.4-1.7-0.1-3.3-0.3c-1.6-0.2-2.9-1.4-5.3-2
				c-3.6-0.9-8.1-7.8-8.1-12.8c0-2.2-0.2-6.1,0.1-7.5C67,391.5,68.7,389,68.8,388.5z"/>
			<path class="st1" d="M79.9,424c-0.3,0,0.1,2.8-0.5,4c-0.4,0.8,0.1,1.9-0.2,0.9c-0.4-1-0.9-2.6-1.2-2.1c-0.1,0.1,0.1,1.5,0,2.8
				c-0.1,1.3,0.1,2.4-0.6,4.6c-0.7,2.2-1,4.3-1.9,5.4c-0.9,1.1-1.4,2.4-2.1,3c-0.7,0.6-0.6,1.6-0.6,1.6s0.7,0.3,0.7,1.2
				s-2.5,3.4-0.3,1.9c1.6-1,2-2.8,3.2-4.6c1.3-1.8,1.8-2.3,2.5-3.4c1.8-3,1.6-4.9,1.6-6.5c0-1.6,0.5-1.9,0.3-3.7
				C80.6,427.3,80.6,424.1,79.9,424z"/>
			<path class="st1" d="M83.6,439.3c0.1,0.7,0.2,2.1-0.5,4.2c-1,2.7,0.1,2.2-1.9,3.9c-1.9,1.7-2.6,2.6-1.7,0.8
				c0.9-1.8,1.5-2.5,1.8-3.6C81.6,443.5,83.4,437.9,83.6,439.3z"/>
			<path class="st1" d="M78.4,446.8c-1,2.4-0.8,1.7-2.2,3.1c-1.4,1.3-1.9,2.1-3.7,2.9c-1.9,0.8-5,2.5-3.3,0.8c1.6-1.6,2.3-1,3.5-2.3
				c1.2-1.3,1.3-0.6,2.7-2.4c1.3-1.8,1.9-2.4,2.8-3.2C79,444.9,78.4,446.8,78.4,446.8z"/>
		</g>
	</g>
	<path class="st0" d="M69.5,462.9c3.1,1.1,0.7,4,1.2,5.8c0.1,0.3-0.1,1.3-0.1,1.3l2.8-1.3c0,0,2.7,1.9,3.6,1.9c1,0,1.3-0.7,1.3-0.7
		s-1.1-1-1.2-2.8c-0.1-1.7,2.1,1.9,4.1,0.4c0,0,2.3,0.6,2.9,0c0.5-0.5,1.5-0.8,2.1-0.8c0.6,0,3,0.6,3.1,0c0.1-0.6,0-0.6-0.4-1.8
		c-0.4-1.1,0.5,0.5,2.9-0.7c2-1,0.7-1.3,2.4-1.5c1.6-0.2,2.9,0.8,2.7,1.7c-0.1,0.5-0.8,1.5-1.3,1.9c-0.7,0.5-2.6,1.9-2.6,1.9
		s2.2-0.3,3.4-0.8c1.1-0.4,2-1.1,2.6-2.3c1.4-3-0.6-4-1.4-4.6c-0.7-0.5-1.9-0.6-3.3-0.9c-1.4-0.3,2.4-1.9,3.5-5.1
		c0.3-0.8,1.4-3.7,1.4-3.7s0.6-0.5,0.9,0c0.3,0.5,0.9,0.6,1.9,4.9c0.9,3.8,1.6,4.6,1.9,4.8c0.3,0.1,0.9,1.5,3.1-0.2
		c2.2-1.7,1.9-2.7,1.9-4c0-1.3-1.2-3.9-1.1-4.5c0.1-0.6-0.3-1.5,0.6-2.3c0.8-0.8,1.9-1.8,1.9-2.9c0-1.1-0.2-2.7-0.2-2.7
		s-1.1,1.6-1.4,2.1c-0.4,0.6-0.8,1.3-1.9,2.5c-1,1.1-1.3,1.6-1.3,2.3c0,0.7,0,0.6,0.1,1.9c0.1,1.3,0.5,2,0.1,2.9
		c-0.4,0.9-0.9,1.4-1,0.4c-0.1-1-0.1-2.8-0.4-4.4c-0.2-1.6-0.6-2.5-1.2-3.1c-0.6-0.5-3-1.4-2.5-2.6c0.5-1.2,1.9-2.5,3.3-2
		c0.3,0.1,0.5,0.4,0.7,1c0.2,0.6-0.2,0.5,0.7-0.1c0.7-0.4,1.2-0.5,1.1-1.8c0-0.6-1.1-1.4-1.1-1.4s1.6-1.5,1.6-1.9
		c0-0.4-2.1-1.9-3.6-2.1c-0.3,0,0.5-2.4,1.8-3.7c2.8-2.8,2.5-3.7,2.5-5.5c0-1.7-1.4-0.6-1.9-0.7c-0.9-0.2-1.4-1.3-1.3-2.3
		c0.2-2.4-0.6-1.2-1.7-6.2c-0.3-1.5,0.7-2.5,1-3.4c0.3-0.9-0.4-0.7-0.7-0.7c-0.2,0-1.4,0.8-1.9,0.5c-0.6-0.4-0.4-2.5-1-2.8
		c-0.5-0.3-1.1,0.4-1.1,0.4s-2.4-3.7-4.6-4.7c-0.8-0.4,3.9-2.1,3.9-2.1s2.8-1.1,3.5-2.5c0.7-1.3,0.9-1.7,0.2-4.6
		c-0.7-2.8-5.4-7.7-5.4-7.7s0.3,1.4,0.4,2.4c0.2,1.3,0.3,2,0.6,2.5c0.6,1,1.2,1.8,1.5,3c0.4,1.6,0.6,2.3-1.6,3.3
		c-2.1,1-5.9,2.3-5.9,2.3l-1.7,1c0,0-5.3-2.3-5.7-3.3c-0.4-1-0.7-1-0.7-2.3c-0.1-1.3-0.3-1.9-0.3-1.9s-1.6,1.5-2,2.3
		c-0.4,0.8-0.4,1.5-0.4,1.5s-0.3-0.2-1.3,0.1c-1,0.3-0.8,0.3-1.7,0.8c-0.6,0.3-0.9,0.5-0.9,0.5s0.1,0.2,0.2,0.5
		c0.4,0.7,0.8,1.1,1.6,1.6c0.7,0.4,0.8,0.1,0.2,0.8c-0.6,0.7-1,1.7-1,1.7s1.4,0.2,1.7,0.2c0.6,0,1.5-0.8,1.3-0.5
		c0,0.1-0.1,0.7-0.1,1.1c0.1,1,0.3,1.4,0.6,1.6c1.3,0.9,2.2,0.8,2.2,0.8s-0.7-0.6,0.1-1.9c0.7-1.3,1.4-1.8,2.4-1.8
		c1,0,1.3,0.1,1.6,0.1c0.3,0.1,0.7,0.2,0.7,0.2s-0.3,0.7-0.5,1.2c-0.2,0.5-1,2.2-0.6,3.4c0.6,1.7,1.1,2.2,4.3,3.9
		c4.4,2.3,0.7,0.4,0.2,1c-0.2,0.2-1.3-0.1-1.8,0.1c-0.4,0.2-0.1,1-0.6,1.2c-0.5,0.1-1.2,0-1.1,0.5c0.1,0.6-0.5,0.8,0,1.5
		c0.3,0.5-0.2,1.1-0.1,1.6c0.1,0.5,0.6,0.6,0.7,0.8c0.7,0.7,0,1,0.7,1.2c0.7,0.1,0.5-0.4,1.2-0.2c0.7,0.2,0.9,0.5,1.5,0.1
		c0.5-0.4,0.4-0.2,1-0.3c0.6-0.1,1-0.7,1-1c0-0.3,0.2-0.4,0.5-0.5c0.3-0.1,0.7-0.3,0.7-0.5c0-0.2,1.9-0.8,2.2-0.1
		c0.3,0.7,0.2,1,1.1,1.5c1.4,0.9,0,1.5,1.6,1.9c0.5,0.1,1,0.2,1.4,1.3c0.7,1.9-0.5,4.8-0.5,4.8s-0.5-1-0.9-2.9
		c-0.4-1.9-1.7-3-2.6-3.4c-3.1-1.6-6,0-6.6,1.9c-0.5,1.4,0.3,2.7-1.7,4.8c-0.5,0.5-1,0.5-1.7,0.3c-0.7-0.1-1.3-1.1-1.3-0.1
		c0,1,0,1.8,1.1,2.4c1.1,0.6,0.5,2.1,0.3,2.7c-0.1,0.6-0.9,1.3-0.2,1.7c0.7,0.5,0.1,1.9,1.3,1.8c0.6-0.1,0.4-0.6,1.1,0.3
		c0.7,0.9,1.5,1.4,2,0.9c0.6-0.6,1.4-0.5,0.9,0.5c-0.5,1.1-0.1,1.2-0.1,1.6c0,0.4-0.5,0.7-1.8,0.7c-2.7-0.1-4.7,1.7-5.6,3.3
		c-0.9,1.6-1.8,2.5-1.8,2.5s-0.4-1-1.3-1c-1,0-1.1,0.3-1.3,0.6c-0.2,0.3-1.4,2.2-1.6,2.5c-0.2,0.3-1.7,0.7-1.4,0
		c0.4-1.3-1.1-4.5-1.1-3.6c0,0.9-2,1.6-2,2.9c0,1.3,0.5,2.3,1.1,2.2c1-0.2,2,0.7,2,1.2c0.2,0.9-3.2,1.8-3.8,2.8
		c-0.5,0.8-0.2,3.6-1.4,3.7c-1.2,0.1-4.3-5.5-4.3-3.7c0.1,3.1-2.6-2.2-3.2-2.8c-0.6-0.6-0.1-1-0.4-0.4
		C64.3,457.1,68.5,462.6,69.5,462.9z M90.5,420.7c0,0.3-0.3,0.6-0.6,0.6c-0.3,0-0.6-0.3-0.6-0.6c0-0.3,0.3-0.6,0.6-0.6
		C90.2,420.1,90.5,420.4,90.5,420.7z M90.5,422.4c0,0.3-0.3,0.6-0.6,0.6c-0.3,0-0.6-0.3-0.6-0.6c0-0.3,0.3-0.6,0.6-0.6
		C90.3,421.8,90.5,422.1,90.5,422.4z M92.8,422.8c0-0.3,0.3-0.6,0.6-0.6c0.3,0,0.6,0.3,0.6,0.6c0,0.3-0.3,0.6-0.6,0.6
		C93,423.4,92.8,423.1,92.8,422.8z M91,423.5c0-0.3,0.3-0.6,0.6-0.6c0.3,0,0.6,0.3,0.6,0.6c0,0.3-0.3,0.6-0.6,0.6
		C91.2,424.1,91,423.8,91,423.5z M91.8,419.5c0,0.3-0.3,0.6-0.6,0.6c-0.3,0-0.6-0.3-0.6-0.6c0-0.3,0.3-0.6,0.6-0.6
		C91.5,418.9,91.8,419.2,91.8,419.5z M92.7,421.4c0,0.4-0.4,0.8-0.8,0.8c-0.4,0-0.8-0.4-0.8-0.8c0-0.4,0.4-0.8,0.8-0.8
		C92.3,420.6,92.7,421,92.7,421.4z M93.4,419.4c0,0.3-0.3,0.6-0.6,0.6c-0.3,0-0.6-0.3-0.6-0.6c0-0.3,0.3-0.6,0.6-0.6
		C93.1,418.8,93.4,419.1,93.4,419.4z M94.3,420.8c0,0.3-0.3,0.6-0.6,0.6c-0.3,0-0.6-0.3-0.6-0.6c0-0.3,0.3-0.6,0.6-0.6
		C94.1,420.3,94.3,420.5,94.3,420.8z M85,403.9c0,0-1.4-0.2-1.9-0.6c-0.6-0.4-0.6-0.8-0.5-1.1c0.2-0.3,0.2-1.2,0.6-1.1
		c0.5,0.1,0.4,1.1,0.4,1.1c0,0.3-0.1,0.1,0.4,0.7C84.5,403.3,85,403.9,85,403.9z M89.7,407.1H89l-0.9,0.4l-0.3,0.1
		c0,0-0.1-0.1-0.2-0.7c-0.1-0.6-0.6-0.6-1-0.6c-0.5,0-1,0-1.3,0c-0.3,0-1.2,0.5-1.5,0.3c-0.3-0.2-1.1-0.5-1.1-0.5l1-0.2l0.9-0.3
		c-1.4-0.5-3.4-0.8-3.4-0.8l-1.1-0.2l-0.5-0.2c0,0,1.1-0.5,1.8-0.5c0.7,0,0.6-0.4,1.1-0.2c0.5,0.2,0.7,0.7,1.6,0.9
		c0.9,0.2,0.6,0.5,1.6,0.6c1.1,0.2,0.9,0.3,1.8,0.7C88.7,406.4,89.7,407.1,89.7,407.1z M98.9,415.5c-0.3,0.7-0.3,0.9-0.4,2.1
		c-0.1,1.3,0.6,2.1,0.6,2.1s-1.4-1.5-1.9-1.8c-0.5-0.3-0.6-0.5-1.5-1.5c-0.9-1-1.8-2.4-2-3.6c-0.1-1,0.6-2,0.7-3.7
		c0,0,2,1.6,2.7,2.8C98.2,413.9,99.8,413.4,98.9,415.5z M99,420.3c0,0-1.1,0.8-2,0.7c-1-0.1-1-0.2-1.5-0.9c-0.5-0.7,0.2-1.8-0.9-2.4
		c-1.1-0.6-1.3-0.5-2.2-1.8c-1-1.4-1.4-2.1-1.8-3.7c-0.4-1.6-0.9-3,0.3-4.4c1.2-1.4,2.1-1.8,2.5-2.1c0.2-0.1,1.9-0.6,2.1-0.7
		c0.3-0.1,0.4-0.3,1.9-0.7c1.5-0.5,1.9-1.1,2.4-1.5c0.5-0.4,0.8-1.3,0.8-2.7c0-1.3-2-5.2-2-5.2c0.6,0.9,2,2.8,2.9,4.4
		c0.6,1,0.8,1.9,0.6,3.4c-0.4,2.1-1.1,2-2,2.5c-0.9,0.5-3.9,1.1-4.3,1.4c-0.3,0.2-2.2,1.4-2.6,2.4c-0.4,1-0.7,2-0.6,3.4
		c0.2,1.3,0.2,1.3,0.6,2.4c0.4,1,0.5,1.7,1.7,2.5c1.2,0.7,1,2.5,2,2.6C98,419.8,99,420.3,99,420.3z M91.3,440.3
		c0-0.4,0.5-0.7,1.1-0.7c0.6,0,1.1,0.3,1.1,0.7c0,0.4-0.5,0.7-1.1,0.7C91.8,441,91.3,440.7,91.3,440.3z M99.7,428.8
		c0,0-0.2-0.3-0.7-0.7c-0.5-0.3-1-0.5-2-0.6c-1-0.1-1.4,0.1-2.2,0.7c-0.8,0.6-0.9,1.4-1.6,2.6c-0.7,1.2-0.8,1.5-1.3,2.4
		c-0.5,1-0.6,1.1-1.5,1.3c-0.9,0.2-1.1-0.1-2-0.9c-1-0.7-0.2-0.4-0.2-0.4s0.9,0.1,1.6-0.1c0.7-0.2,1.2-0.1,1.9-1.1
		c0.7-1,0.5-1.4,0.7-2.5c0.2-1.1,0.4-1.4,0.8-2.1c0.4-0.7,0.3-0.7,0.8-1.3c0.5-0.6,1.4-0.6,2.1-0.4c1.6,0.4,1.2,0.3,2.3,0.9
		C99.3,427.1,99.7,428.8,99.7,428.8z M99.6,433.4c-0.2,0.5-1.3-0.2-2.2-0.2c-0.9,0-0.5,0-1.1,0.2c-0.6,0.2-1.1-0.5-2,0.2
		c-0.9,0.7-2.3,0.5-2,0.1c0.3-0.3,1.2-2.2,1.8-3.2c0.6-0.9,2.1-2.2,3.1-1.7c1,0.5,2.2,2.3,2.2,3C99.6,432.7,99.8,432.9,99.6,433.4z
		 M98.5,441.2c0,0-0.3,1.2-0.3,1.7c-0.1,0.5-0.5,1.5-1.2,2.1c-0.6,0.5-0.9,0.7-1.2,0.2c-0.3-0.5,0.3-0.9,0.9-1.8
		C97.1,442.4,97.3,442.4,98.5,441.2z M97.6,435.9c-0.6,0.6-1.3,0.8-1.7,0.5c-0.3-0.3-0.1-1.1,0.5-1.7c0.6-0.6,1.3-0.8,1.7-0.5
		C98.5,434.5,98.2,435.3,97.6,435.9z M101.1,420.6c-0.3,0-0.7,0.2-1-0.5c-0.3-0.7-0.3-0.7-0.6-1.8c-0.1-0.4-0.1-0.6-0.1-0.6
		s0.2,0.2,0.5,0.2c0.4,0,1-1.6,1-1.6l0.5,0.9c0,0,0.3,0.5-0.1,1.5c-0.3,1,0,0.6,0.2,1.1C101.7,420.4,101.4,420.6,101.1,420.6z
		 M103.4,434.8c-0.9,0.5-1.2,0.7-2.6,1c-1.3,0.3-0.5-0.3-0.9-1c-0.5-0.7,0.2-0.2,1.4-0.6c1.1-0.4,0.7-0.5,0.8-0.9
		c0.1-0.5,0.2-0.5,0.6-1.5c0.5-1,0.1-0.7,0.5-1.8c0.4-1.1,0.1-1.3,0.1-2.5c0-1.2,0.1-0.8,0.1-2.1c-0.1-1.3-0.3-0.6-0.7-0.6
		c-0.3,0-0.8-0.3-1.6-1.1c-0.6-0.6-0.3-0.4-0.7-1.3c-0.5-0.9-0.7-1.7-0.5-1c0.1,0.2,0.4,0.3,1.4,0.1c1-0.2,0.7-0.5,0.7-0.5
		s0.5,0.4,1.1,1.3c0.6,0.9,0.5,1.9,0.6,2.2c0.2,0.3,0.6,1.6,0.7,2.2c0.1,1.3-0.7,5.1-0.7,5.1l-1.1,2.5c0,0,0.9-0.7,1-0.9
		c0.1-0.2,1-1,1.1-1.3c0.1-0.3-0.3-1.1,0.4-1.9c0.8-1,0.2-0.5,1.3-1.3c1.1-0.8,0.7-0.3,0.7-0.1c0,0.2,0.3,0.7,0,1.8
		c-0.3,1.1-0.1,0.6-0.7,1.5c-0.6,0.9-0.4,0.4-1.1,0.7c-0.7,0.3-0.2,0.1-0.6,0.7C104.2,434,104.3,434.3,103.4,434.8z M93.1,454.4
		c0.7-0.8,1.7-5.2,1.7-5.2c0,1.3,0.4,2.9,0.3,4c-0.2,1-0.3,1.2-1.6,2.1C91.9,456.4,92.1,455.6,93.1,454.4z M90.3,458.1
		c1.2-2.2,0.1-0.7,0.1-3.4c0-2.7-0.1-1.3-0.1-3.5c0.1-2.2-0.1-0.6,0.7,0.3c0.8,0.9,0.2,0.9,0.7,2.2c0,0-0.3-3.1-0.3-4.1
		c-0.1-1,0-0.7,0.2-1.7c0.2-0.9,0.3-0.7,0.7-2c0.4-1.3,0.2,0.1,0.1,0.7c-0.1,0.6-0.3,0.6-0.4,1.9c-0.1,1.3,0.1,0.5,0.7,1.5
		c0.6,1,0.2-0.2,0.4-1.1c0.2-1-0.1-0.9,0.9-2.5c0.9-1.7,0.4-0.3,0.4-0.3s-0.1,0.5-0.1,2.1c0,1.7-0.3,1.2-0.3,2.3
		c-0.1,1.1-0.8,0.3-0.9,1.1c-0.1,0.8-0.5,1.2-0.6,2.1c-0.1,0.9-0.7,1.1-0.7,1.6c-0.1,0.5-0.5,2.6-0.7,3.3
		C90.8,459.5,89.1,460.4,90.3,458.1z M88,459.2c-0.7-3-0.7-3-1.4-4.4c-0.8-1.4-0.9-2,0.2-3.3c1.1-1.3,2.6-1.8,2.9-2.2
		c0.3-0.4-0.2,1-0.2,1c-0.7,1.5-1.1,3.1-1.3,5c-0.2,1.9,0,1.6,0.2,3.1C88.5,459.6,88.7,462.2,88,459.2z M81.8,461.6
		c0.5-0.2,1.4-0.1,2.4-1.4c1-1.3,0.5-4.5,0.5-4.5s0.7,1.4,0.9,2.4c0.2,1,0.1,2-0.6,3.4c-0.7,1.4-1.5,1.8-2.3,1.6
		C82.1,462.9,81.4,461.8,81.8,461.6z M78.6,457.9c0.7-0.7,2.1-1.7,2.4-2.1c0.3-0.4,0.7-2.8,1.1-2.8c0.5,0,2.2,2.3,0.7,5.3
		c-1.5,3-2.8,3.9-3.2,4.5c-0.4,0.5-2.3,1.8-1.1-0.5C79.3,460.8,78,458.7,78.6,457.9z"/>
	<path class="st2" d="M99.1,433.4c0,0-0.8-0.3-1.6-0.3c-0.9,0-0.5,0-1.1,0.2c-0.6,0.2-0.4,0-1.1,0c-0.7,0,0-0.5-0.9,0.2
		c-0.9,0.7-1.4,0.7-1.4,0.7s-0.9-0.3-0.6-0.6c0.3-0.3,1-0.9,1.1-1.5c0.2-0.6,0.1-0.7,0.7-1.7c0.6-0.9,0.5-1.5,1.4-1.7
		c1-0.2,0.7-0.5,1.6-0.1c1,0.5,0.7,0,1.3,1.1c0.6,1.1,0.9,1.1,0.9,1.9c0.1,0.7,0.3,1,0.1,1.4C99.4,433.8,99.1,433.4,99.1,433.4z"/>
	<path class="st2" d="M78.6,457.9c0.7-0.7,0.5-0.1,1.4-0.9c1-0.9,0.9-0.7,1-1.2c0.1-0.5,0.5-1.5,0.7-1.8c0.2-0.2,0.7-0.5,1.2-0.5
		c0.5,0,0.3,0.8,0.3,0.8c0.1,1.3,1-0.3-0.5,2.7c-1.5,3,0.1,1.8-1.2,3.4c-1.2,1.7-1.5,2.5-2.2,2.7c-0.6,0.2-1.4,0.6-0.9-0.9
		c0.5-1.5,0.2-0.3,0.1-2.2C78.6,458.1,78,458.6,78.6,457.9z"/>
	<ellipse class="st0" cx="80.2" cy="401.5" rx="0.9" ry="0.9"/>
	<ellipse class="st0" cx="77.3" cy="402.4" rx="1.1" ry="1.1"/>
	<ellipse class="st0" cx="80.1" cy="410.1" rx="0.8" ry="0.8"/>
	<g>
		<path class="st1" d="M97.1,421.2c-1-0.1-1.4-0.3-1.9-1c-0.5-0.7,0.2-1.7-0.9-2.3c-1.1-0.6-4.5-2.9-5.1-5.1
			c-0.4-1.6,0.5-3.7,1.6-5.1c1.5-2,5.1-3,6.6-3.5c1.4-0.5,3.1-1,2.9-3.7c-0.1-1.7-1.4-3.2-1.9-4.3c-0.6-1.5-0.7-2.8-0.7-2.8
			c0.6,0.9,3.3,3.6,3.9,5.7c0.3,1.2,0.8,2,0.6,3.5c-0.4,2.1-1.1,2.1-2,2.6c-1.5,0.8-6,1.5-6.9,3.6c-0.4,1-0.8,2-0.7,3.3
			c0.1,1.3,0.1,1.3,0.6,2.4c0.4,1,0.5,1.7,1.7,2.5c1.2,0.7,1,2.5,2,2.6c1,0.1,2.2,0.9,2.2,0.9S98.1,421.3,97.1,421.2z"/>
		<path class="st1" d="M84,407.4c1.3-0.3,2.3,0.2,2.3,0.2c-0.9,0.5-1.9,0.1-2.3,1c-0.5,1.2-0.6,2.6-0.6,2.6s-1.8-0.8-0.6-2.8
			C83,407.8,83.5,407.5,84,407.4z"/>
		<path class="st1" d="M82.2,401.9c0-1.2,1.3-2.2,1.3-2.2l0.3,1.8c0.2,1.5,2.1,2.9,2.1,2.9s-2.1-0.6-2.7-1
			C82.7,403,82.2,402.3,82.2,401.9z"/>
		<path class="st1" d="M87.2,407.7c-0.2-0.1-0.5-0.2-0.6-0.8c-0.1-0.6-1.9-0.2-2.2-0.2c-0.5,0.2-0.9-0.3-1.3-0.3c-1.7,0-3.9,2-3.9,2
			s0.8-1.8,1.9-2.4c0.5-0.3,2.4-0.5,2.4-0.5c-1.5-0.2-2.3,0.1-3,0c-1.2-0.1-1-0.8-1.4-1c-0.2-0.1-0.9-0.2-0.9-0.2s1.2-0.9,1.9-0.9
			c0.7,0,1,0.5,1.5,0.2c0.6-0.5,1.4,0,2.8,0.7c1.2,0.7,2.1,0.2,2.7,1c0.7,0.9,3.5,1.5,3.5,1.5s-0.1,1.1-1.8,0.6
			C87.5,407.2,88.1,408.1,87.2,407.7z"/>
		<path class="st1" d="M92.7,421.4c0,0.4-0.3,1-0.8,1c-0.4,0-0.8-0.5-0.8-1c0-0.4,0.4-0.8,0.8-0.8C92.3,420.6,92.7,420.9,92.7,421.4
			z"/>
		<path class="st1" d="M91.2,420.3c-0.3,0-0.5-0.5-0.5-0.9c0-0.3,0.3-0.6,0.6-0.6c0.3,0,0.6,0.3,0.6,0.6
			C91.8,419.7,91.5,420.3,91.2,420.3z"/>
		<path class="st1" d="M89.8,421.5c-0.3,0-0.5-0.6-0.5-0.9c0-0.3,0.3-0.6,0.6-0.6c0.3,0,0.8,0.3,0.8,0.6
			C90.7,421,90.1,421.5,89.8,421.5z"/>
		<path class="st1" d="M90,423.2c-0.3,0-0.6-0.6-0.6-0.9s0.3-0.6,0.6-0.6c0.3,0,0.8,0.4,0.8,0.7C90.7,422.8,90.3,423.2,90,423.2z"/>
		<path class="st1" d="M91.6,422.7c1,0,0.9,0.6,0.4,1.4c-0.2,0.3-0.1,0.1-0.4,0.1c-0.3,0-0.7-0.4-0.7-0.7S91.2,422.7,91.6,422.7z"/>
		<path class="st1" d="M93.4,422.2c0.3,0,0.6,0.3,0.6,0.6c0,0.3-0.2,0.6-0.5,0.6c-0.3,0-0.9-0.4-0.9-0.7
			C92.6,422.4,93,422.2,93.4,422.2z"/>
		<path class="st1" d="M94.3,420.8c0,0.3-0.2,0.9-0.6,0.9c-0.3,0-0.7-0.5-0.7-0.9c0-0.3,0.4-0.6,0.7-0.6
			C94.1,420.2,94.3,420.5,94.3,420.8z"/>
		<path class="st1" d="M95.7,421.8c0,0.3-0.2,0.9-0.6,0.9c-0.3,0-0.7-0.5-0.7-0.9c0-0.3,0.4-0.6,0.7-0.6
			C95.4,421.3,95.7,421.5,95.7,421.8z"/>
		<path class="st1" d="M92.8,420.2c-0.3,0-0.9-0.6-0.9-0.9c0-0.3,0.6-0.6,0.9-0.6c0.3,0,0.6,0.3,0.6,0.6
			C93.4,419.7,93.1,420.2,92.8,420.2z"/>
		<path class="st1" d="M99.5,436.7c-1.3,0.3,0.9-1.2,0.5-1.9c-0.5-0.7,0.2-0.2,1.4-0.6c1.1-0.4-0.6-0.8,0.8-2.1
			c0.8-0.7,0.5-1.2,0.9-2.2c0.4-1.1-0.3-1.4,0.3-3.7c0.3-1.3-0.3-1.3-0.6-1.1c-0.3,0.1-0.5,0.4-1.8,0.1c-0.8-0.2,0.1-2-1.1-2.2
			c-1-0.1-0.5-2,0-1.6c0.1,0.1,0.5,0.3,1.4,0.1c0.5-0.2,0.6-0.3,0.7-0.5c0.3-0.3,0.5,0.4,1.1,1.3c0.6,0.9,0.4,2.2,1.1,2.6
			c0.4,0.2,0.1,2,0.4,2.5c0.7,1.1-0.1,3.5-0.8,4.4c-0.4,0.6-1.3,2.5-1.3,2.5s0.9-0.7,1-0.9c0.1-0.2,1-1,1.1-1.3
			c0.1-0.3-0.6-2,1.5-3.3c1.3-0.8,1.3-0.8,1.4-0.2c0,0.2,0.3,0.9,0,2c-0.2,0.7-0.4,1-1.1,1.6c-0.8,0.7-1.6,0.7-2,1.3
			c-0.4,0.6-0.2,1.1-1.1,1.6C102.6,435.5,100.8,436.3,99.5,436.7z"/>
		<path class="st1" d="M101.1,420.7c-0.3,0-0.8,0.2-1.1-0.6c-0.3-0.7-0.5-0.4-0.8-1.5c-0.1-0.4,0-1.4,0-1.6c-0.2-1,0.4-0.3,0.7-0.3
			c0.4,0,0-2.6,0.5-2.7c0.3,0,0.5,2,1.1,2.4c0.2,0.1,1.9-1,2.1-0.7c0.1,0.2-1.4,2.1-1.6,2.7c-0.3,1,0.1,0.8,0.3,1.4
			C102.6,420.4,101.4,420.7,101.1,420.7z"/>
		<path class="st1" d="M97.1,427.6c-1,0-1.6,0.3-2.4,0.9c-0.8,0.6-0.7,1-1.5,2.2c-0.7,1.2-1.3,3.1-2.3,3.8c-0.9,0.6-2.5,0-3.1-0.9
			c-0.5-0.7-0.3-1.2-0.3-1.2s1,1,2.1,0.7c0.7-0.2,1.5-0.6,1.9-1.8c0.5-1.2,1.1-3.4,1.5-4c0.4-0.7,1.2-1.9,3.2-1.8
			c3.6,0.2,4.2,4.9,4.2,4.9S98.7,427.7,97.1,427.6z"/>
		<path class="st1" d="M96.3,436.8c-0.4-0.2-1.1-1.5,0.1-2.2c0.7-0.4,1.3-0.8,1.7-0.5c0.3,0.3,0.3,1.2-0.3,1.8
			C97.2,436.5,96.7,437,96.3,436.8z"/>
		<path class="st1" d="M98.5,442.8c-0.3,1.5,0.1,2.3-1.4,2.8c-0.8,0.3-1.1,0.3-1.4-0.3c-0.3-0.5-0.1-1.4,0.4-2.3
			c0.6-0.9,1.6-2.2,2.8-3.4C98.9,439.6,98.6,442.3,98.5,442.8z"/>
		<path class="st1" d="M92.4,439.5c0.6,0,1.1,0.3,1.1,0.7c0,0.4-0.5,1-1.1,1c-0.6,0-1.1-0.6-1.1-1C91.3,439.8,91.8,439.5,92.4,439.5
			z"/>
		<path class="st1" d="M94.4,435.9c0.6,0,1.1,0.3,1.1,0.7c0,0.4-0.5,1-1.1,1c-0.6,0-1.1-0.6-1.1-1C93.3,436.3,93.8,435.9,94.4,435.9
			z"/>
		<path class="st1" d="M90,438.3c0.6,0,0.7,0.6,0.7,1.1c0,0.4-0.1,0.8-0.7,0.8c-0.6,0-0.7-0.6-1-1.1C88.9,438.6,89.4,438.3,90,438.3
			z"/>
		<path class="st1" d="M92.5,434.8c0.6,0,0.7,0.6,0.7,1.1s-0.1,0.8-0.7,0.8c-0.6,0-0.7-0.6-1-1.1C91.4,435.1,91.9,434.8,92.5,434.8z
			"/>
		<path class="st1" d="M90.2,435.8c0.6,0,1,0.6,1,1c0,0.4-0.5,1-1.1,1c-0.6,0-0.9-0.9-0.9-1.3C89.2,436.1,89.6,435.8,90.2,435.8z"/>
		<path class="st1" d="M92.2,437.1c0.6,0,1,0.6,1,1c0,0.4-0.5,1-1.1,1c-0.6,0-0.9-0.9-0.9-1.3C91.2,437.4,91.6,437.1,92.2,437.1z"/>
		<path class="st1" d="M94.7,438.1c0.6,0,1,0.6,1,1c0,0.4-0.5,1-1.1,1c-0.6,0-0.9-0.9-0.9-1.3C93.8,438.3,94.1,438.1,94.7,438.1z"/>
		<path class="st1" d="M94.5,456.3c0.6-0.8,1.3-2.4,1.3-3.9c0-1.5-0.6-5.4-0.6-5.4l-0.6-3.1c0,0,1,2.4,1.3,3.2c0.8,2,1,2.4,1,3.3
			c0.1,1.5,0,0.9-0.3,2.9c-0.2,2,1.8-3.3,1.8-4.9c0-1.6,2.9-6,2.6-7.1c-0.6-2.3,0.6-4.1,3.8-2.8c1,0.4,1.9,1,1.9,1
			c-1.1,0-2.9,0.9-2,1.6c3,2.7,0.7,3.2,0.7,3.2s-0.9-2.5-2.5-1.6c-1.9,1.1-2.3,2.3-2.8,3.6c-0.5,1.3-0.5,1.5-0.5,1.5
			s0.5-0.7,1.2-0.4c1.2,0.5,0.9,2.2,2.2,2.5c0.3,0.1,1.1,1.1,1.1,2.6c0,1.5,0,2,0.2,3c0.2,1,0.3,1.8,0.9,1.9
			c0.7,0.1,1.4-0.8,1.4-1.8c0.1-1.2-1.1-4.3-0.2-5.5c0.7-0.9,1.4-1.6,1.9-2.3c1.1-1.6,1.6-2.7,1.6-2.7s0.1,1.8-0.3,2.4
			c-0.5,0.6-1.7,1.8-1.9,2.2c-0.7,1.4-0.3,2.3-0.1,2.7c0.7,1.6,0.9,3.6,0.4,4.9c-0.4,1.1-2.1,3-3.1,2.6c-1-0.4-1.6-3.1-1.7-4.7
			c-0.2-2.7-1.2-4.3-2.3-5c-1-0.7-1.2-1.6-1.8-1c-0.2,0.2,0,0-0.4,1.2c-0.4,1.2-1.4,4.2-2.1,5.2c-0.9,1.3-5.9,6.1-5.9,6.1
			S93.9,457.1,94.5,456.3z"/>
		<path class="st1" d="M90.1,454.6c0.5-2.1,0.1-0.7-0.1-3.4c-0.1-1.6,0.3-4,0.3-4s0.2,2.8,0.5,3.5c0.2,0.4,0.8,1.3,0.8,1.3
			s-0.7-3.2-0.6-4.1c0.2-0.9,0.9-0.9,1.3-2.2c0.4-1.3,0,1.4-0.1,2c-0.1,0.6,0.1,1.3,0.5,2.4c0.6,1.5-0.3-2,0.6-3.7
			c0.9-1.7,0.9-2.7,0.9-2.7s0.9,2.3,0.5,4.2c-0.4,1.6-0.5,1.7-0.7,2.9c-0.2,1.1-2.1,4.1-2.1,4.6c0,1.5-0.7,2.5-0.9,3.2
			c-0.3,1.5-1.9,1.8-0.7-0.6C91.3,456.2,89.4,457.3,90.1,454.6z"/>
		<path class="st1" d="M86.1,460.8c0.1-0.5,0.4-1.6,0.3-2.2c-0.3-2.5-2.1-5.4-2.2-6c-0.1-0.6,2.4,2.7,2.8,5c0.4,2.3,0.2,3.1,0.1,3.5
			c-0.1,0.5-0.5,1.8-1.1,2.1c-0.4,0.2-0.5,0.3,0.2,0.5c0.3,0.1,2.7,2.3,2.5,2.6c-0.2,0.3-3.1-1.1-3.3-0.9c-2.9,3-5.7,0.2-6-0.1
			c-0.3-0.3,2-0.6,2.6-0.7c0.8-0.2,2.1-0.6,3-1.5C85.6,462.6,85.9,461.8,86.1,460.8z"/>
		<path class="st1" d="M70.3,459.8c0.6,0.9,1.7,3.4,3.1,4.1c0.6,0.3,1.1,0.1,2.4,1.8c1.3,1.7-0.2,2.2,1.1,3.2c2.4,1.8-2,1.3-3.1-1.4
			c-0.1-0.3-2.8,2.5-2.6,1.3c0.3-1.3,2.3-4-1-6.2c-3-2-3.9-4.4-4.3-5.6c-0.4-1.1,2.2,3.1,3.6,3.5C69.7,460.4,69.1,458.2,70.3,459.8z
			"/>
		<ellipse class="st1" cx="80.1" cy="401.7" rx="0.3" ry="0.4"/>
		<ellipse class="st1" cx="76.7" cy="402.7" rx="0.3" ry="0.5"/>
		<ellipse class="st1" cx="79.9" cy="410.2" rx="0.3" ry="0.3"/>
	</g>
	<rect x="58.1" y="389.2" class="st2" width="6.9" height="47.2"/>
	<rect x="62" y="389.2" class="st0" width="2.8" height="47.3"/>
	<rect x="62.1" y="389.9" class="st3" width="2.1" height="2.4"/>
	<path class="st0" d="M64,389.2c0,0,0.4-3.9,1.7-4.9c1.4-1.1,3.2-1.6,4.7-1.1c0.6,0.2,0.4,0.1,0.3-1.4c-0.1-1.6-1.1-2.2-1.7-2.8
		c-0.6-0.5-2.3-2.1-2.7-1.9c-0.4,0.2-1,0.8-1,0.8s-0.4-0.1-0.1-0.9c0.4-0.8,0.4-1-0.4-1.9c-0.9-1-2.8-3-2.8-3l0.1,17.1L64,389.2z"/>
	<path class="st1" d="M68.1,379.6c-0.6,0-2-0.1-3,1.2c-0.9,1.2-1.9,5.9-1.9,6.2c0,0.4-0.1,1.3-0.1,1.3s-0.3-0.5-0.2-1.3
		c0.1-0.8,0.4-2.6,0.5-3c0.2-0.4,0.5-2.4,0.8-3.2c0.4-0.8,0.9-1.6,1.9-1.9C66.7,378.8,68.7,379.6,68.1,379.6z"/>
	<g>
		<path class="st1" d="M59.9,375.6c-0.2,0.4-0.2,0.8,0,1c0.2,0.1,0.6-0.1,0.9-0.4c0.2-0.4,0.2-0.8,0-1
			C60.5,375,60.1,375.2,59.9,375.6z"/>
		<path class="st1" d="M55.7,379.6c0.6,0,2-0.1,3,1.2c0.9,1.2,1.9,5.9,1.9,6.2c0,0.4,0.1,1.3,0.1,1.3s0.3-0.5,0.2-1.3
			c-0.1-0.8-0.3-2.6-0.5-3c-0.2-0.4-0.5-2.4-0.8-3.2c-0.4-0.8-0.9-1.6-1.9-1.9C57.1,378.8,55.2,379.6,55.7,379.6z"/>
		<path class="st1" d="M57.7,382.9c0,0-1.5-1.8-3.2-0.6c-0.5,0.4-0.9,0.5-0.7-0.2c0.2-0.8,0.8-1.9,1.5-1.8c0.7,0.1,0.9,0.1,1.3,0.6
			c0.4,0.5,1.2,1.2,1.4,1.5c0.2,0.3,0.5,0.4,0.5,0.8C58.5,383.9,57.7,382.9,57.7,382.9z"/>
		<path class="st1" d="M64,375.5c0.2,0.4,0.2,0.8,0,1c-0.2,0.1-0.6-0.1-0.9-0.5c-0.2-0.4-0.2-0.8,0-1
			C63.4,374.9,63.7,375.1,64,375.5z"/>
		<path class="st1" d="M64.1,378.1c-0.8,1.1-0.2,1.4-0.6,2.1c-0.5,0.8-0.5,3.8-0.8,3.6c-0.4-0.4,0.1-3.4,0.2-5c0-0.3,0.7-1,0.7-1
			S64.9,377,64.1,378.1z"/>
		<path class="st1" d="M66.2,382.9c0,0,1.5-1.8,3.2-0.6c0.5,0.4,0.9,0.5,0.7-0.2c-0.2-0.8-0.8-1.9-1.5-1.8c-0.7,0.1-0.9,0.1-1.3,0.6
			c-0.4,0.5-1.2,1.2-1.4,1.5c-0.2,0.3-0.5,0.4-0.5,0.8C65.3,383.9,66.2,382.9,66.2,382.9z"/>
	</g>
	<rect x="61.6" y="392.3" class="st0" width="0.7" height="44"/>
	<rect x="61.7" y="372.8" class="st0" width="0.6" height="17.2"/>
	<g>
		<rect x="59.4" y="393.6" class="st1" width="0.3" height="42.4"/>
		<rect x="60" y="393.6" class="st1" width="0.3" height="42.4"/>
		<rect x="60.9" y="393.6" class="st1" width="0.3" height="42.4"/>
		<rect x="64.1" y="393.6" class="st1" width="0.3" height="42.4"/>
		<rect x="63.4" y="393.6" class="st1" width="0.3" height="42.4"/>
		<rect x="62.6" y="393.6" class="st1" width="0.3" height="42.4"/>
		<rect x="59.6" y="389.9" class="st1" width="4.7" height="2.5"/>
		<rect x="61.8" y="393.6" class="st1" width="0.3" height="42.4"/>
	</g>
	<rect x="61.2" y="442.7" class="st0" width="1.4" height="7"/>
	<rect x="61.4" y="457.7" class="st0" width="0.9" height="7.4"/>
	<rect x="61.3" y="452.1" class="st0" width="1.1" height="3.2"/>
	<rect x="61.6" y="456.1" class="st1" width="0.5" height="1.4"/>
	<rect x="61.7" y="449.8" class="st1" width="0.4" height="2.1"/>
</g>
<g>
	<path id="SvgjsPath1299" class="st4" d="M141.3,433.9h-4.1v-8.6h-8v8.6H125v-20h4.1v8.1h8v-8.1h4.1V433.9z"/>
	<path id="SvgjsPath1300" class="st4" d="M150.9,426.4h5l-2.5-7.5L150.9,426.4z M157,429.7h-7.2l-1.4,4.1H144l7.4-20h3.8l7.5,20
		h-4.4L157,429.7z"/>
	<path id="SvgjsPath1301" class="st4" d="M164,413.9h4.1v16.6h8v-16.6h4.1v16.6h2.7l-0.3,8.1h-3.8v-4.8H164V413.9z"/>
	<path id="SvgjsPath1302" class="st4" d="M186,433.9h4.1v-20H186V433.9z"/>
	<path id="SvgjsPath1303" class="st4" d="M205.8,423.7c0-2.1-0.4-3.7-1.1-4.8c-0.8-1.1-1.8-1.6-3.2-1.6c-1.4,0-2.4,0.5-3.2,1.6
		s-1.1,2.6-1.1,4.7v1c0,2,0.4,3.6,1.1,4.7c0.8,1.1,1.8,1.7,3.2,1.7c1.4,0,2.4-0.5,3.2-1.6c0.7-1.1,1.1-2.7,1.1-4.7V423.7z
		 M210,424.6c0,2-0.4,3.7-1,5.2c-0.7,1.5-1.7,2.6-3,3.4c-1.3,0.8-2.8,1.2-4.5,1.2c-1.7,0-3.1-0.4-4.4-1.2c-1.3-0.8-2.3-1.9-3-3.4
		c-0.7-1.5-1.1-3.2-1.1-5.1v-1c0-2,0.4-3.7,1.1-5.2s1.7-2.6,3-3.4c1.3-0.8,2.8-1.2,4.4-1.2s3.1,0.4,4.4,1.2c1.3,0.8,2.3,2,3,3.4
		s1.1,3.2,1.1,5.2V424.6z"/>
	<path id="SvgjsPath1304" class="st4" d="M229.3,433.9h-4.1v-8.6h-8v8.6H213v-20h4.1v8.1h8v-8.1h4.1V433.9z"/>
	<path id="SvgjsPath1305" class="st4" d="M238.9,426.4h5l-2.5-7.5L238.9,426.4z M245,429.7h-7.2l-1.4,4.1H232l7.4-20h3.8l7.5,20
		h-4.4L245,429.7z"/>
	<path id="SvgjsPath1306" class="st4" d="M268.5,413.9v20h-4.1v-16.6H259l-0.3,7c-0.1,2.4-0.4,4.2-0.9,5.6c-0.5,1.4-1.1,2.4-2.1,3
		c-0.9,0.6-2.1,1-3.7,1H251v-3.3l0.7-0.1c1-0.1,1.8-0.7,2.2-1.8c0.4-1.1,0.7-2.9,0.8-5.6l0.4-9.2H268.5z"/>
	<path id="SvgjsPath1307" class="st4" d="M276.1,424.4v6.1h3.3c1,0,1.9-0.3,2.5-0.9c0.6-0.6,0.9-1.3,0.9-2.3c0-0.9-0.3-1.6-0.9-2.1
		c-0.6-0.5-1.4-0.8-2.5-0.8H276.1z M276.1,421.1h3.2c2.4,0,4.2,0.6,5.6,1.7c1.4,1.1,2.1,2.7,2.1,4.6c0,1.9-0.7,3.5-2,4.7
		c-1.4,1.2-3.2,1.8-5.5,1.8H272v-20h4.1V421.1z"/>
	<path id="SvgjsPath1308" class="st4" d="M306.3,433.9h-4.1v-8.6h-8v8.6H290v-20h4.1v8.1h8v-8.1h4.1V433.9z"/>
	<path id="SvgjsPath1309" class="st4" d="M314.9,426.4h5l-2.5-7.5L314.9,426.4z M321,429.7h-7.2l-1.4,4.1H308l7.4-20h3.8l7.5,20
		h-4.4L321,429.7z"/>
	<path id="SvgjsPath1310" class="st4" d="M343.5,419.9v9.6c-1.5,0-2.7-0.4-3.5-1.2c-0.8-0.8-1.2-2-1.2-3.5c0-1.5,0.4-2.8,1.2-3.6
		C340.9,420.3,342,419.9,343.5,419.9L343.5,419.9z M347.5,419.9c1.5,0,2.6,0.4,3.4,1.3c0.8,0.9,1.2,2.1,1.2,3.6
		c0,1.5-0.4,2.7-1.2,3.5c-0.8,0.8-1.9,1.3-3.3,1.3h-0.1V419.9z M347.5,413.9h-4v2.6c-1.7,0-3.2,0.4-4.5,1.1c-1.3,0.7-2.3,1.7-3,2.9
		c-0.7,1.3-1.1,2.7-1.1,4.3c0,1.6,0.4,3,1,4.2c0.7,1.2,1.7,2.2,3,2.9c1.3,0.7,2.8,1,4.5,1v2.5h4v-2.5c1.7,0,3.1-0.3,4.4-1
		c1.3-0.7,2.3-1.6,3-2.9c0.7-1.2,1.1-2.7,1.1-4.3c0-1.6-0.4-3.1-1.1-4.3c-0.7-1.3-1.7-2.2-3-2.9c-1.3-0.7-2.8-1.1-4.5-1.1V413.9z"/>
	<path id="SvgjsPath1311" class="st4" d="M359,433.9h4.1v-20H359V433.9z"/>
	<path id="SvgjsPath1312" class="st4" d="M383.5,413.9v20h-4.1v-16.6H374l-0.3,7c-0.1,2.4-0.4,4.2-0.9,5.6c-0.5,1.4-1.1,2.4-2.1,3
		c-0.9,0.6-2.1,1-3.7,1H366v-3.3l0.7-0.1c1-0.1,1.8-0.7,2.2-1.8c0.4-1.1,0.7-2.9,0.8-5.6l0.4-9.2H383.5z"/>
	<path id="SvgjsPath1313" class="st4" d="M392.9,426.4h5l-2.5-7.5L392.9,426.4z M399,429.7h-7.2l-1.4,4.1H386l7.4-20h3.8l7.5,20
		h-4.4L399,429.7z"/>
	<path id="SvgjsPath1314" class="st4" d="M410.1,423.5h3.7c1.1,0,1.9-0.3,2.5-0.8s0.9-1.3,0.9-2.2c0-1-0.3-1.8-0.9-2.4
		c-0.6-0.6-1.4-0.9-2.4-0.9h-3.8V423.5z M410.1,426.8v7H406v-20h7.8c1.5,0,2.8,0.3,3.9,0.8c1.1,0.6,2,1.3,2.6,2.3
		c0.6,1,0.9,2.2,0.9,3.5c0,2-0.7,3.5-2,4.6s-3.2,1.7-5.6,1.7H410.1z"/>
	<path id="SvgjsPath1315" class="st4" d="M429.4,413.9l5.1,14.5l5.1-14.5h5.4v20h-4.1v-5.5l0.4-9.4l-5.4,14.9h-2.8l-5.4-14.9
		l0.4,9.4v5.5H424v-20H429.4z"/>
	<path id="SvgjsPath1316" class="st4" d="M460.8,423.7c0-2.1-0.4-3.7-1.1-4.8c-0.8-1.1-1.8-1.6-3.2-1.6c-1.4,0-2.4,0.5-3.2,1.6
		s-1.1,2.6-1.1,4.7v1c0,2,0.4,3.6,1.1,4.7c0.8,1.1,1.8,1.7,3.2,1.7c1.4,0,2.4-0.5,3.2-1.6c0.7-1.1,1.1-2.7,1.1-4.7V423.7z
		 M465,424.6c0,2-0.3,3.7-1,5.2c-0.7,1.5-1.7,2.6-3,3.4c-1.3,0.8-2.8,1.2-4.4,1.2c-1.7,0-3.1-0.4-4.4-1.2c-1.3-0.8-2.3-1.9-3-3.4
		c-0.7-1.5-1.1-3.2-1.1-5.1v-1c0-2,0.3-3.7,1.1-5.2s1.7-2.6,3-3.4c1.3-0.8,2.8-1.2,4.4-1.2s3.1,0.4,4.4,1.2c1.3,0.8,2.3,2,3,3.4
		s1.1,3.2,1.1,5.2V424.6z"/>
	<path id="SvgjsPath1317" class="st4" d="M484.3,433.9h-4.1v-8.6h-8v8.6H468v-20h4.1v8.1h8v-8.1h4.1V433.9z"/>
	<path id="SvgjsPath1318" class="st4" d="M488,433.9h4.1v-20H488V433.9z"/>
	<path id="SvgjsPath1319" class="st4" d="M500.1,422.8c0.5,0.5,1.4,0.8,2.5,0.8h2.8v-6.3h-2.8c-2.2,0-3.3,1-3.3,3.1
		C499.3,421.5,499.6,422.3,500.1,422.8z M505.4,433.9v-7.2H502l-3.6,7.2H494l4.3-8.5c-2-1.1-3.1-2.9-3.1-5.3c0-2,0.6-3.5,1.9-4.5
		c1.3-1.1,3.1-1.6,5.4-1.6h7.1v20H505.4z"/>
	<path id="SvgjsPath1320" class="st4" d="M527.8,423.3l3.6-9.4h4.4l-7,16.5l-0.6,1.1c-1,1.8-2.6,2.7-4.8,2.7l-1.4-0.1l0-3.3
		c0.2,0,0.6,0.1,1.1,0.1c0.6,0,1-0.1,1.4-0.3c0.4-0.2,0.7-0.6,0.9-1.1l0.5-1.3l-7-14.2h4.4L527.8,423.3z"/>
	<path id="SvgjsPath1321" class="st4" d="M544.5,425.7h-2.4v8.2H538v-20h4.1v8h1.9l4.9-8h5l-6.2,9.4l6.8,10.5h-4.9L544.5,425.7z"/>
	<path id="SvgjsPath1322" class="st4" d="M560.1,423.5h3.7c1.1,0,1.9-0.3,2.5-0.8c0.6-0.5,0.8-1.3,0.8-2.2c0-1-0.3-1.8-0.9-2.4
		c-0.6-0.6-1.4-0.9-2.4-0.9h-3.8V423.5z M560.1,426.8v7H556v-20h7.8c1.5,0,2.8,0.3,4,0.8c1.1,0.6,2,1.3,2.6,2.3
		c0.6,1,0.9,2.2,0.9,3.5c0,2-0.7,3.5-2,4.6c-1.3,1.1-3.2,1.7-5.6,1.7H560.1z"/>
	<path id="SvgjsPath1323" class="st4" d="M576.9,426.4h5l-2.5-7.5L576.9,426.4z M583,429.7h-7.2l-1.4,4.1H570l7.4-20h3.8l7.5,20
		h-4.4L583,429.7z"/>
	<path id="SvgjsPath1324" class="st4" d="M591.2,434.6h4.1v-20h-4.1V434.6z M594.7,411.6c0,0.5,0.2,0.9,0.5,1.2
		c0.3,0.3,0.8,0.5,1.4,0.5s1-0.2,1.4-0.5c0.3-0.3,0.5-0.8,0.5-1.2c0-0.5-0.2-0.9-0.6-1.3c-0.4-0.3-0.8-0.5-1.3-0.5
		c-0.5,0-1,0.2-1.4,0.5C594.9,410.7,594.7,411.1,594.7,411.6z M588.5,410.4c0.3-0.3,0.8-0.5,1.4-0.5c0.6,0,1,0.2,1.4,0.5
		c0.3,0.3,0.5,0.8,0.5,1.2c0,0.5-0.2,0.9-0.5,1.2c-0.3,0.3-0.8,0.5-1.4,0.5c-0.5,0-1-0.2-1.4-0.5c-0.4-0.3-0.5-0.7-0.5-1.2
		S588.2,410.7,588.5,410.4z"/>
	<path id="SvgjsPath1325" class="st4" d="M615.3,433.9h-4.1v-8.6h-8v8.6H599v-20h4.1v8.1h8v-8.1h4.1V433.9z"/>
	<path id="SvgjsPath1326" class="st4" d="M630.1,413.9h4.1v20h-4.1v-13.3l-8,13.3H618v-20h4.1v13.3L630.1,413.9z"/>
</g>
</svg>
