<?xml version="1.0" encoding="utf-8"?>
<!-- Generator: Adobe Illustrator 19.0.0, SVG Export Plug-In . SVG Version: 6.00 Build 0)  -->
<svg version="1.1" id="Слой_2" xmlns="http://www.w3.org/2000/svg" xmlns:xlink="http://www.w3.org/1999/xlink" x="0px" y="0px"
	 viewBox="-156 368.9 282 105" style="enable-background:new -156 368.9 282 105;" xml:space="preserve">
<style type="text/css">
	.st0{fill:#AF834A;}
	.st1{fill:#C19451;}
	.st2{fill:none;}
	.st3{fill:#81CFF4;}
	.st4{fill:#FFFFFF;}
</style>
<g>
	<path class="st0" d="M-113.6,391.9c-1.2,1.3-5.7,2.3-6.7-1.6c-0.4-1.6,0.4-3.2,1.4-4.7c3.5-5.2,8.8-1.3,9.4-0.3
		c0.8,1.1,1.7,2.6,2.2,4.3c0.5,1.8,0.7,6.5,0.6,10.1c-0.1,3.6-0.7,5.1-1,6.8c-0.3,1.7-1.7,3.9-3.5,6.3c-1.7,2.4-5.6,5.7-9.3,7.6
		c-0.8,0.4,0.3,12.4,0.8,14.3c0.5,1.9,2.9,7.2,5.3,7.2c0.4,0-0.3,2.3,0.7,3.6c0.7,0.9,1.5,1.5,2.2,1.6c0.5,0.1,2-0.3,2-0.3
		s-0.9,0.3-0.6-0.9c0.3-1.3,0.9-1.3,0.9-1.3s-1.4,0.2-1.5-0.8c-0.1-0.9,0-1.1,1.7-1.3c1.7-0.2,0.3,0.1-0.2-0.8
		c-0.5-0.9-0.6-0.7,0.8-0.6c1.4,0.1-1.7-1.4-2.5-1.5c-2.1-0.2-2.1,0.8-2.7,1c-0.6,0.2,0.2-1,0.6-1.4c1-1,4.4-0.1,4.4-0.1l1.3,0.6
		c0,0,0.4,0.5,0-0.5c-0.4-0.9-1.9-1.2-1.4-1.7c0.5-0.5,1.2-0.5,1.2-0.5s0.6,0.4,0.9,0.6c0.4,0.2,0.2,0.4,0.9,0.1
		c0.8-0.3,1.5-0.3,1.5-0.3l0,30.6c0,0-4.1-5-5.2-8.7c-0.3-1.1-2.7,2.2-5.1-1.4c-1.6-2.3-1.3-3.3-1.3-3.3s-5.3-1.1-7.5-4
		c-2.1-2.8-1.6-0.5-4.9-5.5c-3.3-5-0.3-8.5-1.1-10c-0.8-1.5-3.1-2.6-2.9-3.6c0.2-0.9,0.9-1.3,1.8-1.6c0.9-0.2,1.1,0.6,1.1-0.8
		s0.2-14.6,2-15.2c1.8-0.5,1.8,0.1,4.2-0.2c2.4-0.3,9.4-2.4,11.5-8.8c2.1-6.6,1.6-7.8,1.5-10.9c0-1.3-1.3-4.3-1.8-5"/>
	<path class="st1" d="M-113.7,387.6c0,2.4-2.4,2-2.7,1.8c-0.9-0.4-1.5-1.2-1.5-2.1c0-1.6,0.6-1.8,1.9-1.8
		C-115.1,385.5-113.7,386.7-113.7,387.6z"/>
	<path class="st1" d="M-111.6,386.3c-0.3-1.2,0.9,0.4,2,2.1c1.3,1.9,2.1,6.6,2.1,7.7c0,2-0.2,4.5-0.7,6.9c-0.6,3-1.7,5-3.2,7.4
		c-0.8,1.2-5.8,6.8-12.4,8c-0.9,0.2-1.1-0.2-1.1-0.2s-0.2,2.4-0.2,4.8c0,2.4-0.7,10.3,0.4,14.1c1.1,3.8,1.6,5.5,2.2,6.5
		c0.5,0.9,1.5,2.2-0.1,0.7c-1.6-1.5-1.1-0.8-2.4-3c-1.3-2.2-1.8-3.2-2-4.3c-0.2-1.1-0.6-3-0.8-0.6c-0.2,2.5-0.5,3.4-0.6,3.2
		c-0.6-0.9-0.4-2.6-0.1-4.2c0.3-1.6-0.5-2.1-1.2-2.4c-0.6-0.2-1.5-0.7-1.5-1c0-0.2-0.1-0.3,0.7-0.4c0.8-0.1,1.6,0,1.9-0.6
		c0.3-0.6,0.3-1.5,0.3-3.8c0-2.3,0.3-6.2,0.7-8.1c0.4-1.9-0.5-3.3,0.5-3.7c0.9-0.4,1.8-0.1,3.5-0.3c1.7-0.2,3.1-1.5,5.6-2.1
		c3.9-1,8.6-8.2,8.7-13.5c0-2.3,0.2-6.5-0.1-7.9C-109.7,389.4-111.4,386.9-111.6,386.3z"/>
	<path class="st1" d="M-123.4,423.8c0.3,0-0.1,2.9,0.5,4.3c0.4,0.9-0.2,2.1,0.2,0.9c0.4-1.1,1-2.8,1.3-2.2c0.1,0.2-0.1,1.6,0,2.9
		c0.1,1.3-0.1,2.5,0.6,4.8c0.7,2.3,1.1,4.5,2,5.7c0.9,1.2,1.5,2.6,2.3,3.2c0.8,0.6,0.6,1.6,0.6,1.6s-0.7,0.3-0.7,1.2
		c0,0.9,2.6,3.6,0.3,2c-1.7-1.1-2.1-2.9-3.4-4.8c-1.3-1.9-1.9-2.4-2.7-3.6c-1.9-3.1-1.7-5.1-1.7-6.9c0-1.7-0.5-2.1-0.3-3.9
		C-124.2,427.3-124.1,423.8-123.4,423.8z"/>
	<path class="st1" d="M-127.4,440c-0.1,0.7-0.2,2.2,0.5,4.4c1,2.9-0.1,2.3,2,4.1c2,1.8,2.7,2.8,1.8,0.9c-0.9-1.9-1.6-2.6-1.9-3.8
		C-125.3,444.4-127.2,438.5-127.4,440z"/>
	<path class="st1" d="M-104.3,459.3l0-1.8l-1-0.4c-1.2-1.1-1.4-0.8-2-2.3c-0.6-1.5-1-2.7-0.9-1.2c0.1,1.5,0,2.1,0.8,3.1
		c0.8,1.1,1.1,1.7,1.9,2.1"/>
	<path class="st1" d="M-104.3,450.9c-0.7,0.1-1.4,0.6-1.4,0.9c0,0.4-0.2,0.7,0.2,1.1c0.5,0.4,1.2,0.5,1.2,0.5L-104.3,450.9z"/>
	<path class="st1" d="M-104.3,441c-0.7,0.1-1.6,0.6-1.6,1c0,0.4-0.2,0.7,0.2,1.1c0.5,0.4,1.3,0.5,1.3,0.5L-104.3,441z"/>
	<path class="st1" d="M-118.6,389.8c0.4,1.2,2.2,1.4,3.1,1.2c0.8-0.2,2.8-1.1,2.3-0.5c-0.5,0.6-0.6,1.2-2.3,1.8
		c-1.6,0.6-3.1,0-3.6-1c-0.6-1-0.6-1.8-0.6-2.4C-119.9,387.4-119.2,388-118.6,389.8z"/>
	<path class="st1" d="M-121.8,447.9c1.1,2.5,0.9,1.8,2.4,3.2c1.5,1.4,2,2.2,3.9,3.1c2,0.9,5.3,2.6,3.5,0.9c-1.7-1.7-2.4-1-3.7-2.5
		c-1.3-1.4-1.4-0.6-2.8-2.5c-1.4-1.9-2-2.5-3-3.4C-122.5,445.8-121.8,447.9-121.8,447.9z"/>
	<path class="st0" d="M-108.3,456.4c-0.3-0.5,0.2-0.2-0.5,0.5c-0.6,0.6-3.5,6.2-3.4,2.9c0-1.9-3.3,4-4.5,3.9c-1.3-0.1-0.9-3-1.4-3.9
		c-0.7-1-4.2-2-4.1-2.9c0.1-0.5,1.1-1.5,2.2-1.3c0.7,0.2,1.2-0.9,1.2-2.3c0-1.3-2.1-2.1-2.1-3c0-0.9-1.6,2.4-1.1,3.8
		c0.2,0.8-1.3,0.4-1.5,0c-0.2-0.3-1.5-2.3-1.7-2.6c-0.2-0.3-0.4-0.6-1.4-0.6c-1,0-1.4,1.1-1.4,1.1s-0.9-0.9-1.9-2.6
		c-0.9-1.7-3.1-3.6-6-3.5c-1.3,0-1.9-0.2-1.9-0.7c0-0.5,0.5-0.6-0.1-1.7c-0.5-1.1,0.3-1.2,0.9-0.6c0.5,0.5,1.4,0,2.1-0.9
		c0.8-0.9,0.6-0.4,1.2-0.3c1.2,0.1,0.6-1.4,1.3-1.9c0.7-0.5-0.1-1.2-0.2-1.8c-0.2-0.6-0.8-2.2,0.4-2.9c1.2-0.6,1.2-1.4,1.2-2.5
		c0-1.1-0.6-0.1-1.4,0.1c-0.8,0.2-1.3,0.2-1.8-0.3c-2.1-2.2-1.3-3.5-1.8-5c-0.7-2.1-3.7-3.8-7-2.1c-1,0.5-2.4,1.7-2.8,3.6
		c-0.4,2-0.9,3.1-0.9,3.1s-1.3-3.1-0.5-5.1c0.4-1.1,0.9-1.2,1.5-1.3c1.7-0.4,0.2-1.1,1.7-2c1-0.6,0.9-0.9,1.2-1.6
		c0.3-0.7,2.4-0.1,2.4,0.2c0,0.2,0.4,0.5,0.7,0.6c0.3,0.1,0.6,0.2,0.6,0.6c0,0.3,0.4,1,1,1.1c0.6,0.1,0.5-0.1,1,0.3
		c0.6,0.5,0.8,0.1,1.6-0.1c0.7-0.2,0.5,0.3,1.3,0.2c0.7-0.1,0-0.5,0.7-1.2c0.2-0.2,0.7-0.3,0.8-0.8c0.1-0.6-0.5-1.2-0.1-1.7
		c0.5-0.7-0.1-1,0-1.6c0.1-0.5-0.6-0.4-1.2-0.5c-0.6-0.2-0.1-1-0.6-1.2c-0.5-0.2-1.7,0.1-1.9-0.1c-0.5-0.6-4.4,1.4,0.2-1.1
		c3.3-1.8,3.9-2.3,4.5-4.1c0.4-1.3-0.4-3.1-0.6-3.6c-0.2-0.5-0.5-1.3-0.5-1.3s0.4-0.2,0.7-0.2c0.3-0.1,0.7-0.2,1.7-0.2
		c1,0,1.7,0.6,2.5,1.9c0.8,1.3,0.1,2,0.1,2s1,0.1,2.4-0.8c0.3-0.2,0.6-0.7,0.6-1.7c0-0.4-0.1-1-0.1-1.1c-0.2-0.4,0.7,0.5,1.3,0.5
		c0.4,0,1.9-0.2,1.9-0.2s-0.5-1-1.1-1.8c-0.6-0.8-0.6-0.4,0.2-0.9c0.8-0.5,1.3-0.9,1.7-1.7c0.1-0.2,0.2-0.5,0.2-0.5
		s-0.3-0.2-0.9-0.5c-0.9-0.5-0.7-0.5-1.8-0.8c-1.1-0.3-1.4-0.1-1.4-0.1s0.1-0.7-0.4-1.6c-0.5-0.9-2.1-2.5-2.1-2.5s-0.2,0.7-0.3,2
		c-0.1,1.3-0.4,1.4-0.8,2.4c-0.4,1-6.1,3.5-6.1,3.5l-1.8-1.1c0,0-3.9-1.4-6.2-2.5c-2.3-1-2.1-1.8-1.7-3.5c0.3-1.2,1-2.1,1.6-3.1
		c0.3-0.5,0.4-1.3,0.6-2.6c0.1-1.1,0.4-2.5,0.4-2.5s-5,5.2-5.7,8.2c-0.7,3-0.5,3.5,0.2,4.8c0.7,1.4,3.7,2.6,3.7,2.6s5,1.8,4.1,2.2
		c-2.3,1-4.9,5-4.9,5s-0.6-0.8-1.2-0.5c-0.6,0.3-0.4,2.5-1,2.9c-0.4,0.3-1.7-0.6-2-0.6c-0.2,0-1-0.2-0.7,0.7c0.3,0.9,1.4,2.1,1,3.6
		c-1.2,5.2-2,4-1.8,6.5c0.1,1.1-0.4,2.2-1.4,2.4c-0.5,0.1-2-1.1-2,0.7c0,1.8-0.3,2.8,2.7,5.8c1.4,1.4,2.2,3.9,1.9,4
		c-1.6,0.2-3.9,1.7-3.9,2.2c0,0.5,1.7,2.1,1.7,2.1s-1.1,0.8-1.1,1.5c0,1.4,0.5,1.4,1.2,1.9c1,0.6,0.6,0.7,0.8,0.1
		c0.2-0.6,0.4-1,0.7-1.1c1.4-0.5,3,0.9,3.5,2.1c0.5,1.3-2,2.2-2.6,2.8c-0.6,0.6-1.1,1.6-1.3,3.2c-0.2,1.7-0.3,3.6-0.4,4.7
		c-0.1,1.1-0.6,0.6-1-0.4c-0.4-0.9,0-1.7,0.2-3.1c0.2-1.4,0.2-1.3,0.2-2.1c0-0.7-0.3-1.3-1.4-2.4c-1.1-1.2-1.5-2-2-2.6
		c-0.3-0.4-1.5-2.2-1.5-2.2s-0.2,1.7-0.2,2.8c0,1.2,1.2,2.2,2.1,3.1c0.9,0.9,0.5,1.8,0.6,2.4c0.1,0.6-1.2,3.4-1.2,4.7
		c0,1.3-0.3,2.4,2,4.2c2.4,1.8,3,0.4,3.3,0.2c0.3-0.2,1.1-1,2.1-5.1c1.1-4.5,1.7-4.6,2.1-5.1c0.3-0.6,0.9,0,0.9,0s1.3,3.2,1.5,4
		c1.2,3.4,5.2,5.1,3.7,5.4c-1.5,0.3-2.7,0.4-3.5,0.9c-0.8,0.6-2.9,1.6-1.5,4.8c0.6,1.3,1.6,2,2.7,2.5c1.3,0.5,3.6,0.8,3.6,0.8
		s-2-1.4-2.7-2c-0.5-0.4-1.2-1.4-1.3-2c-0.3-0.9,1.2-1.9,2.8-1.8c1.8,0.2,0.4,0.5,2.6,1.6c2.6,1.2,3.5-0.5,3.1,0.7
		c-0.4,1.2-0.6,1.2-0.4,1.9c0.2,0.6,2.7,0,3.3,0c0.6,0,1.7,0.3,2.2,0.9c0.6,0.6,3.1,0,3.1,0c2.1,1.5,4.5-2.3,4.4-0.5
		c-0.1,1.8-1.3,2.9-1.3,2.9s0.3,0.8,1.4,0.8c1,0,3.8-2,3.8-2l3,1.4c0,0-0.2-1.1-0.1-1.4c0.5-1.9-2-5,1.3-6.2
		C-111.4,464.5-106.9,458.8-108.3,456.4z M-134,419.6c0.3,0,0.6,0.3,0.6,0.6c0,0.3-0.3,0.6-0.6,0.6c-0.3,0-0.6-0.3-0.6-0.6
		C-134.6,419.9-134.4,419.6-134,419.6z M-134.1,421.5c0.3,0,0.6,0.3,0.6,0.6c0,0.3-0.3,0.6-0.6,0.6c-0.3,0-0.6-0.3-0.6-0.6
		C-134.7,421.7-134.4,421.5-134.1,421.5z M-137.7,423.1c-0.3,0-0.6-0.3-0.6-0.6c0-0.3,0.3-0.6,0.6-0.6c0.3,0,0.6,0.3,0.6,0.6
		C-137.1,422.8-137.4,423.1-137.7,423.1z M-135.8,423.8c-0.3,0-0.6-0.3-0.6-0.6c0-0.3,0.3-0.6,0.6-0.6c0.3,0,0.6,0.3,0.6,0.6
		C-135.2,423.5-135.5,423.8-135.8,423.8z M-135.4,418.4c0.3,0,0.6,0.3,0.6,0.6c0,0.3-0.3,0.6-0.6,0.6c-0.3,0-0.6-0.3-0.6-0.6
		C-136,418.6-135.8,418.4-135.4,418.4z M-136.1,420.2c0.5,0,0.8,0.4,0.8,0.8c0,0.5-0.4,0.8-0.8,0.8c-0.5,0-0.8-0.4-0.8-0.8
		C-137,420.6-136.6,420.2-136.1,420.2z M-137.1,418.3c0.3,0,0.6,0.3,0.6,0.6c0,0.3-0.3,0.6-0.6,0.6c-0.3,0-0.6-0.3-0.6-0.6
		C-137.7,418.6-137.4,418.3-137.1,418.3z M-138.1,419.8c0.3,0,0.6,0.3,0.6,0.6c0,0.3-0.3,0.6-0.6,0.6c-0.3,0-0.6-0.3-0.6-0.6
		C-138.7,420.1-138.5,419.8-138.1,419.8z M-127.8,401.3c0.5-0.6,0.4-0.4,0.4-0.7c0,0-0.1-1.1,0.4-1.2c0.5-0.1,0.5,0.8,0.7,1.2
		c0.2,0.4,0.1,0.8-0.5,1.2c-0.6,0.4-2.1,0.7-2.1,0.7S-128.3,401.9-127.8,401.3z M-131.8,404.7c1-0.5,0.8-0.6,1.9-0.8
		c1.1-0.2,0.8-0.4,1.8-0.7c1-0.2,1.2-0.8,1.8-1c0.5-0.2,0.5,0.2,1.2,0.2c0.7,0,1.9,0.5,1.9,0.5l-0.5,0.2l-1.1,0.2
		c0,0-2.1,0.4-3.6,0.8l1,0.4l1,0.2c0,0-0.8,0.3-1.2,0.5c-0.4,0.2-1.3-0.3-1.6-0.3c-0.3,0-0.9,0-1.4,0c-0.5,0-1-0.1-1.1,0.6
		c-0.1,0.7-0.2,0.7-0.2,0.7l-0.3-0.1l-0.9-0.4l-0.7,0C-133.8,405.9-132.7,405.2-131.8,404.7z M-141.5,410.9c0.7-1.2,2.8-2.9,2.8-2.9
		c0.1,1.8,0.8,2.9,0.7,3.9c-0.2,1.2-1.2,2.7-2.1,3.8c-1,1.1-1.1,1.2-1.6,1.6c-0.5,0.4-2,1.9-2,1.9s0.7-0.9,0.6-2.2
		c-0.1-1.3-0.1-1.5-0.5-2.3C-144.5,412.5-142.8,413.1-141.5,410.9z M-141.6,419.2c1.1-0.1,0.9-1.9,2.1-2.7c1.3-0.8,1.3-1.5,1.8-2.6
		c0.5-1.1,0.5-1.1,0.6-2.5c0.2-1.4-0.2-2.5-0.6-3.6c-0.4-1-2.4-2.3-2.7-2.6c-0.4-0.3-3.6-0.9-4.5-1.5c-0.9-0.6-1.7-0.4-2.1-2.6
		c-0.3-1.6,0-2.4,0.6-3.6c1-1.7,2.5-3.6,3.1-4.6c0,0-2.2,4-2.2,5.5c0,1.4,0.3,2.4,0.9,2.8c0.5,0.4,1,1.1,2.5,1.6
		c1.6,0.5,1.7,0.7,2,0.8c0.3,0.1,2.1,0.6,2.3,0.7c0.4,0.3,1.4,0.7,2.6,2.2c1.3,1.5,0.7,2.9,0.3,4.6c-0.4,1.8-0.9,2.5-1.9,3.9
		c-1,1.4-1.2,1.3-2.4,1.9c-1.2,0.6-0.4,1.8-0.9,2.6c-0.5,0.8-0.5,0.9-1.6,1c-1,0.1-2.2-0.8-2.2-0.8S-142.7,419.3-141.6,419.2z
		 M-136.7,441.7c-0.7,0-1.2-0.4-1.2-0.8c0-0.4,0.5-0.8,1.2-0.8c0.7,0,1.2,0.4,1.2,0.8C-135.5,441.4-136,441.7-136.7,441.7z
		 M-143.1,426.5c1.1-0.6,0.7-0.5,2.4-1c0.7-0.2,1.7-0.2,2.2,0.4c0.5,0.6,0.4,0.6,0.8,1.3c0.4,0.7,0.6,1,0.8,2.2
		c0.2,1.2,0.1,1.5,0.8,2.6c0.7,1.1,1.2,1,2,1.2c0.8,0.2,1.8,0.1,1.8,0.1s0.8-0.4-0.2,0.4c-1,0.8-1.3,1.1-2.2,0.9
		c-0.9-0.2-1-0.3-1.6-1.3c-0.5-0.9-0.6-1.3-1.4-2.5c-0.8-1.3-0.8-2.1-1.7-2.7c-0.8-0.7-1.3-0.8-2.3-0.7c-1,0.1-1.6,0.2-2.1,0.6
		c-0.5,0.4-0.7,0.7-0.7,0.7S-144,427-143.1,426.5z M-144.3,432.1c0.1-0.8,1.3-2.7,2.4-3.2c1-0.5,2.6,0.9,3.3,1.8
		c0.7,1,1.6,3,1.9,3.3c0.4,0.4-1.1,0.7-2.1-0.1c-1-0.8-1.5,0-2.1-0.2c-0.6-0.2-0.2-0.2-1.1-0.2c-0.9,0-2.1,0.7-2.3,0.2
		C-144.6,433.1-144.3,432.9-144.3,432.1z M-141.1,444.2c0.6,1,1.3,1.4,0.9,1.9c-0.4,0.5-0.6,0.4-1.3-0.2c-0.8-0.7-1.3-1.8-1.3-2.2
		s-0.4-1.8-0.4-1.8C-142,443.2-141.7,443.2-141.1,444.2z M-142.8,434.5c0.3-0.3,1.1-0.1,1.8,0.5c0.6,0.6,0.9,1.4,0.5,1.8
		c-0.3,0.3-1.1,0.1-1.8-0.5C-142.9,435.6-143.2,434.8-142.8,434.5z M-146.3,419.3c0.2-0.6,0.6-0.1,0.2-1.2c-0.4-1.1-0.1-1.6-0.1-1.6
		l0.5-1c0,0,0.6,1.7,1,1.7c0.3,0,0.5-0.2,0.5-0.2s0,0.2-0.1,0.7c-0.3,1.2-0.3,1.2-0.6,1.9c-0.3,0.8-0.8,0.5-1.1,0.5
		C-146.3,420.2-146.6,419.9-146.3,419.3z M-149.6,433.7c-0.4-0.6,0.1-0.4-0.7-0.7c-0.8-0.4-0.5,0.1-1.2-0.8
		c-0.7-0.9-0.4-0.4-0.8-1.6c-0.3-1.2,0-1.7,0-1.9c0-0.2-0.4-0.7,0.8,0.1c1.1,0.8,0.5,0.3,1.3,1.3c0.7,0.9,0.3,1.7,0.4,2
		c0.1,0.3,1,1.2,1.1,1.4c0.1,0.2,1.1,0.9,1.1,0.9l-1.2-2.7c0,0-0.9-4-0.8-5.4c0-0.6,0.5-2,0.7-2.3c0.2-0.3,0-1.4,0.7-2.3
		c0.7-0.9,1.2-1.3,1.2-1.3s-0.2,0.2,0.8,0.5c1,0.2,1.4,0.1,1.5-0.1c0.3-0.7,0,0.1-0.5,1.1c-0.5,1-0.1,0.8-0.8,1.4
		c-0.9,0.8-1.4,1.1-1.8,1.1c-0.4,0-0.7-0.8-0.7,0.6c-0.1,1.4,0.1,1,0.1,2.2c0,1.3-0.3,1.5,0.1,2.6c0.4,1.2,0.1,0.8,0.5,1.9
		c0.5,1.1,0.5,1.2,0.7,1.6c0.1,0.5-0.4,0.5,0.8,1c1.2,0.4,1.9-0.1,1.4,0.7c-0.5,0.8,0.4,1.5-1,1.1c-1.4-0.4-1.8-0.5-2.7-1.1
		C-149.4,434.6-149.2,434.3-149.6,433.7z M-137.9,456.9c-1.4-0.9-1.5-1.2-1.7-2.3c-0.2-1.1,0.3-2.8,0.3-4.2c0,0,1,4.6,1.8,5.4
		C-136.5,457.1-136.3,458-137.9,456.9z M-135.2,460.4c-0.2-0.8-0.7-3-0.7-3.5c-0.1-0.5-0.7-0.7-0.8-1.7c-0.1-1-0.6-1.4-0.7-2.2
		c-0.1-0.8-0.8,0-0.9-1.2c-0.1-1.2-0.4-0.7-0.4-2.4c0-1.8-0.1-2.2-0.1-2.2s-0.6-1.4,0.4,0.4c1,1.8,0.7,1.6,0.9,2.7
		c0.2,1-0.2,2.3,0.4,1.2c0.7-1.1,0.9-0.2,0.8-1.6s-0.3-1.3-0.4-2c-0.1-0.7-0.3-2.1,0.1-0.7c0.4,1.3,0.5,1.1,0.7,2.1
		c0.2,1,0.2,0.7,0.2,1.8c-0.1,1-0.4,4.3-0.4,4.3c0.5-1.4-0.1-1.3,0.8-2.3c0.8-1,0.7-2.7,0.7-0.4c0.1,2.3-0.1,0.8-0.1,3.7
		c0,2.8-1.2,1.3,0.1,3.6C-133.3,462.2-135.1,461.2-135.2,460.4z M-132.4,459.9c0.2-1.5,0.4-1.2,0.3-3.2c-0.2-2-0.6-3.6-1.4-5.3
		c0,0-0.6-1.5-0.2-1.1c0.4,0.4,1.9,1,3.1,2.4c1.2,1.4,1.1,2,0.2,3.5c-0.8,1.5-0.8,1.5-1.5,4.7C-132.8,464.1-132.6,461.4-132.4,459.9
		z M-126.6,465c-0.8,0.2-1.7-0.2-2.4-1.7c-0.7-1.5-0.8-2.6-0.6-3.6c0.2-1,1-2.5,1-2.5s-0.5,3.4,0.5,4.8c1,1.3,2,1.2,2.5,1.4
		C-125.1,463.7-125.8,464.9-126.6,465z M-122.1,464.1c1.3,2.4-0.8,1-1.1,0.5c-0.4-0.5-1.8-1.6-3.4-4.7c-1.6-3.2,0.3-5.6,0.8-5.6
		c0.5,0,0.9,2.5,1.2,2.9c0.3,0.5,1.8,1.5,2.5,2.2C-121.4,460.4-122.9,462.6-122.1,464.1z"/>
	<path class="st1" d="M-141.7,420.8c1-0.1,1.5-0.3,2-1.1c0.5-0.7-0.2-1.8,0.9-2.5c1.2-0.6,4.8-3.1,5.4-5.4c0.4-1.7-0.5-3.9-1.7-5.4
		c-1.6-2.1-5.4-3.2-7-3.7c-1.5-0.5-3.3-1.1-3.1-3.9c0.1-1.8,1.5-3.3,2-4.5c0.6-1.6,0.7-3,0.7-3c-0.6,0.9-3.5,3.8-4.1,6
		c-0.4,1.2-0.9,2.1-0.6,3.7c0.4,2.2,1.1,2.3,2.1,2.8c1.6,0.9,6.3,1.6,7.3,3.9c0.4,1,0.9,2.1,0.7,3.5c-0.2,1.4-0.2,1.4-0.6,2.5
		c-0.5,1.1-0.6,1.8-1.8,2.6c-1.3,0.8-1,2.6-2.1,2.7c-1.1,0.1-2.4,0.9-2.4,0.9S-142.7,420.9-141.7,420.8z"/>
	<path class="st1" d="M-127.8,406.2c-1.4-0.3-2.4,0.2-2.4,0.2c0.9,0.5,2,0.2,2.5,1.1c0.6,1.3,0.7,2.7,0.7,2.7s1.9-0.8,0.6-3
		C-126.7,406.7-127.2,406.3-127.8,406.2z"/>
	<path class="st1" d="M-125.8,400.5c0-1.2-1.4-2.3-1.4-2.3l-0.3,1.9c-0.2,1.5-2.2,3-2.2,3s2.2-0.7,2.9-1.1
		C-126.4,401.6-125.8,400.8-125.8,400.5z"/>
	<path class="st1" d="M-131.2,406.6c0.2-0.1,0.6-0.2,0.6-0.9c0.1-0.7,2-0.3,2.3-0.2c0.6,0.2,1-0.3,1.4-0.3c1.8,0,4.1,2.1,4.1,2.1
		s-0.9-1.9-2-2.5c-0.6-0.3-2.6-0.5-2.6-0.5c1.6-0.2,2.4,0.2,3.2,0.1c1.2-0.1,1.1-0.9,1.5-1.1c0.2-0.1,1-0.2,1-0.2s-1.3-0.9-2-0.9
		c-0.7,0-1.1,0.5-1.6,0.2c-0.6-0.5-1.5,0-2.9,0.8c-1.2,0.7-2.2,0.2-2.9,1.1c-0.7,0.9-3.7,1.6-3.7,1.6s0.2,1.2,1.9,0.7
		C-131.5,406.1-132.1,407-131.2,406.6z"/>
	<path class="st1" d="M-137,421c0,0.5,0.3,1,0.8,1c0.5,0,0.9-0.6,0.9-1c0-0.5-0.4-0.8-0.8-0.8C-136.6,420.1-137,420.5-137,421z"/>
	<path class="st1" d="M-135.4,419.8c0.3,0,0.6-0.6,0.6-0.9c0-0.3-0.3-0.6-0.6-0.6c-0.3,0-0.6,0.3-0.6,0.6
		C-136,419.2-135.7,419.8-135.4,419.8z"/>
	<path class="st1" d="M-133.9,421.1c0.3,0,0.5-0.6,0.5-0.9c0-0.3-0.3-0.6-0.6-0.6c-0.3,0-0.8,0.3-0.8,0.7
		C-134.9,420.6-134.3,421.1-133.9,421.1z"/>
	<path class="st1" d="M-134.1,422.9c0.3,0,0.7-0.6,0.7-0.9c0-0.3-0.3-0.6-0.6-0.6c-0.3,0-0.8,0.4-0.8,0.7
		C-134.9,422.4-134.5,422.9-134.1,422.9z"/>
	<path class="st1" d="M-135.8,422.4c-1.1,0-0.9,0.7-0.5,1.5c0.2,0.3,0.1,0.2,0.5,0.2c0.3,0,0.8-0.4,0.8-0.7
		C-135,423-135.5,422.4-135.8,422.4z"/>
	<path class="st1" d="M-137.7,421.8c-0.3,0-0.6,0.3-0.6,0.6c0,0.3,0.2,0.7,0.6,0.7c0.3,0,0.9-0.4,0.9-0.7
		C-136.9,422.1-137.4,421.8-137.7,421.8z"/>
	<path class="st1" d="M-138.7,420.4c0,0.3,0.3,0.9,0.6,0.9c0.3,0,0.8-0.6,0.8-0.9c0-0.3-0.4-0.6-0.8-0.6
		C-138.5,419.7-138.7,420-138.7,420.4z"/>
	<path class="st1" d="M-140.2,421.5c0,0.3,0.3,0.9,0.6,0.9c0.3,0,0.8-0.6,0.8-0.9c0-0.3-0.4-0.6-0.8-0.6
		C-139.9,420.9-140.2,421.1-140.2,421.5z"/>
	<path class="st1" d="M-137.1,419.8c0.3,0,0.9-0.6,0.9-0.9c0-0.3-0.6-0.6-0.9-0.6c-0.3,0-0.6,0.3-0.6,0.6
		C-137.7,419.2-137.5,419.8-137.1,419.8z"/>
	<path class="st1" d="M-144.2,437.1c1.4,0.4-1-1.2-0.5-2c0.5-0.8-0.2-0.2-1.4-0.7c-1.2-0.4,0.6-0.9-0.8-2.2c-0.9-0.8-0.5-1.2-1-2.4
		c-0.4-1.2,0.3-1.5-0.3-3.9c-0.3-1.4,0.3-1.3,0.6-1.2c0.3,0.1,0.6,0.4,1.9,0.1c0.9-0.3-0.1-2.2,1.2-2.3c1.1-0.2,0.5-2.2,0-1.7
		c-0.2,0.1-0.6,0.3-1.5,0.1c-0.5-0.2-0.6-0.3-0.8-0.5c-0.3-0.3-0.5,0.4-1.2,1.3c-0.7,0.9-0.4,2.3-1.1,2.8c-0.4,0.2-0.1,2.1-0.4,2.6
		c-0.7,1.2,0.1,3.7,0.8,4.7c0.4,0.6,1.4,2.6,1.4,2.6s-1-0.7-1.1-0.9c-0.1-0.2-1-1.1-1.1-1.4c-0.1-0.3,0.7-2.1-1.6-3.5
		c-1.3-0.8-1.4-0.9-1.5-0.2c0,0.2-0.3,0.9,0,2.1c0.2,0.7,0.4,1,1.1,1.7c0.8,0.7,1.7,0.8,2.1,1.4c0.4,0.6,0.2,1.1,1.2,1.7
		C-147.6,435.9-145.6,436.8-144.2,437.1z"/>
	<path class="st1" d="M-146,420.3c0.3,0,0.8,0.2,1.2-0.6c0.3-0.8,0.5-0.4,0.8-1.6c0.1-0.4,0-1.5,0-1.7c0.2-1-0.4-0.3-0.7-0.3
		c-0.4,0,0-2.8-0.5-2.8c-0.3,0-0.6,2.1-1.2,2.5c-0.2,0.1-2.1-1-2.2-0.8c-0.1,0.2,1.5,2.3,1.7,2.8c0.4,1.1-0.1,0.9-0.4,1.5
		C-147.5,420-146.3,420.3-146,420.3z"/>
	<path class="st1" d="M-141.7,427.5c1,0,1.7,0.3,2.5,1c0.8,0.7,0.8,1.1,1.5,2.3c0.8,1.3,1.4,3.3,2.5,4c1,0.6,2.7,0,3.3-1
		c0.5-0.7,0.3-1.3,0.3-1.3s-1.1,1-2.2,0.7c-0.8-0.2-1.5-0.7-2-1.9c-0.5-1.3-1.1-3.5-1.5-4.3c-0.4-0.7-1.2-2-3.4-1.9
		c-3.8,0.2-4.5,5.1-4.5,5.1S-143.4,427.6-141.7,427.5z"/>
	<path class="st2" d="M-143.8,433.7c0,0,0.8-0.3,1.8-0.3c0.9,0,0.5,0,1.1,0.2c0.6,0.2,0.4,0,1.1,0c0.7,0,0-0.5,1,0.2
		c1,0.8,1.5,0.8,1.5,0.8s1-0.3,0.6-0.7c-0.4-0.4-1-0.9-1.2-1.6c-0.2-0.7-0.1-0.8-0.7-1.8c-0.7-1-0.5-1.6-1.5-1.8
		c-1-0.2-0.7-0.5-1.7-0.1c-1,0.5-0.7,0-1.4,1.2c-0.7,1.2-0.9,1.2-1,2c-0.1,0.8-0.3,1-0.1,1.5C-144.2,434-143.8,433.7-143.8,433.7z"
		/>
	<path class="st1" d="M-140.9,437.3c0.4-0.2,1.1-1.5-0.1-2.3c-0.8-0.5-1.4-0.9-1.8-0.5c-0.3,0.3-0.3,1.2,0.4,1.9
		C-141.8,436.9-141.3,437.5-140.9,437.3z"/>
	<path class="st1" d="M-143.3,443.5c0.3,1.6-0.1,2.4,1.5,3c0.8,0.3,1.2,0.3,1.5-0.3c0.4-0.5,0.1-1.4-0.5-2.4c-0.6-1-1.7-2.3-2.9-3.6
		C-143.7,440.2-143.4,443.1-143.3,443.5z"/>
	<path class="st1" d="M-136.7,440.1c-0.7,0-1.2,0.4-1.2,0.8c0,0.4,0.5,1,1.2,1c0.7,0,1.2-0.6,1.2-1
		C-135.5,440.5-136,440.1-136.7,440.1z"/>
	<path class="st1" d="M-138.9,436.4c-0.7,0-1.2,0.4-1.2,0.8c0,0.4,0.5,1,1.2,1c0.7,0,1.2-0.6,1.2-1
		C-137.7,436.7-138.2,436.4-138.9,436.4z"/>
	<path class="st1" d="M-134.2,438.8c-0.7,0-0.7,0.7-0.7,1.1c0,0.4,0.1,0.8,0.7,0.8c0.7,0,0.7-0.7,1-1.2
		C-133,439.2-133.5,438.8-134.2,438.8z"/>
	<path class="st1" d="M-136.8,435.1c-0.7,0-0.7,0.7-0.7,1.1c0,0.4,0.1,0.8,0.7,0.8c0.7,0,0.7-0.7,1-1.2
		C-135.6,435.5-136.2,435.1-136.8,435.1z"/>
	<path class="st1" d="M-134.4,436.2c-0.7,0-1.1,0.7-1.1,1.1c0,0.4,0.5,1,1.2,1c0.7,0,0.9-1,0.9-1.4
		C-133.3,436.5-133.7,436.2-134.4,436.2z"/>
	<path class="st1" d="M-136.5,437.6c-0.7,0-1.1,0.7-1.1,1.1c0,0.4,0.5,1,1.2,1c0.7,0,0.9-1,0.9-1.4
		C-135.5,437.9-135.8,437.6-136.5,437.6z"/>
	<path class="st1" d="M-139.2,438.6c-0.7,0-1.1,0.7-1.1,1.1c0,0.4,0.5,1,1.2,1c0.7,0,0.9-1,0.9-1.4
		C-138.2,438.9-138.6,438.6-139.2,438.6z"/>
	<path class="st1" d="M-139,457.9c-0.6-0.8-1.4-2.5-1.4-4.2c0-1.6,0.6-5.6,0.6-5.6l0.7-3.2c0,0-1.1,2.5-1.4,3.4
		c-0.8,2.1-1,2.5-1.1,3.5c-0.1,1.6,0,1,0.3,3.1c0.2,2.1-1.9-3.5-1.9-5.2c0-1.7-3.1-6.3-2.8-7.5c0.7-2.4-0.6-4.4-4-3
		c-1.1,0.4-2.1,1.1-2.1,1.1c1.1,0,3,1,2.2,1.7c-3.2,2.9-0.7,3.4-0.7,3.4s1-2.6,2.6-1.7c2,1.2,2.4,2.5,3,3.8c0.5,1.3,0.5,1.6,0.5,1.6
		s-0.5-0.8-1.3-0.5c-1.3,0.5-0.9,2.3-2.3,2.6c-0.3,0.1-1.2,1.1-1.2,2.8c0,1.6,0,2.1-0.2,3.2c-0.2,1.1-0.3,1.9-0.9,2
		c-0.7,0.1-1.5-0.9-1.5-1.9c-0.1-1.3,1.1-4.5,0.2-5.8c-0.7-1-1.5-1.7-2-2.5c-1.2-1.7-1.6-2.8-1.6-2.8s-0.2,1.9,0.3,2.5
		c0.6,0.7,1.8,1.9,2,2.3c0.8,1.5,0.3,2.4,0.1,2.8c-0.7,1.6-1,3.8-0.4,5.2c0.4,1.1,2.2,3.2,3.3,2.8c1.1-0.4,1.7-3.2,1.8-4.9
		c0.2-2.8,1.3-4.5,2.4-5.3c1.1-0.7,1.3-1.7,1.9-1c0.2,0.3,0,0,0.4,1.3c0.4,1.3,1.5,4.4,2.2,5.5c1,1.4,6.3,6.5,6.3,6.5
		S-138.4,458.7-139,457.9z"/>
	<path class="st1" d="M-134.3,456.1c-0.5-2.2-0.1-0.8,0.1-3.6c0.1-1.7-0.3-4.2-0.3-4.2s-0.3,2.9-0.6,3.7c-0.2,0.5-0.8,1.4-0.8,1.4
		s0.8-3.3,0.6-4.3c-0.2-1-1-1-1.4-2.3c-0.4-1.3,0,1.4,0.1,2.1s-0.1,1.4-0.5,2.6c-0.6,1.6,0.3-2.1-0.6-3.9c-1-1.8-0.9-2.8-0.9-2.8
		s-0.9,2.4-0.5,4.4c0.4,1.7,0.5,1.8,0.7,3c0.2,1.1,2.2,4.3,2.2,4.9c0,1.6,0.8,2.6,0.9,3.4c0.3,1.6,2.1,1.9,0.7-0.6
		C-135.6,457.8-133.6,458.9-134.3,456.1z"/>
	<path class="st1" d="M-130.1,462.6c-0.2-0.5-0.4-1.7-0.3-2.3c0.3-2.6,2.2-5.7,2.3-6.4c0.1-0.7-2.6,2.9-3,5.3
		c-0.4,2.4-0.2,3.3-0.1,3.7c0.1,0.5,0.5,1.9,1.1,2.2c0.4,0.2,0.5,0.3-0.2,0.6c-0.4,0.1-2.9,2.4-2.6,2.8c0.3,0.4,3.3-1.2,3.5-0.9
		c3.1,3.2,6.1,0.2,6.4-0.1c0.3-0.3-2.1-0.6-2.8-0.8c-0.9-0.2-2.3-0.7-3.2-1.6C-129.5,464.5-129.8,463.6-130.1,462.6z"/>
	<path class="st2" d="M-122.1,459.5c-0.7-0.8-0.5-0.1-1.5-1c-1-0.9-0.9-0.7-1-1.3c-0.1-0.5-0.5-1.6-0.8-1.9
		c-0.2-0.2-0.8-0.5-1.3-0.5c-0.5,0-0.4,0.8-0.4,0.8c-0.1,1.3-1-0.3,0.5,2.8c1.6,3.2-0.1,1.9,1.3,3.6c1.3,1.8,1.6,2.6,2.3,2.8
		c0.7,0.2,1.5,0.6,0.9-0.9c-0.5-1.6-0.2-0.4-0.1-2.3C-122.1,459.8-121.4,460.3-122.1,459.5z"/>
	<path class="st1" d="M-113.2,461.6c-0.7,0.9-1.9,3.6-3.3,4.3c-0.6,0.3-1.2,0.1-2.6,1.9c-1.4,1.8,0.2,2.3-1.1,3.4
		c-2.6,1.9,2.1,1.4,3.3-1.5c0.2-0.4,3,2.6,2.7,1.3c-0.3-1.4-2.5-4.2,1-6.6c3.1-2.1,4.2-4.6,4.6-5.9c0.4-1.2-2.3,3.2-3.9,3.7
		C-112.7,462.2-112.1,459.9-113.2,461.6z"/>
	<circle class="st0" cx="-123.7" cy="400.1" r="0.9"/>
	<circle class="st0" cx="-120.6" cy="401" r="1.2"/>
	<circle class="st0" cx="-123.7" cy="409.1" r="0.8"/>
	<ellipse class="st1" cx="-123.6" cy="400.2" rx="0.4" ry="0.4"/>
	<ellipse class="st1" cx="-120" cy="401.2" rx="0.4" ry="0.5"/>
	<ellipse class="st1" cx="-123.4" cy="409.2" rx="0.3" ry="0.3"/>
	
		<rect x="-107.5" y="387.1" transform="matrix(1 1.832004e-003 -1.832004e-003 1 0.7547 0.191)" class="st2" width="7.3" height="49.9"/>
	
		<rect x="-107.4" y="386.9" transform="matrix(1 1.805783e-003 -1.805783e-003 1 0.7436 0.1919)" class="st0" width="3" height="49.9"/>
	<rect x="-106.7" y="387.8" class="st3" width="2.2" height="2.5"/>
	<rect x="-106.9" y="391.7" class="st1" width="0.3" height="44.8"/>
	<rect x="-106.2" y="391.7" class="st1" width="0.3" height="44.8"/>
	<rect x="-105.3" y="391.7" class="st1" width="0.3" height="44.8"/>
	<path class="st0" d="M-106.4,387c0,0-0.4-4.1-1.8-5.1c-1.5-1.1-3.4-1.7-5-1.2c-0.6,0.2-0.4,0.2-0.3-1.5c0.1-1.7,1.2-2.4,1.8-2.9
		c0.6-0.6,2.4-2.2,2.9-2c0.5,0.2,1,0.9,1,0.9s0.5-0.1,0.1-0.9c-0.4-0.9-0.5-1,0.5-2.1c0.9-1,2.9-3.2,2.9-3.2l-0.1,18.1L-106.4,387z"
		/>
	<path class="st1" d="M-110.8,376.9c0.6,0,2.2-0.1,3.2,1.3c1,1.3,2,6.2,2,6.6c0,0.4,0.1,1.4,0.1,1.4s0.3-0.6,0.3-1.4
		c-0.1-0.8-0.4-2.8-0.6-3.2c-0.2-0.4-0.5-2.6-0.9-3.4c-0.4-0.8-1-1.7-2-2C-109.4,376-111.4,376.9-110.8,376.9z"/>
	<path class="st1" d="M-106.6,375.3c0.9,1.2,0.2,1.5,0.7,2.2c0.5,0.9,0.5,4,0.8,3.8c0.5-0.4-0.1-3.6-0.2-5.3c0-0.3-0.7-1.1-0.7-1.1
		S-107.4,374.2-106.6,375.3z"/>
	<path class="st1" d="M-108.8,380.4c0,0-1.6-1.9-3.4-0.6c-0.6,0.4-0.9,0.6-0.7-0.2c0.2-0.8,0.9-2,1.6-1.9c0.8,0.1,1,0.1,1.4,0.6
		c0.4,0.5,1.2,1.2,1.5,1.6c0.2,0.3,0.5,0.5,0.5,0.8C-107.9,381.4-108.8,380.4-108.8,380.4z"/>
	<path class="st0" d="M-94.8,392c1.2,1.3,5.7,2.3,6.7-1.6c0.4-1.6-0.4-3.2-1.4-4.7c-3.5-5.2-8.8-1.3-9.4-0.3
		c-0.8,1.1-1.7,2.6-2.2,4.3c-0.5,1.8-0.7,6.5-0.6,10.1c0.1,3.6,0.7,5.1,1,6.8c0.3,1.7,1.7,3.9,3.5,6.3c1.7,2.4,5.6,5.7,9.3,7.6
		c0.8,0.4-0.3,12.4-0.8,14.3c-0.5,1.9-2.9,7.2-5.3,7.2c-0.4,0,0.3,2.3-0.7,3.6c-0.7,0.9-1.5,1.5-2.2,1.6c-0.5,0.1-2-0.3-2-0.3
		s0.9,0.3,0.6-0.9c-0.3-1.3-0.9-1.3-0.9-1.3s1.4,0.2,1.5-0.8c0.1-0.9,0-1.1-1.7-1.3c-1.7-0.2-0.3,0.1,0.2-0.8
		c0.5-0.9,0.6-0.7-0.8-0.6c-1.4,0.1,1.7-1.4,2.5-1.5c2.1-0.2,2.1,0.8,2.7,1c0.6,0.2-0.2-1-0.6-1.4c-1-1-4.4-0.1-4.4-0.1l-1.3,0.6
		c0,0-0.4,0.5,0-0.5c0.4-0.9,1.9-1.2,1.4-1.7c-0.5-0.5-1.2-0.5-1.2-0.5s-0.6,0.4-0.9,0.6c-0.4,0.2-0.2,0.4-0.9,0.1
		c-0.8-0.3-1.6-0.4-1.6-0.4l0,30.6c0,0,4.2-5,5.2-8.7c0.3-1.1,2.7,2.2,5.1-1.3c1.6-2.3,1.3-3.3,1.3-3.3s5.4-1.1,7.5-3.9
		c2.1-2.8,1.6-0.5,4.9-5.4c3.3-5,0.3-8.5,1.1-10c0.8-1.5,3.1-2.6,2.9-3.6c-0.2-0.9-0.9-1.3-1.8-1.6c-0.9-0.2-1.1,0.6-1.1-0.8
		c0-1.3-0.2-14.6-2-15.2c-1.8-0.6-1.8,0.1-4.2-0.2c-2.4-0.3-9.4-2.4-11.5-8.8c-2.1-6.6-1.5-7.8-1.5-10.9c0-1.3,1.3-4.3,1.8-5"/>
	<path class="st1" d="M-94.8,387.5c0,2.4,2.4,2,2.7,1.8c0.9-0.4,1.5-1.2,1.5-2.1c0-1.6-0.6-1.8-1.9-1.8
		C-93.4,385.5-94.8,386.6-94.8,387.5z"/>
	<path class="st1" d="M-96.9,386.3c0.3-1.2-0.9,0.4-2,2.1c-1.3,1.9-2.1,6.6-2.1,7.7c0,2,0.2,4.5,0.7,6.9c0.6,3,1.7,5,3.2,7.4
		c0.8,1.2,5.7,6.8,12.4,8.1c0.9,0.2,1.1-0.2,1.1-0.2s0.2,2.4,0.2,4.8c0,2.4,0.7,10.3-0.4,14.1c-1.1,3.8-1.7,5.5-2.2,6.5
		c-0.6,0.9-1.5,2.2,0.1,0.7c1.6-1.5,1.1-0.8,2.4-3c1.3-2.2,1.8-3.2,2-4.3c0.2-1.1,0.6-3,0.8-0.6c0.2,2.5,0.5,3.4,0.6,3.2
		c0.6-0.9,0.4-2.6,0.1-4.2c-0.3-1.6,0.6-2.1,1.2-2.4c0.6-0.2,1.5-0.7,1.5-0.9c0-0.2,0.1-0.3-0.7-0.4c-0.8-0.1-1.6,0-1.9-0.6
		c-0.3-0.6-0.3-1.5-0.3-3.8c0-2.3-0.3-6.2-0.7-8.1c-0.4-1.9,0.5-3.3-0.5-3.7c-0.9-0.4-1.8-0.1-3.5-0.3c-1.7-0.2-3.1-1.5-5.6-2.1
		c-3.9-1-8.6-8.2-8.7-13.5c0-2.3-0.2-6.5,0.1-7.9C-98.8,389.4-97.1,386.8-96.9,386.3z"/>
	<path class="st1" d="M-85.1,423.8c-0.3,0,0.1,2.9-0.6,4.3c-0.4,0.9,0.2,2.1-0.2,0.9c-0.4-1.1-1-2.8-1.3-2.2c-0.1,0.2,0.1,1.6,0,2.9
		c-0.1,1.3,0.1,2.5-0.6,4.8c-0.7,2.3-1.1,4.5-2,5.7c-0.9,1.2-1.5,2.6-2.3,3.2s-0.6,1.6-0.6,1.6s0.7,0.3,0.7,1.2c0,0.9-2.6,3.6-0.3,2
		c1.7-1.1,2.1-2.9,3.5-4.8c1.3-1.9,1.9-2.4,2.7-3.6c1.9-3.1,1.7-5.1,1.7-6.9c0-1.7,0.6-2.1,0.3-3.9
		C-84.4,427.3-84.4,423.8-85.1,423.8z"/>
	<path class="st1" d="M-81.2,440c0.1,0.7,0.2,2.2-0.6,4.4c-1,2.9,0.1,2.3-2,4.1c-2,1.8-2.8,2.8-1.8,0.9c0.9-1.9,1.6-2.6,1.9-3.8
		C-83.3,444.4-81.4,438.5-81.2,440z"/>
	<path class="st1" d="M-103.3,457.1c1.2-1.1,1.4-0.8,2-2.3c0.6-1.5,1-2.7,0.9-1.2c-0.1,1.5,0,2.1-0.8,3.1c-0.8,1.1-1.1,1.7-1.9,2.1
		c-0.9,0.4-1.3,0.6-1.3,0.6v-1.8L-103.3,457.1z"/>
	<path class="st1" d="M-104.3,450.9c0.7,0.1,1.4,0.6,1.4,0.9c0,0.4,0.2,0.7-0.2,1.1c-0.5,0.4-1.2,0.5-1.2,0.5V450.9z"/>
	<path class="st1" d="M-104.3,441c0.7,0,1.6,0.6,1.6,1c0,0.4,0.2,0.7-0.2,1.1c-0.5,0.4-1.3,0.5-1.3,0.5L-104.3,441z"/>
	<path class="st1" d="M-89.9,389.8c-0.4,1.2-2.2,1.4-3.1,1.2s-2.8-1.1-2.3-0.5c0.5,0.6,0.6,1.2,2.3,1.8c1.6,0.6,3.1,0,3.6-1
		c0.6-1,0.6-1.8,0.6-2.4C-88.6,387.4-89.3,388-89.9,389.8z"/>
	<path class="st1" d="M-86.8,447.9c-1.1,2.5-0.9,1.8-2.4,3.2c-1.5,1.4-2,2.2-3.9,3.1c-2,0.9-5.3,2.6-3.5,0.9c1.7-1.7,2.4-1,3.7-2.4
		c1.3-1.4,1.4-0.6,2.8-2.5c1.4-1.9,2-2.5,3-3.4C-86.1,445.8-86.8,447.9-86.8,447.9z"/>
	<path class="st0" d="M-96.2,464.9c3.3,1.2,0.8,4.2,1.3,6.2c0.1,0.3-0.1,1.4-0.1,1.4l3-1.4c0,0,2.8,2,3.8,2c1.1,0,1.4-0.8,1.4-0.8
		s-1.2-1.1-1.3-2.9c-0.1-1.8,2.3,2,4.4,0.5c0,0,2.5,0.6,3.1,0c0.5-0.5,1.6-0.8,2.2-0.9c0.6,0,3.1,0.6,3.3,0c0.2-0.6,0-0.7-0.4-1.9
		c-0.4-1.2,0.5,0.5,3.1-0.7c2.1-1,0.8-1.4,2.6-1.6c1.7-0.2,3.1,0.8,2.8,1.8c-0.2,0.6-0.9,1.6-1.3,2c-0.7,0.6-2.7,2-2.7,2
		s2.4-0.4,3.6-0.8c1.1-0.4,2.1-1.1,2.7-2.4c1.4-3.2-0.7-4.3-1.5-4.8c-0.8-0.6-2-0.6-3.5-0.9c-1.5-0.3,2.6-2,3.7-5.4
		c0.3-0.8,1.5-3.9,1.5-3.9s0.6-0.6,0.9,0c0.3,0.6,1,0.7,2,5.1c0.9,4,1.7,4.9,2,5.1c0.3,0.2,0.9,1.6,3.3-0.2c2.4-1.8,2-2.8,2-4.2
		c0-1.3-1.3-4.1-1.2-4.7c0.1-0.6-0.3-1.5,0.6-2.4c0.9-0.9,2.1-1.9,2.1-3.1c0-1.1-0.2-2.8-0.2-2.8s-1.2,1.7-1.5,2.2
		c-0.5,0.6-0.9,1.4-2,2.6c-1.1,1.2-1.4,1.7-1.4,2.4c0,0.7,0,0.6,0.2,2.1c0.2,1.4,0.6,2.1,0.2,3.1c-0.4,0.9-0.9,1.5-1,0.4
		c-0.1-1.1-0.2-3-0.4-4.7c-0.2-1.7-0.7-2.7-1.3-3.2c-0.6-0.6-3.2-1.5-2.6-2.8c0.6-1.3,2.1-2.6,3.5-2.1c0.4,0.1,0.5,0.5,0.7,1.1
		c0.2,0.6-0.2,0.5,0.8-0.1c0.7-0.4,1.3-0.5,1.2-1.9c0-0.7-1.1-1.5-1.1-1.5s1.7-1.6,1.7-2.1c0-0.5-2.3-2-3.9-2.2
		c-0.3,0,0.5-2.6,1.9-3.9c3-3,2.7-3.9,2.7-5.8c0-1.8-1.5-0.6-2-0.7c-1-0.2-1.5-1.3-1.4-2.4c0.2-2.5-0.6-1.3-1.8-6.5
		c-0.3-1.5,0.7-2.7,1-3.6c0.3-0.9-0.5-0.7-0.7-0.7c-0.2,0-1.5,0.8-2,0.6c-0.7-0.4-0.5-2.6-1-2.9c-0.6-0.3-1.2,0.5-1.2,0.5
		s-2.6-3.9-4.9-5c-0.9-0.4,4.1-2.2,4.1-2.2s3-1.2,3.7-2.6c0.7-1.3,0.9-1.8,0.2-4.8c-0.7-3-5.7-8.2-5.7-8.2s0.3,1.5,0.4,2.5
		c0.2,1.3,0.3,2.1,0.6,2.6c0.6,1.1,1.3,1.9,1.6,3.1c0.4,1.7,0.6,2.5-1.7,3.5c-2.3,1-6.2,2.4-6.2,2.4l-1.8,1.1c0,0-5.7-2.4-6.1-3.5
		c-0.4-1-0.7-1.1-0.8-2.4c-0.1-1.3-0.3-2-0.3-2s-1.7,1.6-2.1,2.5c-0.5,0.9-0.4,1.6-0.4,1.6s-0.3-0.2-1.4,0.1
		c-1.1,0.3-0.9,0.3-1.8,0.8c-0.7,0.3-0.9,0.5-0.9,0.5s0.1,0.2,0.2,0.5c0.4,0.8,0.9,1.2,1.7,1.7c0.8,0.5,0.9,0.1,0.2,0.9
		c-0.6,0.8-1.1,1.8-1.1,1.8s1.5,0.2,1.8,0.2c0.7,0,1.6-0.9,1.3-0.5c0,0.1-0.2,0.7-0.1,1.1c0.1,1,0.3,1.5,0.6,1.7
		c1.3,0.9,2.4,0.8,2.4,0.8s-0.7-0.6,0.1-2c0.8-1.3,1.5-1.9,2.5-1.9c1,0,1.4,0.1,1.7,0.2c0.3,0.1,0.7,0.2,0.7,0.2s-0.4,0.7-0.6,1.3
		c-0.2,0.6-1,2.4-0.6,3.6c0.6,1.8,1.2,2.3,4.5,4.1c4.7,2.5,0.8,0.5,0.2,1.1c-0.2,0.2-1.4-0.1-1.9,0.1c-0.5,0.2-0.1,1.1-0.6,1.2
		c-0.6,0.2-1.3,0-1.2,0.5c0.1,0.6-0.5,0.9,0,1.6c0.3,0.5-0.2,1.2-0.1,1.7c0.1,0.5,0.6,0.6,0.8,0.8c0.7,0.7,0,1.1,0.7,1.2
		c0.8,0.1,0.6-0.4,1.3-0.2c0.8,0.2,1,0.6,1.6,0.1c0.5-0.4,0.4-0.2,1-0.3c0.6-0.1,1-0.8,1-1.1c0-0.3,0.2-0.5,0.6-0.6
		c0.3-0.1,0.7-0.3,0.7-0.6c0-0.2,2-0.9,2.4-0.2c0.3,0.7,0.2,1,1.2,1.6c1.5,0.9,0,1.5,1.7,2c0.6,0.1,1.1,0.2,1.5,1.3
		c0.7,2-0.6,5.1-0.6,5.1s-0.6-1.1-0.9-3.1c-0.4-2-1.8-3.1-2.8-3.6c-3.3-1.7-6.3,0-7,2.1c-0.5,1.5,0.3,2.9-1.8,5
		c-0.5,0.5-1,0.5-1.8,0.3c-0.8-0.2-1.4-1.2-1.4-0.1c0,1.1,0,1.9,1.1,2.5c1.2,0.6,0.5,2.2,0.4,2.9c-0.2,0.6-1,1.3-0.2,1.8
		c0.7,0.5,0.2,2,1.3,1.9c0.6-0.1,0.4-0.6,1.2,0.3c0.8,0.9,1.6,1.5,2.1,0.9c0.6-0.6,1.4-0.5,0.9,0.6c-0.5,1.2-0.1,1.3-0.1,1.7
		c0,0.5-0.6,0.7-1.9,0.7c-2.8-0.1-5,1.8-6,3.5c-0.9,1.7-1.9,2.6-1.9,2.6s-0.4-1.1-1.4-1.1c-1,0-1.2,0.3-1.4,0.6
		c-0.2,0.3-1.5,2.3-1.7,2.6c-0.2,0.3-1.8,0.7-1.5,0c0.4-1.4-1.1-4.8-1.1-3.8c0,0.9-2.1,1.7-2.1,3c0,1.3,0.6,2.4,1.2,2.3
		c1.1-0.3,2.1,0.8,2.2,1.3c0.2,0.9-3.4,1.9-4.1,2.9c-0.6,0.9-0.2,3.8-1.4,3.9c-1.3,0.1-4.6-5.8-4.5-3.9c0.1,3.2-2.8-2.3-3.4-2.9
		c-0.6-0.6-0.2-1-0.5-0.5C-101.7,458.8-97.3,464.5-96.2,464.9z M-73.9,420.3c0,0.3-0.3,0.6-0.6,0.6c-0.3,0-0.6-0.3-0.6-0.6
		c0-0.3,0.3-0.6,0.6-0.6C-74.2,419.6-73.9,419.9-73.9,420.3z M-73.9,422.1c0,0.3-0.3,0.6-0.6,0.6c-0.3,0-0.6-0.3-0.6-0.6
		c0-0.3,0.3-0.6,0.6-0.6C-74.1,421.5-73.9,421.7-73.9,422.1z M-71.4,422.5c0-0.3,0.3-0.6,0.6-0.6c0.3,0,0.6,0.3,0.6,0.6
		c0,0.3-0.3,0.6-0.6,0.6C-71.2,423.1-71.4,422.8-71.4,422.5z M-73.4,423.2c0-0.3,0.3-0.6,0.6-0.6c0.3,0,0.6,0.3,0.6,0.6
		c0,0.3-0.3,0.6-0.6,0.6C-73.1,423.8-73.4,423.6-73.4,423.2z M-72.5,419c0,0.3-0.3,0.6-0.6,0.6c-0.3,0-0.6-0.3-0.6-0.6
		c0-0.3,0.3-0.6,0.6-0.6C-72.8,418.4-72.5,418.6-72.5,419z M-71.6,421c0,0.5-0.4,0.8-0.8,0.8c-0.5,0-0.8-0.4-0.8-0.8
		c0-0.5,0.4-0.8,0.8-0.8C-71.9,420.2-71.6,420.6-71.6,421z M-70.8,418.9c0,0.3-0.3,0.6-0.6,0.6c-0.3,0-0.6-0.3-0.6-0.6
		c0-0.3,0.3-0.6,0.6-0.6C-71.1,418.3-70.8,418.6-70.8,418.9z M-69.8,420.4c0,0.3-0.3,0.6-0.6,0.6c-0.3,0-0.6-0.3-0.6-0.6
		c0-0.3,0.3-0.6,0.6-0.6C-70.1,419.8-69.8,420.1-69.8,420.4z M-79.7,402.5c0,0-1.4-0.2-2.1-0.7c-0.6-0.4-0.7-0.8-0.5-1.2
		c0.2-0.4,0.2-1.3,0.7-1.2c0.5,0.1,0.4,1.2,0.4,1.2c0,0.3-0.1,0.1,0.4,0.7C-80.3,401.9-79.7,402.5-79.7,402.5z M-74.8,405.9h-0.7
		l-0.9,0.4l-0.3,0.1c0,0-0.1-0.1-0.2-0.7c-0.1-0.7-0.6-0.6-1.1-0.6c-0.5,0-1.1,0-1.4,0c-0.3,0-1.3,0.5-1.6,0.3
		c-0.4-0.2-1.2-0.5-1.2-0.5l1-0.2l1-0.4c-1.5-0.5-3.6-0.8-3.6-0.8l-1.1-0.2l-0.5-0.2c0,0,1.2-0.5,1.9-0.5c0.7,0,0.7-0.4,1.2-0.2
		c0.5,0.2,0.8,0.7,1.8,1c1,0.2,0.6,0.5,1.8,0.7c1.1,0.2,1,0.3,1.9,0.8C-75.8,405.2-74.8,405.9-74.8,405.9z M-65,414.8
		c-0.3,0.8-0.4,0.9-0.5,2.3c-0.1,1.3,0.6,2.2,0.6,2.2s-1.5-1.6-2-1.9c-0.5-0.4-0.7-0.5-1.6-1.6c-1-1.1-2-2.6-2.1-3.8
		c-0.1-1,0.6-2.1,0.7-3.9c0,0,2.1,1.7,2.8,2.9C-65.7,413.1-64,412.6-65,414.8z M-64.8,419.9c0,0-1.1,0.9-2.2,0.8c-1-0.1-1-0.2-1.6-1
		c-0.5-0.7,0.2-1.9-0.9-2.6c-1.2-0.6-1.4-0.5-2.4-1.9c-1-1.4-1.5-2.2-1.9-3.9c-0.4-1.7-1-3.1,0.3-4.6c1.3-1.5,2.2-1.9,2.6-2.2
		c0.2-0.1,2-0.6,2.3-0.7c0.3-0.1,0.5-0.3,2-0.8c1.5-0.5,2-1.2,2.5-1.6c0.6-0.4,0.9-1.4,0.9-2.8c0-1.4-2.2-5.5-2.2-5.5
		c0.6,0.9,2.2,2.9,3.1,4.6c0.6,1.1,0.9,2,0.6,3.6c-0.4,2.2-1.1,2.1-2.1,2.6c-0.9,0.6-4.1,1.1-4.5,1.5c-0.3,0.2-2.4,1.5-2.7,2.6
		c-0.4,1-0.8,2.1-0.6,3.6c0.2,1.4,0.2,1.4,0.6,2.5c0.5,1.1,0.5,1.8,1.8,2.6c1.3,0.8,1,2.6,2.1,2.7
		C-65.9,419.3-64.8,419.9-64.8,419.9z M-73.1,441c0-0.4,0.5-0.8,1.2-0.8c0.7,0,1.2,0.4,1.2,0.8c0,0.4-0.5,0.8-1.2,0.8
		C-72.5,441.8-73.1,441.4-73.1,441z M-64.1,428.8c0,0-0.2-0.4-0.7-0.7c-0.5-0.4-1.1-0.5-2.1-0.6c-1-0.1-1.4,0.1-2.3,0.7
		c-0.8,0.7-0.9,1.5-1.7,2.7c-0.8,1.3-0.9,1.6-1.4,2.5c-0.5,1-0.7,1.2-1.6,1.3c-0.9,0.2-1.1-0.2-2.2-0.9c-1-0.8-0.2-0.4-0.2-0.4
		s1,0.1,1.8-0.1c0.8-0.2,1.3-0.1,2-1.2c0.7-1.1,0.5-1.5,0.8-2.6c0.2-1.2,0.4-1.5,0.8-2.2c0.4-0.7,0.3-0.7,0.8-1.3
		c0.5-0.6,1.5-0.6,2.2-0.4c1.7,0.4,1.3,0.4,2.4,1C-64.5,427.1-64.1,428.8-64.1,428.8z M-64.2,433.6c-0.2,0.5-1.4-0.2-2.3-0.2
		c-0.9,0-0.5,0-1.1,0.2c-0.6,0.2-1.1-0.5-2.1,0.2c-1,0.8-2.5,0.5-2.1,0.1c0.4-0.4,1.3-2.4,1.9-3.3c0.7-1,2.2-2.3,3.3-1.8
		c1,0.5,2.3,2.4,2.4,3.2C-64.3,432.9-64,433.2-64.2,433.6z M-65.4,441.9c0,0-0.3,1.3-0.4,1.8c-0.1,0.5-0.5,1.6-1.3,2.2
		c-0.7,0.6-0.9,0.7-1.3,0.2c-0.4-0.5,0.3-1,0.9-1.9C-66.9,443.2-66.6,443.2-65.4,441.9z M-66.3,436.3c-0.6,0.6-1.4,0.9-1.8,0.5
		c-0.3-0.3-0.1-1.1,0.5-1.8c0.6-0.6,1.4-0.9,1.8-0.5C-65.4,434.9-65.7,435.7-66.3,436.3z M-62.6,420.2c-0.3,0-0.8,0.2-1.1-0.5
		c-0.3-0.8-0.3-0.8-0.6-1.9c-0.1-0.4-0.1-0.7-0.1-0.7s0.2,0.2,0.5,0.2c0.4,0,1-1.7,1-1.7l0.5,1c0,0,0.3,0.5-0.1,1.6
		c-0.4,1.1,0,0.6,0.2,1.2C-62,419.9-62.3,420.2-62.6,420.2z M-60.2,435.2c-0.9,0.5-1.3,0.7-2.7,1.1c-1.4,0.4-0.5-0.3-1-1.1
		s0.2-0.2,1.4-0.7c1.2-0.4,0.7-0.5,0.8-1c0.1-0.5,0.2-0.5,0.7-1.6c0.5-1.1,0.1-0.8,0.5-1.9c0.4-1.2,0.1-1.3,0.1-2.6
		c0-1.3,0.1-0.8,0.1-2.2c-0.1-1.4-0.4-0.6-0.7-0.6c-0.4,0-0.8-0.3-1.7-1.2c-0.7-0.6-0.3-0.4-0.8-1.4c-0.5-1-0.8-1.8-0.5-1.1
		c0.1,0.2,0.4,0.3,1.5,0.1c1-0.2,0.8-0.5,0.8-0.5s0.5,0.4,1.2,1.3c0.7,0.9,0.5,2,0.7,2.3c0.2,0.3,0.7,1.7,0.7,2.3
		c0.1,1.4-0.8,5.4-0.8,5.4l-1.2,2.7c0,0,1-0.7,1.1-0.9c0.1-0.2,1-1.1,1.1-1.4c0.1-0.3-0.3-1.1,0.4-2c0.8-1,0.2-0.5,1.3-1.3
		c1.1-0.8,0.8-0.3,0.8-0.1c0,0.2,0.3,0.7,0,1.9c-0.4,1.2-0.1,0.7-0.8,1.6c-0.7,0.9-0.4,0.4-1.2,0.8c-0.7,0.3-0.2,0.1-0.7,0.7
		C-59.4,434.3-59.2,434.6-60.2,435.2z M-71.1,455.9c0.7-0.9,1.8-5.4,1.8-5.4c0,1.4,0.5,3.1,0.3,4.2c-0.2,1.1-0.3,1.3-1.7,2.3
		C-72.4,458-72.1,457.1-71.1,455.9z M-74.1,459.8c1.3-2.4,0.1-0.8,0.1-3.6c0-2.8-0.1-1.4-0.1-3.7c0.1-2.3-0.1-0.6,0.7,0.4
		c0.8,1,0.2,0.9,0.8,2.3c0,0-0.3-3.3-0.4-4.3c-0.1-1,0-0.8,0.2-1.8c0.2-1,0.3-0.7,0.7-2.1c0.4-1.3,0.2,0.1,0.1,0.7
		c-0.1,0.7-0.3,0.6-0.4,2c-0.1,1.4,0.1,0.5,0.8,1.6c0.7,1.1,0.2-0.2,0.4-1.2c0.2-1-0.1-0.9,0.9-2.7c1-1.8,0.4-0.4,0.4-0.4
		s-0.1,0.5-0.1,2.2c0,1.8-0.3,1.3-0.4,2.4c-0.1,1.2-0.8,0.3-0.9,1.2c-0.1,0.8-0.5,1.3-0.7,2.2c-0.1,1-0.7,1.2-0.8,1.7
		c-0.1,0.5-0.5,2.7-0.7,3.5C-73.6,461.2-75.4,462.2-74.1,459.8z M-76.6,460.9c-0.7-3.2-0.7-3.1-1.5-4.7c-0.8-1.5-1-2.1,0.2-3.5
		c1.2-1.4,2.7-1.9,3.1-2.4c0.4-0.4-0.2,1.1-0.2,1.1c-0.8,1.6-1.2,3.3-1.4,5.3c-0.2,2,0,1.7,0.2,3.2C-76,461.4-75.8,464.1-76.6,460.9
		z M-83.1,463.4c0.5-0.2,1.5-0.1,2.5-1.4c1-1.3,0.6-4.8,0.6-4.8s0.7,1.5,1,2.5c0.2,1,0.1,2.1-0.6,3.6c-0.7,1.5-1.6,1.9-2.4,1.7
		C-82.9,464.9-83.6,463.7-83.1,463.4z M-86.5,459.6c0.7-0.8,2.2-1.8,2.5-2.2c0.3-0.5,0.7-2.9,1.2-2.9c0.5,0,2.4,2.4,0.8,5.6
		c-1.6,3.2-3,4.2-3.4,4.7c-0.4,0.5-2.4,1.9-1.1-0.5C-85.8,462.6-87.2,460.4-86.5,459.6z"/>
	<path class="st1" d="M-66.8,420.8c-1-0.1-1.5-0.3-2-1.1c-0.5-0.7,0.2-1.8-0.9-2.5c-1.2-0.6-4.8-3.1-5.4-5.4
		c-0.4-1.7,0.5-3.9,1.7-5.4c1.6-2.1,5.4-3.2,7-3.7c1.5-0.5,3.3-1.1,3.1-3.9c-0.1-1.8-1.5-3.3-2-4.5c-0.6-1.6-0.7-3-0.7-3
		c0.6,0.9,3.5,3.8,4.1,6c0.4,1.2,0.9,2.1,0.6,3.7c-0.4,2.2-1.1,2.3-2.1,2.8c-1.6,0.9-6.3,1.6-7.3,3.8c-0.4,1-0.9,2.1-0.7,3.5
		c0.2,1.4,0.2,1.4,0.6,2.5c0.5,1.1,0.5,1.8,1.8,2.6c1.3,0.8,1,2.6,2.1,2.7c1.1,0.1,2.4,0.9,2.4,0.9S-65.8,420.9-66.8,420.8z"/>
	<path class="st1" d="M-80.8,406.2c1.4-0.3,2.4,0.2,2.4,0.2c-0.9,0.5-2,0.2-2.5,1.1c-0.6,1.3-0.7,2.7-0.7,2.7s-1.9-0.8-0.6-3
		C-81.8,406.7-81.4,406.3-80.8,406.2z"/>
	<path class="st1" d="M-82.7,400.4c0-1.2,1.4-2.3,1.4-2.3l0.3,1.9c0.2,1.5,2.2,3,2.2,3s-2.2-0.7-2.9-1.1
		C-82.2,401.6-82.7,400.8-82.7,400.4z"/>
	<path class="st1" d="M-77.3,406.6c-0.2-0.1-0.6-0.2-0.6-0.9c-0.1-0.7-2-0.3-2.3-0.2c-0.6,0.2-1-0.3-1.4-0.3c-1.8,0-4.1,2.1-4.1,2.1
		s0.9-1.9,2-2.5c0.6-0.3,2.6-0.5,2.6-0.5c-1.6-0.2-2.4,0.2-3.2,0.1c-1.2-0.2-1.1-0.9-1.5-1.1c-0.2-0.1-1-0.2-1-0.2s1.3-0.9,2-0.9
		c0.7,0,1.1,0.5,1.6,0.2c0.6-0.5,1.5,0,2.9,0.8c1.2,0.7,2.2,0.2,2.9,1.1c0.7,0.9,3.7,1.6,3.7,1.6s-0.2,1.2-1.9,0.7
		C-77.1,406.1-76.4,407-77.3,406.6z"/>
	<path class="st1" d="M-71.6,421c0,0.5-0.3,1-0.8,1c-0.5,0-0.9-0.6-0.9-1c0-0.5,0.4-0.8,0.8-0.8C-71.9,420.1-71.6,420.5-71.6,421z"
		/>
	<path class="st1" d="M-73.2,419.8c-0.3,0-0.6-0.6-0.6-0.9c0-0.3,0.3-0.6,0.6-0.6c0.3,0,0.6,0.3,0.6,0.6
		C-72.5,419.3-72.8,419.8-73.2,419.8z"/>
	<path class="st1" d="M-74.6,421.1c-0.3,0-0.5-0.6-0.5-0.9c0-0.3,0.3-0.6,0.6-0.6c0.3,0,0.8,0.3,0.8,0.7
		C-73.7,420.6-74.3,421.1-74.6,421.1z"/>
	<path class="st1" d="M-74.4,423c-0.3,0-0.7-0.6-0.7-0.9c0-0.3,0.3-0.6,0.6-0.6c0.3,0,0.8,0.4,0.8,0.7
		C-73.6,422.5-74.1,423-74.4,423z"/>
	<path class="st1" d="M-72.8,422.4c1.1,0,0.9,0.7,0.5,1.5c-0.2,0.3-0.1,0.2-0.5,0.2c-0.3,0-0.8-0.4-0.8-0.7
		C-73.6,423-73.1,422.4-72.8,422.4z"/>
	<path class="st1" d="M-70.8,421.8c0.3,0,0.6,0.3,0.6,0.6c0,0.3-0.2,0.7-0.6,0.7c-0.3,0-0.9-0.4-0.9-0.7
		C-71.7,422.1-71.2,421.8-70.8,421.8z"/>
	<path class="st1" d="M-69.8,420.4c0,0.3-0.3,0.9-0.6,0.9c-0.3,0-0.8-0.6-0.8-0.9c0-0.3,0.4-0.6,0.8-0.6
		C-70.1,419.8-69.8,420-69.8,420.4z"/>
	<path class="st1" d="M-68.4,421.5c0,0.3-0.3,0.9-0.6,0.9c-0.3,0-0.8-0.6-0.8-0.9c0-0.3,0.4-0.6,0.8-0.6
		C-68.6,420.9-68.4,421.1-68.4,421.5z"/>
	<path class="st1" d="M-71.4,419.8c-0.3,0-0.9-0.6-0.9-0.9c0-0.3,0.6-0.6,0.9-0.6c0.3,0,0.6,0.3,0.6,0.6
		C-70.8,419.2-71.1,419.8-71.4,419.8z"/>
	<path class="st1" d="M-64.4,437.2c-1.4,0.4,1-1.2,0.5-2c-0.5-0.8,0.2-0.2,1.4-0.7c1.2-0.4-0.6-0.9,0.8-2.2c0.9-0.8,0.6-1.2,1-2.4
		c0.4-1.2-0.3-1.5,0.3-3.9c0.3-1.4-0.3-1.3-0.6-1.2c-0.3,0.1-0.6,0.4-1.9,0.1c-0.9-0.3,0.1-2.2-1.2-2.3c-1.1-0.2-0.5-2.2,0-1.7
		c0.2,0.1,0.6,0.3,1.5,0.1c0.5-0.2,0.6-0.3,0.8-0.5c0.3-0.3,0.5,0.4,1.2,1.3c0.7,0.9,0.4,2.3,1.1,2.8c0.4,0.2,0.1,2.1,0.4,2.6
		c0.7,1.2-0.1,3.7-0.8,4.6c-0.4,0.6-1.4,2.6-1.4,2.6s1-0.7,1.1-0.9c0.1-0.2,1-1.1,1.1-1.4c0.1-0.3-0.7-2.1,1.6-3.5
		c1.3-0.8,1.4-0.9,1.5-0.2c0,0.2,0.3,0.9,0,2.1c-0.2,0.7-0.4,1-1.2,1.7c-0.8,0.7-1.7,0.8-2.1,1.4c-0.4,0.6-0.2,1.1-1.2,1.7
		C-61,435.9-63,436.8-64.4,437.2z"/>
	<path class="st1" d="M-62.6,420.3c-0.3,0-0.8,0.2-1.2-0.6c-0.3-0.8-0.5-0.4-0.8-1.6c-0.1-0.4,0-1.5,0-1.7c-0.2-1,0.4-0.3,0.7-0.3
		c0.4,0,0-2.8,0.5-2.8c0.3,0,0.6,2.1,1.2,2.5c0.2,0.1,2.1-1,2.2-0.8c0.1,0.2-1.5,2.3-1.7,2.8c-0.4,1.1,0.1,0.9,0.4,1.5
		C-61.1,420-62.3,420.3-62.6,420.3z"/>
	<path class="st1" d="M-66.9,427.6c-1,0-1.7,0.3-2.5,0.9c-0.8,0.7-0.8,1.1-1.5,2.3c-0.8,1.3-1.4,3.3-2.5,4c-1,0.6-2.7,0-3.3-1
		c-0.5-0.8-0.3-1.3-0.3-1.3s1.1,1,2.2,0.7c0.8-0.2,1.5-0.7,2-1.9c0.5-1.3,1.1-3.5,1.6-4.3c0.4-0.7,1.2-2,3.4-1.9
		c3.8,0.2,4.4,5.1,4.4,5.1S-65.2,427.7-66.9,427.6z"/>
	<path class="st2" d="M-64.7,433.7c0,0-0.8-0.3-1.8-0.3c-0.9,0-0.5,0-1.1,0.2c-0.6,0.2-0.4,0-1.1,0c-0.7,0,0-0.5-1,0.2
		c-1,0.8-1.5,0.8-1.5,0.8s-1-0.3-0.6-0.7c0.4-0.4,1-0.9,1.2-1.6c0.2-0.7,0.1-0.8,0.7-1.8c0.7-1,0.5-1.6,1.5-1.8
		c1-0.2,0.7-0.5,1.7-0.1c1,0.5,0.7,0,1.4,1.2c0.7,1.2,0.9,1.2,1,2c0.1,0.8,0.3,1,0.1,1.5C-64.4,434.1-64.7,433.7-64.7,433.7z"/>
	<path class="st1" d="M-67.7,437.3c-0.4-0.2-1.1-1.5,0.2-2.3c0.8-0.5,1.4-0.9,1.8-0.5c0.3,0.3,0.3,1.2-0.4,1.9
		C-66.8,436.9-67.2,437.5-67.7,437.3z"/>
	<path class="st1" d="M-65.3,443.6c-0.3,1.6,0.1,2.4-1.5,3c-0.8,0.3-1.2,0.3-1.5-0.3c-0.4-0.5-0.1-1.4,0.5-2.4c0.6-1,1.7-2.3,3-3.6
		C-64.9,440.2-65.2,443.1-65.3,443.6z"/>
	<path class="st1" d="M-71.9,440.1c0.7,0,1.2,0.4,1.2,0.8c0,0.4-0.5,1-1.2,1c-0.7,0-1.2-0.6-1.2-1
		C-73.1,440.5-72.5,440.1-71.9,440.1z"/>
	<path class="st1" d="M-69.7,436.4c0.7,0,1.2,0.4,1.2,0.8c0,0.4-0.5,1-1.2,1c-0.7,0-1.2-0.6-1.2-1
		C-70.9,436.7-70.3,436.4-69.7,436.4z"/>
	<path class="st1" d="M-74.4,438.8c0.7,0,0.7,0.7,0.7,1.1c0,0.4-0.1,0.8-0.7,0.8c-0.7,0-0.7-0.7-1-1.2
		C-75.6,439.2-75.1,438.8-74.4,438.8z"/>
	<path class="st1" d="M-71.7,435.1c0.7,0,0.7,0.7,0.7,1.1c0,0.4-0.1,0.8-0.7,0.8c-0.7,0-0.7-0.7-1-1.2
		C-72.9,435.5-72.4,435.1-71.7,435.1z"/>
	<path class="st1" d="M-74.2,436.2c0.7,0,1.1,0.7,1.1,1.1s-0.5,1-1.2,1c-0.7,0-0.9-1-0.9-1.4C-75.2,436.5-74.9,436.2-74.2,436.2z"/>
	<path class="st1" d="M-72.1,437.6c0.7,0,1.1,0.7,1.1,1.1c0,0.4-0.5,1-1.2,1c-0.7,0-0.9-1-0.9-1.4
		C-73.1,437.9-72.7,437.6-72.1,437.6z"/>
	<path class="st1" d="M-69.4,438.6c0.7,0,1.1,0.7,1.1,1.1c0,0.4-0.5,1-1.2,1c-0.7,0-0.9-1-0.9-1.4C-70.4,438.9-70,438.6-69.4,438.6z
		"/>
	<path class="st1" d="M-69.6,457.9c0.6-0.8,1.4-2.5,1.4-4.2c0-1.6-0.6-5.7-0.6-5.7l-0.7-3.2c0,0,1.1,2.5,1.4,3.4
		c0.8,2.1,1,2.5,1.1,3.5c0.1,1.6,0,1-0.3,3.1c-0.2,2.1,1.9-3.5,1.9-5.2c0-1.7,3.1-6.3,2.8-7.5c-0.7-2.4,0.7-4.4,4-3
		c1.1,0.4,2.1,1.1,2.1,1.1c-1.1,0-3,0.9-2.2,1.7c3.2,2.9,0.7,3.4,0.7,3.4s-1-2.6-2.6-1.7c-2,1.2-2.4,2.5-3,3.8
		c-0.5,1.3-0.5,1.6-0.5,1.6s0.5-0.8,1.3-0.5c1.3,0.5,0.9,2.3,2.3,2.6c0.3,0.1,1.2,1.1,1.2,2.8c0,1.6,0,2.1,0.2,3.2
		c0.2,1.1,0.3,1.9,0.9,2.1c0.7,0.1,1.5-0.9,1.5-1.9c0.1-1.3-1.1-4.5-0.2-5.8c0.7-1,1.5-1.7,2-2.4c1.2-1.7,1.7-2.8,1.7-2.8
		s0.2,1.9-0.4,2.5c-0.6,0.7-1.8,1.9-2,2.3c-0.8,1.5-0.3,2.4-0.1,2.8c0.7,1.6,1,3.8,0.4,5.2c-0.4,1.1-2.2,3.2-3.3,2.8
		c-1.1-0.4-1.7-3.2-1.8-4.9c-0.2-2.8-1.3-4.5-2.4-5.3c-1.1-0.7-1.3-1.7-1.9-1c-0.2,0.3,0,0-0.4,1.3c-0.4,1.3-1.5,4.4-2.2,5.5
		c-1,1.4-6.3,6.5-6.3,6.5S-70.2,458.7-69.6,457.9z"/>
	<path class="st1" d="M-74.3,456.1c0.6-2.2,0.1-0.8-0.1-3.6c-0.1-1.7,0.3-4.2,0.3-4.2s0.3,2.9,0.6,3.7c0.2,0.5,0.8,1.4,0.8,1.4
		s-0.8-3.3-0.6-4.3c0.2-1,1-1,1.4-2.3c0.4-1.3,0,1.4-0.1,2.1c-0.1,0.7,0.1,1.4,0.5,2.6c0.6,1.6-0.3-2.1,0.7-3.9
		c1-1.8,0.9-2.8,0.9-2.8s0.9,2.4,0.5,4.4c-0.4,1.7-0.5,1.8-0.7,3c-0.2,1.1-2.2,4.3-2.2,4.9c0,1.6-0.8,2.6-0.9,3.4
		c-0.3,1.6-2.1,1.9-0.7-0.6C-73.1,457.8-75,458.9-74.3,456.1z"/>
	<path class="st1" d="M-78.5,462.6c0.2-0.5,0.4-1.7,0.3-2.3c-0.3-2.6-2.2-5.7-2.3-6.4c-0.1-0.7,2.6,2.9,3,5.3
		c0.4,2.4,0.2,3.3,0.1,3.7c-0.1,0.5-0.5,1.9-1.1,2.2c-0.4,0.2-0.5,0.3,0.2,0.6c0.4,0.1,2.8,2.5,2.6,2.8c-0.3,0.4-3.3-1.2-3.5-0.9
		c-3.1,3.2-6.1,0.2-6.4-0.1c-0.3-0.3,2.1-0.6,2.8-0.8c0.9-0.2,2.3-0.7,3.2-1.6C-79.1,464.5-78.8,463.6-78.5,462.6z"/>
	<path class="st2" d="M-86.5,459.5c0.7-0.8,0.5-0.1,1.5-1c1-0.9,0.9-0.7,1-1.3c0.1-0.5,0.5-1.6,0.8-1.9c0.2-0.2,0.8-0.5,1.3-0.5
		c0.5,0,0.4,0.8,0.4,0.8c0.1,1.3,1-0.3-0.5,2.8c-1.6,3.2,0.1,1.9-1.3,3.6c-1.3,1.8-1.6,2.6-2.3,2.8c-0.7,0.2-1.5,0.6-0.9-0.9
		c0.5-1.6,0.2-0.4,0.1-2.3C-86.5,459.8-87.2,460.3-86.5,459.5z"/>
	<path class="st1" d="M-95.4,461.5c0.6,0.9,1.8,3.6,3.3,4.3c0.6,0.3,1.2,0.1,2.6,1.9c1.4,1.8-0.2,2.3,1.1,3.4
		c2.6,1.9-2.1,1.4-3.3-1.5c-0.2-0.4-3,2.6-2.7,1.3c0.3-1.4,2.5-4.2-1-6.6c-3.1-2.1-4.1-4.6-4.6-5.9c-0.4-1.2,2.3,3.2,3.9,3.7
		C-96,462.2-96.6,459.8-95.4,461.5z"/>
	<circle class="st0" cx="-84.8" cy="400.1" r="0.9"/>
	<circle class="st0" cx="-87.9" cy="401" r="1.2"/>
	<circle class="st0" cx="-84.9" cy="409.1" r="0.8"/>
	<ellipse class="st1" cx="-84.9" cy="400.2" rx="0.4" ry="0.4"/>
	<ellipse class="st1" cx="-88.5" cy="401.2" rx="0.4" ry="0.5"/>
	<ellipse class="st1" cx="-85.1" cy="409.2" rx="0.3" ry="0.3"/>
	<rect x="-108.3" y="387.1" class="st2" width="7.3" height="49.9"/>
	<rect x="-104.1" y="387" class="st0" width="3" height="49.9"/>
	<rect x="-104.1" y="387.8" class="st3" width="2.2" height="2.5"/>
	<rect x="-101.9" y="391.6" class="st1" width="0.3" height="44.8"/>
	<rect x="-102.6" y="391.6" class="st1" width="0.3" height="44.8"/>
	<rect x="-103.6" y="391.6" class="st1" width="0.3" height="44.8"/>
	<path class="st0" d="M-102.1,387c0,0,0.4-4.1,1.8-5.1c1.5-1.1,3.4-1.7,5-1.2c0.6,0.2,0.4,0.2,0.3-1.5c-0.1-1.7-1.2-2.4-1.8-2.9
		c-0.6-0.6-2.4-2.2-2.9-2.1c-0.5,0.2-1,0.9-1,0.9s-0.5-0.1-0.1-0.9c0.4-0.9,0.5-1-0.5-2.1c-0.9-1-3-3.2-3-3.2l0.1,18.1L-102.1,387z"
		/>
	<path class="st1" d="M-97.7,376.9c-0.6,0-2.2-0.1-3.2,1.3c-1,1.3-2,6.2-2,6.6c0,0.4-0.1,1.4-0.1,1.4s-0.3-0.6-0.3-1.4
		c0.1-0.8,0.4-2.8,0.6-3.2c0.2-0.4,0.5-2.6,0.9-3.4c0.4-0.8,1-1.7,2-2C-99.1,376-97.1,376.9-97.7,376.9z"/>
	<path class="st1" d="M-101.9,375.3c-0.9,1.1-0.2,1.5-0.7,2.2c-0.5,0.9-0.5,4-0.8,3.8c-0.5-0.4,0.1-3.6,0.3-5.3
		c0-0.3,0.7-1.1,0.7-1.1S-101,374.2-101.9,375.3z"/>
	<path class="st1" d="M-99.7,380.3c0,0,1.6-1.9,3.4-0.6c0.6,0.4,0.9,0.6,0.7-0.2c-0.2-0.8-0.9-2-1.6-1.9c-0.8,0.1-1,0.1-1.4,0.6
		c-0.4,0.5-1.2,1.2-1.5,1.6c-0.2,0.3-0.5,0.5-0.5,0.8C-100.6,381.4-99.7,380.3-99.7,380.3z"/>
	<rect x="-104.6" y="390.3" class="st0" width="0.8" height="46.5"/>
	<rect x="-104.5" y="369.7" class="st0" width="0.6" height="18.2"/>
	<rect x="-106.7" y="387.7" class="st1" width="5" height="2.6"/>
	<rect x="-104.4" y="391.7" class="st1" width="0.3" height="44.8"/>
	<rect x="-105" y="443.5" class="st0" width="1.5" height="7.3"/>
	<rect x="-104.8" y="459.4" class="st0" width="0.9" height="7.9"/>
	<rect x="-104.9" y="453.4" class="st0" width="1.2" height="3.4"/>
	<rect x="-104.6" y="457.6" class="st1" width="0.6" height="1.5"/>
	<rect x="-104.5" y="451" class="st1" width="0.5" height="2.2"/>
	
		<ellipse transform="matrix(0.8654 -0.5011 0.5011 0.8654 -200.6297 -1.1987)" class="st1" cx="-102.5" cy="372.9" rx="0.6" ry="0.9"/>
	
		<ellipse transform="matrix(-0.8646 -0.5025 0.5025 -0.8646 -384.8951 642.0441)" class="st1" cx="-105.9" cy="372.9" rx="0.6" ry="0.9"/>
</g>
<g>
	<path class="st4" d="M-18.8,404h-3.2v-6.7h-6.3v6.7h-3.2v-15.6h3.2v6.3h6.3v-6.3h3.2V404z"/>
	<path class="st4" d="M-7.1,400.8h-5.6l-1.1,3.2h-3.4l5.8-15.6h3l5.8,15.6H-6L-7.1,400.8z M-11.8,398.2h3.9l-2-5.8L-11.8,398.2z"/>
	<path class="st4" d="M-1.3,388.4h3.2v13h6.2v-13h3.2v13h2.1l-0.2,6.3h-3V404H-1.3V388.4z"/>
	<path class="st4" d="M18.9,404h-3.2v-15.6h3.2V404z"/>
	<path class="st4" d="M34.6,396.6c0,1.5-0.3,2.9-0.8,4c-0.5,1.2-1.3,2.1-2.3,2.7c-1,0.6-2.2,0.9-3.5,0.9c-1.3,0-2.4-0.3-3.5-0.9
		c-1-0.6-1.8-1.5-2.4-2.7c-0.6-1.2-0.8-2.5-0.8-4v-0.8c0-1.5,0.3-2.9,0.8-4.1s1.3-2.1,2.3-2.7c1-0.6,2.2-0.9,3.5-0.9
		s2.4,0.3,3.5,0.9c1,0.6,1.8,1.5,2.3,2.7s0.8,2.5,0.8,4V396.6z M31.4,395.9c0-1.6-0.3-2.9-0.9-3.7c-0.6-0.9-1.4-1.3-2.5-1.3
		c-1.1,0-1.9,0.4-2.5,1.3c-0.6,0.8-0.9,2.1-0.9,3.7v0.8c0,1.6,0.3,2.8,0.9,3.7c0.6,0.9,1.4,1.3,2.5,1.3c1.1,0,1.9-0.4,2.5-1.3
		c0.6-0.8,0.9-2.1,0.9-3.7V395.9z"/>
	<path class="st4" d="M49.6,404h-3.2v-6.7h-6.3v6.7H37v-15.6h3.2v6.3h6.3v-6.3h3.2V404z"/>
	<path class="st4" d="M61.4,400.8h-5.6l-1.1,3.2h-3.4l5.8-15.6h3l5.8,15.6h-3.4L61.4,400.8z M56.7,398.2h3.9l-2-5.8L56.7,398.2z"/>
	<path class="st4" d="M80.2,388.4V404H77v-13h-4.1l-0.3,5.5c-0.1,1.9-0.3,3.3-0.7,4.4s-0.9,1.9-1.6,2.3c-0.7,0.5-1.7,0.7-2.9,0.8
		h-0.8v-2.6l0.5-0.1c0.8-0.1,1.4-0.6,1.7-1.4c0.3-0.8,0.6-2.3,0.7-4.4l0.3-7.2H80.2z"/>
	<path class="st4" d="M86.2,394h2.5c1.8,0,3.3,0.4,4.4,1.3c1.1,0.9,1.6,2.1,1.6,3.6c0,1.5-0.5,2.7-1.6,3.7c-1.1,0.9-2.5,1.4-4.2,1.4
		H83v-15.6h3.2V394z M86.2,396.6v4.8h2.6c0.8,0,1.5-0.2,2-0.7s0.7-1.1,0.7-1.8c0-0.7-0.2-1.3-0.7-1.7c-0.5-0.4-1.1-0.6-1.9-0.6H86.2
		z"/>
	<path class="st4" d="M109.3,404h-3.2v-6.7h-6.3v6.7h-3.2v-15.6h3.2v6.3h6.3v-6.3h3.2V404z"/>
	<path class="st4" d="M121.1,400.8h-5.6l-1.1,3.2H111l5.8-15.6h3l5.8,15.6h-3.4L121.1,400.8z M116.4,398.2h3.9l-2-5.8L116.4,398.2z"
		/>
	<path class="st4" d="M-22.4,416.2c1.3,0,2.5,0.3,3.5,0.8c1,0.5,1.8,1.3,2.3,2.3c0.5,1,0.8,2.1,0.8,3.4c0,1.2-0.3,2.4-0.8,3.3
		c-0.6,1-1.3,1.7-2.3,2.3c-1,0.5-2.2,0.8-3.5,0.8v2h-3.1v-2c-1.3,0-2.5-0.3-3.5-0.8c-1-0.5-1.8-1.3-2.3-2.2s-0.8-2.1-0.8-3.3
		c0-1.3,0.3-2.4,0.8-3.4c0.6-1,1.3-1.8,2.3-2.3c1-0.5,2.2-0.8,3.5-0.8v-2h3.1V416.2z M-25.5,418.8c-1.1,0-2,0.3-2.6,1
		c-0.6,0.7-0.9,1.6-0.9,2.8c0,1.2,0.3,2.1,0.9,2.7s1.5,1,2.7,1L-25.5,418.8L-25.5,418.8z M-22.4,418.8v7.5h0.1c1.1,0,2-0.3,2.6-1
		c0.6-0.7,0.9-1.6,0.9-2.7c0-1.2-0.3-2.2-0.9-2.8C-20.3,419.2-21.2,418.8-22.4,418.8z"/>
	<path class="st4" d="M-10.2,430.4h-3.2v-15.6h3.2V430.4z"/>
	<path class="st4" d="M5.6,414.8v15.6H2.4v-13h-4.1l-0.3,5.5c-0.1,1.9-0.3,3.3-0.7,4.4s-0.9,1.9-1.6,2.3c-0.7,0.5-1.7,0.7-2.9,0.8
		H-8v-2.6l0.5-0.1c0.8-0.1,1.4-0.6,1.7-1.4c0.3-0.8,0.6-2.3,0.7-4.4l0.3-7.2H5.6z"/>
	<path class="st4" d="M17.3,427.2h-5.6l-1.1,3.2H7.2l5.8-15.6h3l5.8,15.6h-3.4L17.3,427.2z M12.6,424.6h3.9l-2-5.8L12.6,424.6z"/>
	<path class="st4" d="M26.5,424.9v5.5h-3.2v-15.6h6.1c1.2,0,2.2,0.2,3.1,0.6c0.9,0.4,1.6,1,2,1.8c0.5,0.8,0.7,1.7,0.7,2.7
		c0,1.5-0.5,2.7-1.6,3.6c-1,0.9-2.5,1.3-4.3,1.3H26.5z M26.5,422.3h2.9c0.8,0,1.5-0.2,1.9-0.6s0.7-1,0.7-1.7c0-0.8-0.2-1.4-0.7-1.9
		c-0.4-0.5-1.1-0.7-1.9-0.7h-2.9V422.3z"/>
	<path class="st4" d="M41.6,414.8l4,11.3l4-11.3h4.2v15.6h-3.2v-4.3l0.3-7.4l-4.2,11.6h-2.2l-4.2-11.6l0.3,7.4v4.3h-3.2v-15.6H41.6z
		"/>
	<path class="st4" d="M69.4,422.9c0,1.5-0.3,2.9-0.8,4c-0.5,1.2-1.3,2.1-2.3,2.7c-1,0.6-2.2,0.9-3.5,0.9c-1.3,0-2.4-0.3-3.5-0.9
		c-1-0.6-1.8-1.5-2.4-2.7c-0.6-1.2-0.8-2.5-0.8-4v-0.8c0-1.5,0.3-2.9,0.8-4.1s1.3-2.1,2.3-2.7c1-0.6,2.2-0.9,3.5-0.9
		c1.3,0,2.4,0.3,3.5,0.9c1,0.6,1.8,1.5,2.3,2.7s0.8,2.5,0.8,4V422.9z M66.1,422.2c0-1.6-0.3-2.9-0.9-3.7s-1.4-1.3-2.5-1.3
		c-1.1,0-1.9,0.4-2.5,1.3c-0.6,0.8-0.9,2.1-0.9,3.7v0.8c0,1.6,0.3,2.8,0.9,3.7c0.6,0.9,1.4,1.3,2.5,1.3c1.1,0,1.9-0.4,2.5-1.3
		c0.6-0.8,0.9-2.1,0.9-3.7V422.2z"/>
	<path class="st4" d="M84.4,430.4h-3.2v-6.7h-6.3v6.7h-3.2v-15.6h3.2v6.3h6.3v-6.3h3.2V430.4z"/>
	<path class="st4" d="M90.6,430.4h-3.2v-15.6h3.2V430.4z"/>
	<path class="st4" d="M100.7,430.4v-5.6h-2.6l-2.8,5.6h-3.5l3.3-6.7c-1.6-0.9-2.4-2.3-2.4-4.1c0-1.5,0.5-2.7,1.5-3.5
		c1-0.8,2.4-1.3,4.2-1.3h5.5v15.6H100.7z M96,419.8c0,0.9,0.2,1.5,0.6,1.9s1.1,0.6,1.9,0.6h2.2v-4.9h-2.2
		C96.8,417.4,96,418.2,96,419.8z"/>
	<path class="st4" d="M-25.7,448.5l2.8-7.4h3.5l-5.4,12.9l-0.4,0.8c-0.8,1.4-2,2.1-3.7,2.1l-1.1,0l0-2.6c0.2,0,0.4,0,0.8,0
		c0.4,0,0.8-0.1,1.1-0.2c0.3-0.2,0.5-0.4,0.7-0.9l0.4-1l-5.5-11.1h3.5L-25.7,448.5z"/>
	<path class="st4" d="M-12.6,450.4h-1.8v6.4h-3.2v-15.6h3.2v6.3h1.5l3.8-6.3h3.9l-4.8,7.4l5.3,8.2h-3.8L-12.6,450.4z"/>
	<path class="st4" d="M-0.3,451.2v5.5h-3.2v-15.6h6.1c1.2,0,2.2,0.2,3.1,0.6s1.6,1,2,1.8s0.7,1.7,0.7,2.7c0,1.5-0.5,2.7-1.6,3.6
		c-1,0.9-2.5,1.3-4.3,1.3H-0.3z M-0.3,448.6h2.9c0.8,0,1.5-0.2,1.9-0.6c0.4-0.4,0.7-1,0.7-1.7c0-0.8-0.2-1.4-0.7-1.9
		s-1.1-0.7-1.9-0.7h-2.9V448.6z"/>
	<path class="st4" d="M17.4,453.5h-5.6l-1.1,3.2H7.3l5.8-15.6h3l5.8,15.6h-3.4L17.4,453.5z M12.7,450.9h3.9l-2-5.8L12.7,450.9z"/>
	<path class="st4" d="M21.1,438.7c0-0.4,0.1-0.7,0.4-1c0.3-0.3,0.6-0.4,1.1-0.4c0.4,0,0.8,0.1,1.1,0.4c0.3,0.3,0.4,0.6,0.4,1
		s-0.1,0.7-0.4,1c-0.3,0.3-0.6,0.4-1.1,0.4c-0.4,0-0.8-0.1-1.1-0.4C21.2,439.5,21.1,439.1,21.1,438.7z M26.8,456.7h-3.2v-15.6h3.2
		V456.7z M26.3,438.7c0-0.4,0.1-0.7,0.4-1c0.3-0.3,0.6-0.4,1.1-0.4c0.4,0,0.8,0.1,1.1,0.4c0.3,0.3,0.4,0.6,0.4,1
		c0,0.4-0.1,0.7-0.4,1c-0.3,0.3-0.6,0.4-1.1,0.4s-0.8-0.1-1.1-0.4C26.4,439.4,26.3,439.1,26.3,438.7z"/>
	<path class="st4" d="M42.4,456.7h-3.2V450H33v6.7h-3.2v-15.6H33v6.3h6.3v-6.3h3.2V456.7z"/>
	<path class="st4" d="M54.6,441.1h3.2v15.6h-3.2v-10.4l-6.2,10.4h-3.2v-15.6h3.2v10.4L54.6,441.1z"/>
</g>
</svg>
