<svg id="SvgjsSvg1162" xmlns="http://www.w3.org/2000/svg" version="1.1" xmlns:xlink="http://www.w3.org/1999/xlink" xmlns:svgjs="http://svgjs.com/svgjs" width="30" height="30"><defs id="SvgjsDefs1163"></defs><path id="SvgjsPath1164" d="M1291 60C1291 51.71573 1297.71573 45 1306 45C1314.28427 45 1321 51.71573 1321 60C1321 68.28426999999999 1314.28427 75 1306 75C1297.71573 75 1291 68.28427 1291 60ZM1297.57 54.59L1306.03 62.46L1314.3999999999999 54.59ZM1310.19 60.02L1315 64.24000000000001L1315 55.67000000000001ZM1297 64.24L1301.68 60.029999999999994L1297 55.739999999999995ZM1309.4 60.73L1306.01 63.89L1302.56 60.730000000000004L1297.59 65.4L1314.4199999999998 65.4Z " fill="#eceeef" fill-opacity="1" transform="matrix(1,0,0,1,-1291,-45)"></path></svg>