<svg id="SvgjsSvg1168" xmlns="http://www.w3.org/2000/svg" version="1.1" xmlns:xlink="http://www.w3.org/1999/xlink" xmlns:svgjs="http://svgjs.com/svgjs" width="40" height="40"><defs id="SvgjsDefs1169"></defs><path id="SvgjsPath1170" d="M70.73223 623.64645L72.14644 622.2322399999999L74.26776 624.3535599999999L72.85355 625.7677699999999Z " fill="#ffffff" fill-opacity="1" transform="matrix(1,0,0,1,-50,-610)"></path><path id="SvgjsPath1171" d="M81.87 620.99C80.05000000000001 620.99 78.57000000000001 619.51 78.57000000000001 617.69C78.57000000000001 616.7800000000001 78.94000000000001 615.96 79.54 615.36L74.18 610L50.00000000000001 634.18L55.36000000000001 639.54C55.96000000000001 638.9399999999999 56.78000000000001 638.5699999999999 57.690000000000005 638.5699999999999C59.510000000000005 638.5699999999999 60.99 640.05 60.99 641.8699999999999C60.99 642.7799999999999 60.620000000000005 643.5999999999999 60.02 644.1999999999999L65.38000000000001 649.56L69.78000000000002 645.16C71.79000000000002 647.8299999999999 74.98000000000002 649.56 78.57000000000002 649.56C84.64000000000001 649.56 89.56000000000002 644.64 89.56000000000002 638.5699999999999C89.56000000000002 634.9799999999999 87.83000000000001 631.79 85.16000000000001 629.78L89.56000000000002 625.38L84.20000000000002 620.02C83.60000000000002 620.62 82.78000000000002 620.99 81.87000000000002 620.99ZM68.17 642.11L65.38 644.9L64.06 643.5799999999999C64.21000000000001 643.03 64.29 642.4499999999999 64.29 641.8699999999999C64.29 638.2299999999999 61.330000000000005 635.2699999999999 57.690000000000005 635.2699999999999C57.11000000000001 635.2699999999999 56.53000000000001 635.3499999999999 55.980000000000004 635.4999999999999L54.660000000000004 634.1799999999998L68.04 620.7999999999998L69.94000000000001 622.7099999999998L71.50000000000001 621.1499999999999L69.59000000000002 619.2499999999999L74.18000000000002 614.6599999999999L75.50000000000001 615.9799999999999C75.35000000000001 616.5299999999999 75.27000000000001 617.1099999999999 75.27000000000001 617.6899999999999C75.27000000000001 621.3299999999999 78.23 624.29 81.87 624.29C82.45 624.29 83.03 624.2099999999999 83.58 624.06L84.89999999999999 625.38L82.10999999999999 628.17C80.99999999999999 627.79 79.80999999999999 627.5799999999999 78.56999999999998 627.5799999999999C78.12999999999998 627.5799999999999 77.69999999999997 627.6099999999999 77.26999999999998 627.66L77.63999999999999 627.29L75.33999999999999 624.99L73.77999999999999 626.55L75.30999999999999 628.0699999999999C70.82999999999998 629.4599999999999 67.57999999999998 633.64 67.57999999999998 638.5699999999999C67.57999999999998 639.81 67.78999999999998 640.9999999999999 68.16999999999999 642.1099999999999ZM78.57 646.26C74.33 646.26 70.88 642.81 70.88 638.5699999999999C70.88 634.3299999999999 74.33 630.8799999999999 78.57 630.8799999999999C82.80999999999999 630.8799999999999 86.25999999999999 634.3299999999999 86.25999999999999 638.5699999999999C86.25999999999999 642.81 82.80999999999999 646.26 78.57 646.26Z " fill="#ffffff" fill-opacity="1" transform="matrix(1,0,0,1,-50,-610)"></path><path id="SvgjsPath1172" d="M79.54 633L77.34 633L77.34 637.34L73 637.34L73 639.5400000000001L77.34 639.5400000000001L77.34 643.8800000000001L79.54 643.8800000000001L79.54 639.5400000000001L83.88000000000001 639.5400000000001L83.88000000000001 637.34L79.54 637.34Z " fill="#ffffff" fill-opacity="1" transform="matrix(1,0,0,1,-50,-610)"></path></svg>