<svg id="SvgjsSvg1159" xmlns="http://www.w3.org/2000/svg" version="1.1" xmlns:xlink="http://www.w3.org/1999/xlink" xmlns:svgjs="http://svgjs.com/svgjs" width="30" height="30"><defs id="SvgjsDefs1160"></defs><path id="SvgjsPath1161" d="M1250 60C1250 51.71573 1256.71573 45 1265 45C1273.28427 45 1280 51.71573 1280 60C1280 68.28426999999999 1273.28427 75 1265 75C1256.71573 75 1250 68.28427 1250 60ZM1257.01 53.39C1257.01 53.39 1256.56 54.17 1256.75 55.63C1256.95 57.080000000000005 1258.33 58.96 1258.33 58.96L1256.6699999999998 58.29C1256.6699999999998 58.29 1256.7499999999998 59.21 1257.3999999999999 60.16C1258.04 61.11 1260.31 62.31999999999999 1260.31 62.31999999999999L1258.1499999999999 62.349999999999994C1258.1499999999999 62.349999999999994 1258.35 62.78999999999999 1259.1299999999999 63.55C1259.9199999999998 64.31 1262.1 64.98 1262.1 64.98C1262.1 64.98 1260.57 66.05 1259.5 66.46000000000001C1258.43 66.87 1256.75 66.97000000000001 1256.75 66.97000000000001C1256.75 66.97000000000001 1259.25 68.52000000000001 1263.08 68.14000000000001C1266.9099999999999 67.77000000000001 1269.55 65.97000000000001 1271.59 62.990000000000016C1273.6399999999999 60.01000000000002 1273.4399999999998 56.13000000000002 1273.4399999999998 56.13000000000002C1273.4399999999998 56.13000000000002 1273.6699999999998 55.87000000000002 1274.2099999999998 55.38000000000002C1274.7499999999998 54.88000000000002 1274.9199999999998 54.63000000000002 1274.9199999999998 54.63000000000002L1273.56 54.780000000000015L1274.44 53.210000000000015C1274.44 53.210000000000015 1273.91 53.45000000000002 1273.53 53.59000000000002C1273.16 53.72000000000002 1272.67 53.86000000000002 1272.67 53.86000000000002C1272.67 53.86000000000002 1270.7 51.45000000000002 1267.8400000000001 52.880000000000024C1264.9900000000002 54.310000000000024 1265.91 57.53000000000002 1265.91 57.53000000000002C1265.91 57.53000000000002 1263.47 57.61000000000002 1260.5900000000001 56.160000000000025C1257.71 54.700000000000024 1257.0100000000002 53.39000000000002 1257.0100000000002 53.39000000000002Z " fill="#eceeef" fill-opacity="1" transform="matrix(1,0,0,1,-1250,-45)"></path></svg>