<svg id="SvgjsSvg1156" xmlns="http://www.w3.org/2000/svg" version="1.1" xmlns:xlink="http://www.w3.org/1999/xlink" xmlns:svgjs="http://svgjs.com/svgjs" width="30" height="30"><defs id="SvgjsDefs1157"></defs><path id="SvgjsPath1158" d="M1210 60C1210 51.71573 1216.71573 45 1225 45C1233.28427 45 1240 51.71573 1240 60C1240 68.28426999999999 1233.28427 75 1225 75C1216.71573 75 1210 68.28427 1210 60ZM1226.8 50.32C1226.1699999999998 50.32 1225.57 50.39 1224.86 50.67C1223.4299999999998 51.25 1222.6999999999998 52.61 1222.6999999999998 54.730000000000004L1222.6999999999998 56.790000000000006L1220.6799999999998 56.790000000000006L1220.6799999999998 60.25000000000001L1222.6999999999998 60.25000000000001L1222.6999999999998 70.2L1226.7999999999997 70.2L1226.7999999999997 60.25L1229.5999999999997 60.25L1229.9799999999998 56.79L1226.7999999999997 56.79L1226.7999999999997 55.23C1226.7999999999997 54.75 1226.8599999999997 54.4 1226.9799999999998 54.199999999999996C1227.1599999999999 53.9 1227.5099999999998 53.739999999999995 1228.0599999999997 53.739999999999995L1229.9299999999996 53.739999999999995L1229.9299999999996 50.31999999999999Z " fill="#3c5a96" fill-opacity="1" transform="matrix(1,0,0,1,-1210,-45)"></path></svg>